<mxfile host="app.diagrams.net" agent="Mozilla/5.0 (Windows NT 10.0; Win64; x64; rv:135.0) Gecko/20100101 Firefox/135.0" version="26.0.13">
  <diagram name="Page-1" id="qyF8iGUFJTwdGiB9lp7u">
    <mxGraphModel dx="885" dy="606" grid="1" gridSize="10" guides="1" tooltips="1" connect="1" arrows="1" fold="1" page="1" pageScale="1" pageWidth="850" pageHeight="1100" math="0" shadow="0">
      <root>
        <mxCell id="0" />
        <mxCell id="1" parent="0" />
        <mxCell id="HW7efEHv6wv4-RLYA-nB-29" value="Build environment" style="rounded=0;whiteSpace=wrap;html=1;verticalAlign=top;" vertex="1" parent="1">
          <mxGeometry x="69" y="210" width="451" height="190" as="geometry" />
        </mxCell>
        <mxCell id="HW7efEHv6wv4-RLYA-nB-9" value="Runtime environment" style="rounded=0;whiteSpace=wrap;html=1;verticalAlign=top;" vertex="1" parent="1">
          <mxGeometry x="540" y="210" width="380" height="250" as="geometry" />
        </mxCell>
        <mxCell id="HW7efEHv6wv4-RLYA-nB-1" value="&lt;div&gt;Source code&lt;br&gt;(C, C++, Rust)&lt;/div&gt;" style="sketch=0;outlineConnect=0;fontColor=#232F3E;gradientColor=none;fillColor=#232F3D;strokeColor=none;dashed=0;verticalLabelPosition=bottom;verticalAlign=top;align=center;html=1;fontSize=12;fontStyle=0;aspect=fixed;pointerEvents=1;shape=mxgraph.aws4.source_code;" vertex="1" parent="1">
          <mxGeometry x="100" y="270" width="57" height="78" as="geometry" />
        </mxCell>
        <mxCell id="HW7efEHv6wv4-RLYA-nB-2" value="Compiler&lt;br&gt;(Wasm-compatible)" style="rounded=1;whiteSpace=wrap;html=1;" vertex="1" parent="1">
          <mxGeometry x="230" y="279" width="120" height="60" as="geometry" />
        </mxCell>
        <mxCell id="HW7efEHv6wv4-RLYA-nB-5" value="Wasm Module&#xa;(*.wasm file)" style="shape=image;verticalLabelPosition=bottom;labelBackgroundColor=default;verticalAlign=top;aspect=fixed;imageAspect=0;image=data:image/png,iVBORw0KGgoAAAANSUhEUgAABLAAAASwCAYAAADrIbPPAAAABGdBTUEAALGPC/xhBQAAACBjSFJNAAB6JgAAgIQAAPoAAACA6AAAdTAAAOpgAAA6mAAAF3CculE8AAAABmJLR0QA/wD/AP+gvaeTAAAAB3RJTUUH6AcUChUQfA1cMQAAgABJREFUeNrs/XmUnWmeF3b+3nsjpFBo37cIKRZFSKnIUFWW1ICB9imWwSxdlVUNCYfhNK5uKrPbLAbGNj14PONkPDD4nDkHGBuwmzbGHg4zphnPGHqMDQYDwwweoKrdlZukCEVoX1KpfUlJEfe+80dUdmVVSRHvvXHfe5977+fzX56Tf4Se+y7P832f3+/J3n7zfh4AQCFZvbL35/7Otk+MBLAeb795/x9GxG8wEgBQTMUQAAAAAJAyARYAAAAASRNgAQAAAJA0ARYAAAAASRNgAQAAAJA0ARYANGBpKMuMAtACniUA0AABFgA0suJ8/mzQKADrlUdsNAoAUJwACwAasKEysMEoAOuVRXiWAEADBFgA0IAX9apdE8C6ZXZgAUBDBFgA0ICBbNmuCWDd8kyABQCNEGABQAPqWUWABaxfroQQABohwAKABmR5xa4JYN00cQeAxgiwAKCRRWe9PmQUgPXSAwsAGiPAAoBGFp3V2GkUgPV46628GhHbjQQAFCfAAoAGZHnsMQrAemyJx7vMwwGgMV6cANCAesRuowCsx+Cz3HMEABokwAKABmRZZuEJrM/Asp2cANAgARYANEIJIbBO9WVBOAA0SoAFAI0tPS08gfWpZoJwAGiQAAsAGpLtNQbAOifggnAAaPz9CQAUlUccMQrAup4jeRw1CgDQGAEWADQgi9j/zleuDxsJoGl5jBsEAGiMAAsAGpPVB7baPQGs4ykiwAKARgmwAKDRtWdeHzMKQHPyLJQiA0DDBFgA0KAs8jGjADTjD/72J/sjQhkyADRIgAUADcrrMWYUgGbUNtaVDwJAEwRYANCoLCYNAtCMWi33/ACAJgiwAKBxs4YAaEYWuecHADRBgAUAjTv2E7/l5mbDADRBgAUATRBgAUAT788Nw5tmDAPQsCxOGQQAaGICbggAoJk1qDIgoDF/4K0HuyLisJEAgMYJsACgCVlkAiygsYn3ct1zAwCafY8aAgBoQp4rAwIafG5UPDcAoEkCLABozhvvvpt7jwKFZXn+hlEAgOaYeANAc3Zc+eV7Jw0DUFQe8euMAgA0R4AFAE2q1isWo0Ah73zl4Z6ImDISANAcARYANCmP7NcaBaCQau3XR0RmIACgOQIsAGhabgcWUOxpkWeeFwCwDgIsAGje5Ds//uSgYQDWov8VAKyPAAsA1rMorS8pIwRW9Y0v50NZxJeMBAA0T4AFAOuQ1+M3GQVgNQPbHvxoRGw0EgDQPAEWAKxDlsVvMwrAqs+JSvZbjQIArI8ACwDWZ+ynvvrwuGEAXinPBd0AsE4CLABY78u0UrM4BV7qJ9+8MxoRrxkJAFjnnNsQAMD6ZHkmwAJeaiCv/g6jAADrJ8ACgPX7V9/5yvVhwwD88Gxb/ysAaMkr1RAAwLoN1SpDTiMEvs83vpwPRZ7/RiMBAOsnwAKAFqjm2e82CsDnDWy7/9sjYquRAID1E2ABQAvkWfbmH3/ryiYjAfzKRDsTbANAy96rhgAAWmLrk6Ut/5phACIi3vnK9eE8QgN3AGgRARYAtEhet9sC+O7zoDr8YxGxxUgAQGsIsACgVbL46k/8lpubDQSQRfweowAArSPAAoDW2bxx09BvMwzQ337qq7e35nl4FgBACwmwAKCFssi/YRSgvw1kg78nIhzqAAAtJMACgJbKfts7X7l7xDhA/8ojvmkUAKC1BFgA0OJ3a16pfsMwQH965827sxHxq40EALR4km0IAKC1ssi/+dZbedVIQP/JI3vbKABA6wmwAKDlC9gY3fX84f/CSEB/+caX86GI7PcZCQBoPQEWAJQgr+R2YUCfGdz28HdGxC4jAQCtJ8ACgBLkebz5za/cHzcS0Ef3fZb/IaMAAOUQYAFAOapZNfvDhgH6wztfv/vrs4h/xUgAQDkEWABQljx/+xtfu7fDQEAf3O71yr9lFACgPAIsACjP1oG6E8mg1/30jz2YioivGgkAKI8ACwBKlGXxR996K99gJKB31av5/8q8GgDK5UULAOU6vP35w99tGKA3/eRbj/ZGxL9uJACgXAIsACj7ZZvlP/vuu7l3LvSgwRe1PxYRm4wEAJQ8pzYEAFCuPOL1a9+2Cwt6zTtfebgnj/gjRgIAyifAAoC2vHHz//27X84HDAT0jrxS/9mI2GokAKAN02lDAADtWOnG1PVt93+fgYDe8Ad/++MDEfEHjQQAtIcACwDaJM+yd51ICL1haXDp342IYSMBAO0hwAKA9hnb8fyB08qgy/3UV28fisi+aSQAoH0EWADQTln8+z/xW25uNhDQvarZhj8dTh4EgLYSYAFAex0eGt74vzYM0J3e+cr9L0Xkv99IAEB7CbAAoN3y7N/+ma/dGzMQ0H03b17J/rw5NAC0n5cvALTfUK2e/YeGAbrLO28+/L0R+Y8aCQBoPwEWAHRCFr/7p7967181ENAd/vhbVzblkf8ZIwEAnSHAAoAOqVeyP/fuu7l3MXSBJ0tbfjYijhoJAOgMk2YA6JQ8vnT9lx7+YQMBaXv76w+n8zz7WSMBAJ0jwAKADsoj/zM/9TvvTxgJSPYuzSKv/+WIGDIWANA5AiwA6KzNleX4i4YB0vTOmw/eiTx+o5EAgM4SYAFAh2URv/Xtrz74fUYC0vLOjz85mEf8H40EAHSeAAsAEpBn+V/4ma8/2mckIKH7srb0FyNip5EAgM4TYAFAArKI3bVa7c8bCUjDO1+9/1ZEfN1IAEAaBFgAkIosfq9SQui8n/mxTw7Xs/jLRgIA0iHAAoCUZPlf/Jmv3RszENAZ776bV2oDA/9lFrHbaABAOgRYAJCW7bU8/vpbb+VVQwHtd/2XHvwJpw4CQHoEWACQnOzX7Vx6+O8aB2ivd75y/0t5xJ8yEgCQHgEWACQoz/P/3Te/8uDXGAloj5/4LTc3RyX+RkRsMBoAkB4BFgCkaaBSyf/mT771aK+hgPINbdr0l/KI40YCANIkwAKAROURowMvav/Vu1/OB4wGlOedN+/98Yj89xsJAEiXAAsA0vYbrm178KcNA5Tj7Tcf/to8sj9rJAAgbQIsAEhdFv/O21+7/7sNBLTWH/ztjw9E5L8Q+l4BQPIEWACQvizy+M/e/sqdGUMBrfHOO/ng0mDtb0bkh4wGAKRPgAUA3WFLllX/9s98/dE+QwHrl9968H+OyH/USABAdxBgAUC3LLizmKjltV985yvXh40GNO+drz3430bEzxgJAOgeAiwA6CZ5/EheHf5r776be4dDE7755v3fk+f5nzISANBdTH4BoNvk8da1X3rwZwwENOabb9790Sziv4iIzGgAQHcRYAFAd/rZb7754A8ZBijmna/dn8zyyv89IjYaDQDoPgIsAOhSWeR/4Ztv3v89RgJW980fvzOS5/H3I4u9RgMAupMACwC6VzWL+L+8/fWHP2Yo4OV+5uuP9mW16t+PiHGjAQDdS4AFAN1tMOr1v/nOV+/9BkMB3+8bX7u3o16v/XcRccJoAEB3E2ABQPfblGfZL37zzbs/aihgxR/5bXe2DUb29/KIN4wGAHQ/ARYA9IbhLCp/+52v3P+SoaDf/cRvubn52YaBX4w8fsRoAEBvEGABQO/YkVfiH7z95sNfayjoV++8dXf70KaN/31EbkciAPQQARYA9JYdEfW/9/ab93+zoaDf/Bu/4/7O/EXlv4/Ifp3RAIDeIsACgN6zOSJ+8ZtfufemoaBffPOrj/cvD8Q/johfbTQAoPcIsACgN23MKtnf/Oab93+XoaDXvfOVu0eyyvL/OyJmjQYA9CYBFgD0rg1ZxP/1m1+7/wcMBb3q7a/cmYlK5Z9GHlNGAwB6lwALAHrbQJbHz3/zzXt/4d13c+99espPf+3+b4pK9Z/mEaNGAwB6m4ksAPSBLLJ/89ovPfiv/vhbVzYZDXrB21+79416Hn83InYYDQDofQIsAOgfv+vRi63/4CfferTXUNC98uydr917N/Lsr0bEoPEAgP6Qvf3m/dwwAEBfOV+pZT/2n/7i9jlDQTf5xpfzocHt938+Ivt9RgMA+osdWADQf6br1fxbb3/t/u80FHSLn3zzzujg9gf/WHgFAP1JgAUA/Wlr5PELb795/8++9VZeNRyk7Jtfu/flgaj+y4j4VUYDAPqTAAsA+lcWET+748WDv/8zX3+0z3CQnjx7+837P5vl2f8QEa5RAOjniaseWABARCxm9fhdP/d3dnzbUJCCb3zt3o7BqPy1yPM3jQYAYAcWABARMZ5X4v/3ztfuvfvuu7n5AR31za88+DUb6tm3hFcAwGfswAIAftD/mFdrv//n/+vdVw0F7fTul/OB6zvu/3t5nv17EaE3GwDwK3xhBQB+0G/IatX3v/m1B7/XUNAuP/O1e2PXtt//R3me/fshvAIAfoAACwB4me1Znv+Nt792/z9756272w0H5cmzt796/+1anr0Xkf064wEAvIwSQgBgVXnEzYj4Iz//3+z4W0aDVvqp33l/oroc/2lE/GajAQCsRoAFABST57+YD9T/Db2xWK93v5wPXNt2/w9Flv3piNhsRACAtSghBACKybIfy2rV99/+6r0/6qRCmvXTX7/3havbH/yzyLI/H8IrAKDoVNQOLACgYXn2T/NK/sd+/v+541sGgyL+0Ncf7l6q1/5UHtnPhCbtAECDBFgAQLPyiPyvDy4N/om/9N9uuWk4eJl3v5wPXN3x4KeyevwfIou9RgQAaIYACwBYrydZlv+fXtzf8Wf/2j/KnhkOPvPTX7v/m+p5/LmImDUaAMB6CLAAgFa5kEf8b0be2P4L776b1Q1H//rmV++eyiL705FlP2Y0AIBWEGABAK2eXnyQ5fmf+rm/vf1vRWTmGX3km19/9FpWX/6TEdn/MvS5AgBaOcMUYAEAJXkvy+M/EGT1vp/52r2xej37k3kWfyAEVwBACQRYAECp8oh/VsmzP/1zf3vbfyvI6i3vfOXhiajU/0Qe8RMRMWBEAICyCLAAgHaZjzz/j7dsfPxzf+4XRj81HN3rna/f/fV5Xvk3I48fDzuuAIA2EGABAO32cZblf3kwq/5Hf/H/se2O4egO776bV6780r3fkUXlT2YR/4oRAQDaSYAFAHTKk4j4G1HP/spf+Tvb/4XhSNM7P/7kYL689I3I4u2IGDciAEAnCLAAgBR8FBH/xYZK5eftyuq8d9/NK9d+6cFvjCzeiTy+FhGDRgUA6CQBFgCQkk8j8r+VZ/FXR76445+8+25WNyTt8we++uBYFvXfn2XZT0bEiBEBAFIhwAIAUvVJRP53I7L/8vAb2/+hMKscP/nmndGBvPLjkcVbEdmvjYjMqAAAqRFgAQDpT1giruSR/a28Hn9z5PS2fy7MWp93vnL3SFSy35lH9nsi4leF0AoASH0+KMACALrMJ5HF/5hH/A+VyuDf+bn/evMNQ7K6d7+cD1zfee/X5PXKj0XEb46IL4XQCgDoIgIsAKCb1SPiX2RZ/t/V6tW/P7y09V/+R383e25YIn7qqw+PV6P+G6KS/dbI898UEVuMCgDQrQRYAEAvWY6IX84j//9U8uyfLm2s/qP//Be23u71f/S7X84Hru548IWsnv/6qGS/Lurx5chir8sBAOgVAiwAoJflEXE2Iv92lmXfyerZd7L60nv/yS/uudat/6Cf+urtrYPVja/X8vpsJc9P5RFfjMhOR8SQnxsA6FUCLACgH92NiO9Elr8f9ZiPiMUsyxeX89rFv/q39z7q9B/3zjv5YHz84EgWMVaLGKvkMZFn2UxWz2fzLMZD/yoAoM8IsAAAvt8necTFLOJSRNzK8/xOFnEnj8qdrBJ36hF3qpHfWa4vfbqxNvhpRMT+H9n+4FUnI/7UV29v3VgbHHg2XB3I6rWtlaX6lkpku/NKtjeL2B2R7ckjdmf1+u56lh3JIsYi4nBEVP0UAAArBFgAAK2zFBGPI2JDRGw2HAAArTFgCAAAWmYwInYaBgCA1qoYAgAAAABSJsACAAAAIGkCLAAAAACSJsACAAAAIGkCLAAAAACSJsACAAAAIGkCLAAAAACSJsACAAAAIGkCLAAAAACSJsACAAAAIGkCLAAAAACSJsACAAAAIGkCLAAAAACSJsACAAAAIGkCLAAAAACSJsACAAAAIGkCLAAAAACSJsACAAAAIGkCLAAAAACSJsACAAAAIGkCLAAAAACSJsACAAAAIGkCLAAAAACSJsACAAAAIGkCLAAAAACSJsACAAAAIGkCLAAAAACSJsACAAAAIGkCLAAAAACSJsACAAAAIGkCLAAAAACSJsACAAAAIGkCLAAAAACSJsACAAAAIGkCLAAAAACSJsACAAAAIGkCLAAAAACSJsACAAAAIGkCLAAAAACSJsACAAAAIGkCLAAAAACSJsACAAAAIGkCLAAAAACSJsACAAAAIGkCLAAAAACSJsACAAAAIGkCLAAAAACSJsACAAAAIGkCLAAAAACSJsACAAAAIGkCLAAAAACSJsACAAAAIGkCLAAAAACSJsACAAAAIGkCLAAAAACSJsACAAAAIGkCLAAAAACSJsACAAAAIGkCLAAAAACSJsACAAAAIGkCLAAAAACSJsACAAAAIGkCLAAAAACSJsACAAAAIGkCLAAAAACSJsACAAAAIGkCLAAAAACSJsACAAAAIGkCLAAAAACSJsACAAAAIGkCLAAAAACSJsACAAAAIGkCLAAAAACSJsACAAAAIGkCLAAAAACSJsACAAAAIGkCLAAAAACSJsACAAAAIGkCLAAAAACSJsACAAAAIGkCLAAAAACSJsACAAAAIGkCLAAAAACSJsACAAAAIGkCLAAAAACSJsACAAAAIGkCLAAAAACSJsACAAAAIGkCLAAAAACSJsACAAAAIGkCLAAAAACSJsACAAAAIGkCLAAAAACSJsACAAAAIGkCLAAAAACSJsACAAAAIGkCLAAAAACSJsACAAAAIGkCLAAAAACSJsACAAAAIGkCLAAAAACSJsACAAAAIGkCLAAAAACSJsACAAAAIGkCLAAAAACSJsACAAAAIGkCLAAAAACSJsACAAAAIGkCLAAAAACSJsACAAAAIGkCLAAAAACSJsACAAAAIGkCLAAAAACSJsACAAAAIGkCLAAAAACSJsACAAAAIGkCLAAAAACSJsACAAAAIGkCLAAAAACSJsACAAAAIGkCLAAAAACSJsACAAAAIGkCLAAAAACSJsACAAAAIGkCLAAAAACSJsACAAAAIGkCLAAAAACSJsACAAAAIGkCLAAAAACSJsACAAAAIGkCLAAAAACSJsACAAAAIGkCLAAAAACSJsACAAAAIGkCLAAAAACSJsACAAAAIGkCLAAAAACSJsACAAAAIGkCLAAAAACSJsACAAAAIGkCLAAAAACSJsACAAAAIGkCLAAAAACSJsACAAAAIGkCLAAAAACSJsACAAAAIGkCLAAAAACSJsACAAAAIGkCLAAAAACSJsACAAAAIGkCLAAAAACSJsACAAAAIGkCLAAAAACSJsACAAAAIGkCLAAAAACSJsACAAAAIGkCLAAAAACSJsACAAAAIGkCLAAAAACSJsACAAAAIGkCLAAAAACSJsACAAAAIGkCLAAAAACSJsACAAAAIGkCLAAAAACSJsACAAAAIGkCLAAAAACSJsACAAAAIGkCLAAAAACSJsACAAAAIGkCLAAAAACSJsACAAAAIGkCLAAAAACSJsACAAAAIGkCLAAAAACSJsACAAAAIGkCLAAAAACSJsACAAAAIGkCLAAAAACSJsACAAAAIGkCLAAAAACSJsACAAAAIGkCLAAAAACSJsACAAAAIGkCLAAAAACSJsACAAAAIGkCLAAAAACSJsACAAAAIGkCLAAAAACSJsACAAAAIGkCLAAAAACSJsACAAAAIGkCLAAAAACSJsACAAAAIGkCLAAAAACSJsACAAAAIGkCLAAAAACSJsACAAAAIGkCLAAAAACSJsACAAAAIGkCLAAAAACSJsACAAAAIGkCLAAAAACSJsACAAAAIGkCLAAAAACSJsACAAAAIGkCLAAAAACSJsACAAAAIGkCLAAAAACSJsACAAAAIGkCLAAAAACSJsACAAAAIGkCLAAAAACSJsACAAAAIGkCLAAAAACSJsACAAAAIGkCLAAAAACSJsACAAAAIGkCLAAAAACSJsACAAAAIGkCLAAAAACSJsACAAAAIGkCLAAAAACSJsACAAAAIGkCLAAAAACSJsACAAAAIGkCLAAAAACSJsACAAAAIGkCLAAAAACSJsACAAAAIGkCLAAAAACSJsACAAAAIGkCLAAAAACSJsACAAAAIGkCLAAAAACSJsACAAAAIGkCLAAAAACSJsACAAAAIGkCLAAAAACSJsACAAAAIGkCLAAAAACSJsACAAAAIGkCLAAAAACSJsACAAAAIGkCLAAAAACSJsACAAAAIGkCLAAAAACSJsACAAAAIGkCLAAAAACSJsACAAAAIGkCLAAAAACSJsACAAAAIGkCLAAAAACSJsACAAAAIGkCLAAAAACSJsACAAAAIGkCLAAAAACSJsACAAAAIGkCLAAAAACSJsACAAAAIGkCLAAAAACSJsACAAAAIGkCLAAAAACSJsACAAAAIGkCLAAAAACSJsACAAAAIGkCLAAAAACSJsACAAAAIGkCLAAAAACSJsACAAAAIGkCLAAAAACSJsACAAAAIGkCLAAAAACSJsACAAAAIGkCLAAAAACSJsACAAAAIGkCLAAAAACSJsACAAAAIGkCLAAAAACSJsACAAAAIGkCLAAAAACSJsACAAAAIGkCLAAAAACSJsACAAAAIGkCLAAAAACSJsACAAAAIGkCLAAAAACSJsACAAAAIGkCLAAAAACSJsACAAAAIGkCLAAAAACSJsACAAAAIGkCLAAAAACSJsACAAAAIGkCLAAAAACSJsACAAAAIGkCLAAAAACSJsACAAAAIGkCLAAAAACSJsACAAAAIGkCLAAAAACSJsACAAAAIGkCLAAAAACSJsACAAAAIGkCLAAAAACSJsACAAAAIGkCLAAAAACSJsACAAAAIGkCLAAAAACSJsACAAAAIGkCLAAAAACSJsACAAAAIGkCLAAAAACSJsACAAAAIGkCLAAAAACSJsACAAAAIGkCLAAAAACSJsACAAAAIGkCLAAAAACSJsACAAAAIGkCLAAAAACSJsACAAAAIGkCLAAAAACSJsACAAAAIGkCLAAAAACSJsACAAAAIGkCLAAAAACSJsACAAAAIGkCLAAAAACSJsACAAAAIGkCLAAAAACSJsACAAAAIGkCLAAAAACSJsACAAAAIGkCLAAAAACSJsACAAAAIGkCLAAAAACSJsACAAAAIGkCLAAAAACSJsACAAAAIGkCLAAAAACSJsACAAAAIGkCLAAAAACSJsACAAAAIGkCLAAAAACSJsACAAAAIGkCLAAAAACSJsACAAAAIGkCLAAAAACSJsACAAAAIGkCLAAAAACSJsACAAAAIGkCLAAAAACSJsACAAAAIGkCLAAAAACSJsACAAAAIGkCLAAAAACSJsACAAAAIGkCLAAAAACSJsACAAAAIGkCLAAAAACSJsACAAAAIGkCLAAAAACSJsACAAAAIGkCLAAAAACSJsACAAAAIGkCLAAAAACSJsACAAAAIGkCLAAAAACSJsACAAAAIGkCLAAAAACSJsACAAAAIGkCLAAAAACSJsACAAAAIGkCLAAAAACSJsACAAAAIGkCLAAAAACSJsACAAAAIGkCLAAAAACSJsACAAAAIGkCLAAAAACSJsACAAAAIGkCLAAAAACSJsACAAAAIGkCLAAAAACSJsACAAAAIGkCLAAAAACSJsACAAAAIGkCLAAAAACSJsACAAAAIGkCLAAAAACSJsACAAAAIGkCLAAAAACSJsACAAAAIGkCLAAAAACSJsACAAAAIGkCLAAAAACSJsACAAAAIGkCLAAAAACSJsACAAAAIGkCLAAAAACSJsACAAAAIGkCLAAAAACSJsACAAAAIGkCLAAAAACSJsACAAAAIGkCLAAAAACSJsACAAAAIGkCLAAAAACSJsACAAAAIGkCLAAAAACSJsACAAAAIGkCLAAAAACSJsACAAAAIGkCLAAAAACSJsACAAAAIGkCLAAAAACSJsACAAAAIGkCLAAAAACSJsACAAAAIGkCLAAAAACSJsACAAAAIGkCLAAAAACSJsACAAAAIGkCLAAAAACSJsACAAAAIGkCLAAAAACSJsACAAAAIGkCLAAAAACSJsACAAAAIGkCLAAAAACSJsACAAAAIGkCLAAAAACSJsACAAAAIGkCLAAAAACSJsACAAAAIGkCLAAAAACSJsACAAAAIGkCLAAAAACSJsACAAAAIGkCLAAAAACSJsACAAAAIGkCLAAAAACSJsACAAAAIGkCLAAAAACSJsACAAAAIGkCLAAAAACSJsACAAAAIGkCLAAAAACSJsACAAAAIGkCLAAAAACSJsACAAAAIGkCLAAAAACSJsACAAAAIGkCLAAAAACSJsACAAAAIGkCLAAAAACSJsACAAAAIGkCLAAAAACSJsACAAAAIGkCLAAAAACSJsACAAAAIGkCLAAAAACSJsACAAAAIGkCLAAAAACSJsACAAAAIGkCLAAAAACSJsACAAAAIGkCLAAAAACSJsACAAAAIGkCLAAAAACSJsACAAAAIGkCLAAAAACSJsACAAAAIGkCLAAAAACSJsACAAAAIGkCLAAAAACSJsACAAAAIGkCLAAAAACSJsACAAAAIGkCLAAAAACSJsACAAAAIGkCLAAAAACSJsACAAAAIGkCLAAAAACSJsACAAAAIGkCLAAAAACSJsACAAAAIGkCLAAAAACSJsACAAAAIGkCLAAAAACSJsACAAAAIGkCLAAAAACSJsACAAAAIGkCLAAAAACSJsACAAAAIGkCLAAAAACSJsACAAAAIGkCLAAAAACSJsACAAAAIGkDhgBotc1bszhxyuOlWRc+qsX9u3UD4f7oe2e/sxxPHuUGose9/qWB2LgpMxANev9by/H8mfujTMObs3jti57X/eb8+8vx6IF7C1LkiQyU4p1/ezgy65Gm/N/+yqfxD/9fLwxEj/rirx6Mf/0PbzIQBfzVP/c0/qd/vGQgenkiOhDxB//k5hgYNBaNePE8jz/2+x4aiJLNnhmIP/DHhw1En/mF//xZ/P3/5rmBgAQpIQRa7smjPD752A6iZo2MVw1CD5s87vct6sgxY9XrRserwqsmLJyrxfKycSjb1Enf+vvRqTN+d0iVAAsoxeL5mkFYx4KO3jV5wsS4qKOT7oVeNzbtN27G3Ifese0wNeN53Y+OnRyI4c3KCCBFAiygFAKs5h0+Uo2qNV1PGt6cxYERr96ijkxUo2K4etqYXXZNmfvQ9quybd2WxYHDHkD9qFoNvc8gUZ7KQCkWz5tcN2tgMOLAiEVdL5o4XtUbrgEbh7LYbwHZ08anLRIbVa/5SNQOUzMDntd97NRpzyZIkVkhUIrLC7VY1nu5aaPjHs+9SPlg45QR9q5Nw1nsP+RZ16hLCzWnD7bB1EnPnn72+plBASYkyKwBKMXyUsTVi74QN0sfrN40ecLv2igBVu8an7YjsRnzygfbQv+r/rZ1W6bEGRIkwAJKo8SheQKsHnzhVvT7acbRYxaRvWpsyv3QDA3cy7dpOIuRMddnv5s944hUSG4+bQiAsuiD1bzRCRPnXnP4aDWGhm03adSRiUpU3A49SaDbuDyPuPCRd2vZjp10gAQRs2d8QIHUeDQDpVmY85W4WZu3ZLFrr0d0L1E+2JwNG7M4eNjY9SI7sBp382o9Hj3U/6psUycFF6ychLtjl7kYpMQdCZTm9o16PHlkot0sZYS9ZeK4BVHTiwg7dXrOrj0VC8MmzOl/1RbT+l8REVkWMfMl1wKkxMwBKE2eR1y0C6tpTiLsLZOvCWGapZF777H7qjkCrPJt2JjFEc8cvmv2tAALUmJ1BJRqQSP3pmkg2zu2bs9i736v3GbpldR7xqf9ps3QwL18E8erMSCz4Ltm3hiIAb3cIRlm00CpNHJvnkbuvePYa1ZD6zEyppF7r7EDq3F3P6nH3dt1A1Ey/a/4vI1DmXc4JESABZRq8Xwtcm2wmrJnXyWGNzu1rhdMHLdYX48NG7M4OGIMe0WWRRwV0Dfs/Pt2X7XD9Ixrk+93ymmEkAwBFlCqJ4/zuH3TF+NmF3mHlRH2hMkTJr/rpYywdxwarcbQsHC+UfP6X5VuYEB5Kz9s9owaQkiFAAso3aI+WE3TyL37VasRRyf9juulqXLvGBMQNEUD9/IdPVaNDRuFq3y//Ycqse+Q9zikwJ0IlG5xzqS7WaN2YPXEgmhwgwXRusdRgNUz7KZr3OOHedy8Zjdz2aZm7Jbl5WZP24UFKRBgAaWzA6t5o+MWet1O+WDr7oWq26EnjGvg3rD5j5b1k2wDDdx5ldnTrg1IgQALKN2VxVosLxmHZhw66jjvbqeBe2sMbog4OGose+F31NuvcXMf+hBU+qKoEjF5wrXJy02/PhBDm+ymho4/qw0BULblpYgrF02+mzEwEHHA6WtdTYDVOkrPut+RCTvpmqH/VflGxqtO/mXV+diJU74oQqcJsIC2UEbYvFHHzXet3XsrsXO3V22rHBVgdb3xKQvARj1/lseVBe/Qsk0rH2QNp864RqDTzKqBtlg87+txs0bHPKq7lXKU1nISYfdzAmHjFs7Voia/Kt2xk65NVjd7ZjAym/Sgo6yKgLawA6t5Grl3rwkN3Ft7L4wpP+t2Grg3Tvlg+bJMA3fWtn1nZk4GHSbAAtri9s16PH7oCKWmFu0TVV/8upQdWK01MBhx+Kgx7Vabt2SxZ7+pZ6M0cC/fgZFKbN3uRcvaZpURQkeZRQBtkecRF+dNwpsxvDmLXXs8rrvN4IYsRpy21nLKCLvX+LQwvlG1mh3M7TA9I5SgmNnTgwYBOsiKCGgbfbCap5F795mYVu5WhqMCrK41rv9Vwy7N1+LFc7uXy6Z8kEaeY3brQecIsIC2WfAVuWmj4x7X3Ub5YDnGnETYxb+dkKBR+l+1hwbuFJVlETNveJZBp1gRAW1z8Xwtch+Sm6IUrfto4F6Ow2PVGFDB0ZXGNHBvmP5X5du7v6JMn4bMnvESgk7xtAba5snjPG7fqBuIJjj1prtkmXKpsgwMRBw+Ymy7zZ79mmQ3Ks8jLnxkB1bZpvS/okGvf2lAiwDoEAEW0FbKCJuze18lhrdY/HWL/YcqsXWb36ss+mB1H4Fu465frsWTx7Ytl21K+SAN2jSc2WUNHSLAAtpqcc7X5GZkWcTIUZPsbjFpYluqI/pgdR29yxqnfLA97MCiGafOuG6gEwRYQFs5Drx5TiLsHhPH/VZlGrMDq+vYgdU4DdzLt31nFvsOWg7RuNnTAizoBE9soK2uLtZi6YVxaMbImEd2t3ACYbkOHdXIvasmmxV9/Jpx4SMffMo2/boQgibfQ0eqsXufeRm0fU5hCIB2Wl6OuLJoUt6MI3ZgdYXhzVkcHPVblWlgIOKwktqucfhoNTYO6QnXiE9u1ePuJw49KdvUSQEWzbMLC9pPgAW03eJ5ZRHNODhajQFzpeSNH69GZq1eOj2VuuiemPJbNUr5YHtMzbg2ad7sGVuBod0EWEDb6YPVnIGBsLOnC0welzK2g5MIu8eYAKthGriXb/OWLA55p7IOJ2arsWGjL1bQTgIsoO0EWM3TRyZ9+l+1xxEBVtfQwL1x83ZglW5qZsBuWdZlcEMWx2c936CdBFhA292+VY9HD3ID0YSRcY/tlGWZ3SbtcvhoNQY3WH2mbuNQFgdH3BONePQwj1vX9b8q29RJ1yXrd0oZIbSVlRDQERfn7MJqhh1YaTt8tBqbhoUq7VCtRowcNY1J3dHJalQ8thoy98Fy5L7xlG56Rrk36zd7xnUE7WTmB3TE4pzyiGaMjmsQnjLlg+11VCP35CkfbNy8/lel2ziU+SBES+zaU4nDR1xL0C4CLKAj9MFqzvDmLHbt9ehO1eQJX2LbSSP39DktsnFOICzfsZN2BtI6dmFB+1gFAR2xeL6mRKJJvhqna+K436ad7MBK35gdWA15/iyPKxd94Cnb1EmBA60jwIL2EWABHfH0SR4f39CkthkCrDRt3Z7FvoNeq+10aFQj99Tvid12jDbkwtla1OVXpZue8R6ldSZPDMTmrd5F0A5mFUDHKCNszqiTCJOdwNLmSUzV/ZCy8Wn3RKOUD5ZvcEPE0UnXJi18F1UiTn7RNQVtud8MAdApi+dN1JthB1aaNHDvDH2w0jU+5bdp1PkPfNgp28T0QAxuMA601uzpQYMAbSDAAjpmwQ6spuzaW4nhLbaqp0aA1RlHBFjJcgJhY5aXIy7Ney+WbUr5ICWYPTMQFStrKJ3bDOiYq4u1WHqhk3ujsixidMwEPCXVasSRCb9JJzjlLt3nlN1xjbk4V4sXz70Ty6aBO2XYvCWLMbtOoXQCLKBjarWIK4sauTdDGWFajkxWY8NGu+I64eBoNTYOGfvU7DtY0dS4QfP6X5W/8Kk6LZbynDqjjBBKf44bAqCTFvTBaorG1WnRwL2DE5lKxMiY+yE1+l81TgP38o0dE3hTntkz5gJQ+rzPEACd5CTC5owqV0vKpC/6HaVULT1jUxZyjcjziAtnvQ/LpnyQMo2MVWPnbstrKJM7DOgoAVZzDo5WY8BO9WRMaODeUQKs9OgF05hrl2rx9In+V2WbmhFgUZ4si5g97RqDMgmwgI765FY9Ht43aW9UtRpxaNQCMQW79lZ8ce2woxq5J/d8UubcmLkPfMwpW5Y5LZbyKSOEcpldAB130bHhTdHIPQ0WRJ13YERfm5SMjFdjcIPfoxH6X7XhuhyrxuYtrkvKdeLUQAxuMA5QFgEW0HGLGrk3ORn3CE/B5HFfWzs+manY8ZOSiWmhbqPmP/Ihp2xTM65LyrdxKItppapQ3pzPEACdpg9WczRyT2SxroF7Eo4es2BIxZiSzobcvlmP+3frBqJkGrjTLrNnNCmFsgiwgI5bPF+LXBusho2MVSNTDdFRgxuyGFHKmQSN3NMxNi0oaITywfY49prrkvY4pQ8WlEaABXTcp0/zuHXN1+dGDW/OYvc+j/FOGp+qxoB5ahIEWGkY2pTFgcOeS42Y+9Au5LIdGKnE9p2++NAee/ZX4sCI5yCUwZ0FJEEfrOZo5N5Zk68Z/5QWqEObLFA7bWzKztBG2YFVvmnlg7TZ7GllhFAGARaQhAV9sJoyMiZA6ST9r9KRZQLdFIxr4N6Qh/fy+Pi6HchlOybAos2UEUI5BFhAEhbnBFjNcPJa52RZxIQTCJNyVPPwjtPAvTF2X7WHEwhpt2MnB2J4s+2o0GpWPkASrl2sxYvnOrk3ykmEnbPvYCW2bjM5TYk+WJ03PuU3aIQAq3y79lRi915LHtqrWo147Qs+ckGreZoDSajVIi4vKKNo1O69ldi8VYjSCZMnTExTI8DqrJ27K7Fjt6llIzRwL9/0654LdMasMkJoObMMIBkauTdHH6zOmDhh3FOz/3AlNg0LdDtF/6vGPHuax7VLAqyyTel/RYfMnh50qAW0mAALSMZFfbCackQZYUdMauCeHI3cO0v/q8bMn61F3cbj0k3NCLDojK3bM70ZocUEWEAynETYnJExj/J2GxrO4uCoSWmKLBY6Z0z/q4bof1W+bTuy2H/IO5LOmT09aBCghTzRgWTc+bgeD+9r5N4oO07ab/J4NSreoEnSB6szsswOrEbNfeCjTdmmZgaUcNFRp/TBgpYy/QaSsjjni3SjDo1WY3CDcWinieMmpKmyA6szDoxUYkj/scKWlyIuXfC+K5v+V3Takclq7NhlyQ2t4m4CkrKojLDxB3k1lLO12aQG7snad7ASw5sFKe02PiUoaOhdN7ccSy+MQ9mmZzyr6awsi5h5w/MRWrbuMQRAUpN6AVZTlBG2dzLqtLW0f59RBxu0nXuiMXMfeteVbXhLFoePui7pvFllhNAyAiwgKYtztci1wWrY6JhJerscPlqNTUqlkqYPVvtp4N4YDdzLd+w1/a9Iw8kvDMSADAtaQoAFJOXZ0zxuXnOueKNGxz3O20X5YPoEWO01uCHsdGlAvR6xcNYOrLJNnXRNkoah4SyO6ccGLWHFAyRn8bwv040aHa/60twmE8ctilKnkXv7nz92FxR39WItPn1qq3HZpmdclKRj9rTrEVpBgAUkRx+sxg0NZ7Fnn0d6O0w6gTB5ew9UYvMWiW67jE+7Jxoxr/9V6TYOZXHETkwSMntm0CBAC1jtAMkRYDVH4+rybdmWxd6DXp2p08i9vcbseGuI/lflmzxRjarLkoQcOFyJfeYPsG7uIiA5Vy/V4vkz5RWNGtHIvXSaAncPfbDaZ1wD94bMfyTAKtuUfkMk6HVlhLBuAiwgOfVaxJVFu7AapZF7+fS/6h76YLXH5i12JTbi1vV6PLjnA03Zpmbc/6TnlDJCWDczDiBJyggbp2SqfJMCrK4hwGqPsSkHSDRC+WD5BgYjxqfsdCE90zMDMbTJAxPWQ4AFJGlBgNWwXXsqsWWbiVFZqlWhSDfZs68Sm7e6H8o2Pu2eaMScBu7lX5NTAzG4wTiQnoHBiBOnhKuwHgIsIEl2YDVHH6zyHJmoxoaNApFukWUrvxnlGrPTpSHzH9iBVTblg6RsVh8sWBcBFpCku7frcf9u3UA0aHTcxL0skydMOruNHXPlcwJhcQ/u5XH7lvda2TRwJ2WnfmRQ2TWsgwALSNbFObuwGiXAKs/ECWPbbZxEWK7d+yqxbYeVWFHn7b4qf2FTjZj0rCZh23dmdsvDep7zhgBI1aIAq2FOIiyPEwi7jwCrXONTxrcR8xq4l+7IRFWTbJI3e8YuQWiWlQ6QLH2wGndwpKp5bQl27K7Erj1emd1mz34HG5RpTIDVEA3cy6d8kG5w6sygQYAmmY0Dybo4V4u6diGNPdSrEYdGLSpbvih6zZh2K43cy2MHVnGfPs3j+mUBVunP6pOuSbrg2Tldja3bfVyBptY6hgBI1bNP87h51YS/UfpgtZ7ywe6lkXtJE8hKxBElmoXNf+iDTNmyzA4suudanfmiaxWamn8YAiBlyggbNyLAarkJJxB2LX2wynHoSDU2DtlBUNSc/ldtuSY3b3VN0h1mlRFCUwRYQNIEWI3TyL21BjdkdrV1MTuwyjE+bVwbIcAq3/SMa5LuMfPGQFRcstAwqxwgaU4ibNzoWDUyH6FbZmyqGgM2YHWt3XsrsVUj99bfF4LBwpZe5HHpgndZ2Y4pH6SLDG/JYvK4axYaJcACknbtUi2eP8sNRAOGhrPYs9/jvVUm9b/qekeELS1nB1ZxC+drsbxkHMqmgTvdZvaMAAsaZYUDJK1ej7i84Mt1o5S8tY4G7t1PH6zW2rAxc9ppA+Y/9A4r275Dldixy7KG7iLAgsZ50gPJ0wercQKs1pmwxb/rCbBaP556txSn/1X5ppUP0oUOH6nG7n2W49AIdwyQPAFW40YnrC5bYd+hSmzboX9St9PIvbXGpoxnUfVaxMI577CyKR+kW73+JeErNEKABSRPgNU4JxG2xuQJE8tesGtPJbbtFES2igCruCuLtXj2qT6OZZua8aymO506M2gQoAFWOEDy7n5Sj/t36waiATt3V2KLk9fWTQP33nFEWW3LTGjgXpjywfa87xxcQrc6caoaGzaar0FRnvZAV7g4ZxdWo/TBasFCXYDVM5QRtsbWbZmeLQ2Y08C9dNOvu7fpXoMbsjjuGobCzECArrCgjLBhAqz1GRrO4tARY9grNHJvjXG7rwrL84j5j+zAKtuUBu50uVllhFCYAAvoCvpgNW5kzEJzPSamq1HxluwZY3ZgtWYcp4QFRd26Vo9HD/S/Kpv+V3S7U2dcw1CUqTnQFS7N16KuDVZDRic84tdj8oTAo5fs2F2J7Rq5r9u4Bu6F6X9Vvq3bsjhw2LuO7rZrb8WObyjIEx/oCs8+zePGVbuwGnHwcDUGNxiHZk0c90W01xxRRrguWeYEwkYIsMo3NTMQmVyaHmAXFhQjwAK6hjLCBh/w1fBFbx0LdQ3ce48ywvXZe6ASm7dKC4rSwL18Uyfd0/SGWQEWFFvfGAKgWwiwGqeRe3MOHanGpmEL9V5jB9b62H1V3P079bjzsbr3sul/Ra+YPDHgAwEUIMACuoYAq3GjGrk3OZE0br1o/JjF7rrGT4BV2Hm7r0q3aThzWAm9syivRJz8oncUrHmvGAKgW1y/XIvnz5zo1AiN3JszqXywJ23bmWnkvg7j0xZXRc19oP9V2Y695qRYesvs6UGDAGswEwG6Rr0ecelCLaaVDBQ2MlaNLIvI5X6NLdQ1cO9ZR48NxHf+xZKBaFC1GjE6Li0oat4OrNJNnfScXst3/uVyfOefd/5597u+MRRDyvLX9PqXBqJSCaduwyo8+YGusnhegNWIoU1Z7D1QiY9vmA0VtWVbFvsPWaj3qqOTVQFWE0bGqjG4wQK0iCeP87h+RYBVNv2v1vb//Qcv4tv/rPPPuy/8qkFNygvOP8amqrFwzvMDXsUMHegq+mA1bnRCOVwjJk84lr2XHXUSYVM0cC9u/sNlu15LNrghcy8XsJDInOnse0pqizp1RhkhrEaABXTXZMxXqYZp5N4Y/a9625hFb3PjJsAqbE75YPnP6RPVGLChZ1V3btfj/p00dl+fE2AVZqcarE6ABXSV+3fTmZB1i9FxC89GTDiBsKdt25HFjt2mP41yAmFxcx9arJdN/6u1pfTB78piLR4/tC2xiJGxauz0joJXcncA3TcpU0bYEI2Xi6tW7dDpB37jxgxtyuLAiDEr4sXzPK4seEeVbeqk63HNuVJCAVaeC3aLyrKI108LaOFVrGqArqMPVmN27K7E1u2aOhUxOlGNDRuNVa87Omnx29B4HatGxYyxcGiwbJ1eqmo1YkKp99rX4tm0LkRlhMXNCrDglUxHgK4jwGqcMsJiLIr6wxEBVkPGp41XUfpflW9syoeGtSy9WCnbS8m599wbRb32hYEY3GAc4GUEWEDXuXShFnXzoIYIsIqZPO6rZ78sgGlgvJRcFqZMqnxTM57TReZJqe0EvH6lFg/v64NVxMahTJ83eAUBFtB1nj/L4/oVCVYjRpxEWMikBu59Yeu2LHbtMQUqyg6sYuo1O4TbwcJ+bQvn0gtS8zzi3PsC3qJOnRk0CPASZm9AV7o4Z5HQCI3c17ZjVyV27TVO/UIZYTHbd2ZOxCro0kItnj+zw6TUhUvFh4YiUmrg/nn6YBU3+yOCWnjpe8AQAF05OfOVuyEHRvQMWcux1yyK+olG7sWMT1tEFTWvfLB0I+PVGN7sXdatcyQBVnF791fiwGFLdfhB7gqgKynTaPBhX4k4dMQjfzUTvur3FX2dCo6TfmGFaeBevmnlg2u6c7se9+/Uk/zbbl2vx71E/7YUzSojhB9e0xgCoBtdv1yLZ0+VajRCI/fVaeDeX44KsAoZF2AVkucRFz6yu6Rsx066HteycDbtINVphMXNnjYvgR8kwAK6drFwacEkqBEaub/a4IYsRieMTz/Zsi2L3XqerSrLBH1F3bxaj0cPfVQp+3rUwH1tF86lHaRq5F7c1MxAbBpWMgufZ+YGdC1lhI05IqB5pbFj1RiwLuo7wpnVHThc0W+ooPMfWJSXfj2OVGLrdtfjWlJt4P6Zj37ZvVJUtRrx2hdMTuDzBFhA1xJgNWZkrBKZuf9LTRwXZPQjJxGubkwD98LmNHAv3fSM63EtSy8iri6mPTe6e7sen9zSB6uo2TOue/g8ARbQtRbOWTA0YuNQFvsOeuy/jGPZ+5NG7sanVeY/8kGlbMoH13bpwnIsd8HUyGmExZ06M+jjI3yOlQzQtR7cy51m0yCN3F9uwk6TvnT0WNXCYBUauBdz53Y97t72LiqbBu5ru3C2O4JUAVZxW7dndgvD5wiwgK6mjLAxIwKsH7LvYCW27ZRi9KPNW7LYpZH7Sw0MOvihqLkPvIfKtnd/JXbtca+uJfX+V5856yTChpxSRgi/wpsA6GoCrMbYgfXD9L/qb8rkXv2sGBg0DkXM639Vuin9r3pqTnT/bj1uXbdrsajZ0x7G8BkBFtDVFgRYDS5KPfZ/0OQJC6N+dlRpxkspHyxOA/fyTSkfXNOdj+tx/273hEJnv+O+KfyeOla1Uxy+y0oG6GqX5mtRl2EVtmNXJbbtMAn6PA3c+5veIi83NiXYLeLxwzxuXrOTpGx2YK3twrnumgzpg1VclkW8/oZdWBAhwAK63IvneVy/IsFqhL423zO0KYtDR4xHPxvTyP2lxqfdF0XMf7QceW4cyrR9pxN0i1g4212B0Ln33TuNmNUHCyJCgAX0wqRNGWFD9MH6nonj1ah4E/a14S1Z7NnnIvi+MdksMChq7kPvn7JNv27hXkS37cB69MAHyEbMfHEgBtwKIMACup9G7o0RYH2PBu5ErPQX4XvGpuxKK0r/q/JNnbRqX8vSizyuXey+udA5pxEWNjScxeRr7gUQYAFdT4DVGAHW90weNxlEgPWDlA8W8/xZHlcWvH/KNjXjelzLxflaLHdhlqoPVmNOKSMEARbQ/W5cqcWzpxopFLX/cCU2bLS9Isss1FnhJMLvNybQK2ThXC1q8qtSbd6SxaFR12ORa7EbndcHqyGzpzVyBwEW0PXyfOXrIwUf/JWIw0c8/g+NVmN4iyCPlR1YSua+xwmExSgfLN/UzIB7s4ALZ7tzDvTkcR5XFs3fijowUtGfEOsYQwD0AmWEjVFGGDFxwhiwYtNwFnsPmBJFROzaW4ntOyUGRWjgXr6pk57TRSyc794wVRlhY17/kg8M9DezNaAnLM5ZSDRidMKiQAN3Pk8Z4YrxKeNQRK3mw0k7TM9YrK/lk1v1eHive+vwzgqwGjJ7Rhkh/U2ABfSExfMmQI2wA0sD90cP8vjrf+nT+OV/vuSGCI3cPzMmwCrk0nwtXjzXvKdMQ5sy76oCFro8SJ37sBZ1WXBhx18fiI1DdsnSvwRYQE94cC+Pu7frBqKgw0crfd1XZPPWLPYf7u9X4PxHy/FP/t6L+J/+kQArwg6szzjYoOii20eTsk2+Vo2Ky3FNF85297X47Gkely5IsIoaGIw4ccrORPqXAAvoGco5its4lMX+Q/37Cpg8oTHwZ/eLhcOKo5MauWdZxBHlxYXMfSDAKtvUSYv0Irr1BMLP0werMbNn3Bv0LwEW0DsLcn2wGtLPpRmT+l/9SoD1ya16PHqoFGpoOOv7050OHanG0CalKWvJ8+499a2bTM94Tq9l6UUe1y52/7WoD1ZjTp3xEY7+JcACem5BTjEjY/27OOj3Ewjr9YiL89+7Xy7bhRURygg1cC/m+uVaPHks9C3T4IaIo5N2mazl4nwtlnsg+5n/qBbLqtkL27GrEoePel7TnwRYQM+4dEEj0Eb060mElWrEWJ837L5+uRbPn+Xfd++gkbsG7sXMfeh+KdvE9EAMbjAOa+mF8sGIiBfP81icswurEaeUEdKnBFhAz3jxPI9rly0siurXEsLR8Wrfn+Dzg6dW2YG1QoAlwCpCA/fyTSkfLKSXSlnPvec91IjZM4MGgb4kwAJ6ijLC4rbvzGLbjv4LcvS/+uH75PPlhP3syET/NnIf3JApSSkaGnzkfimbBu7FLJzvnTBVI/fGjE9XY8s2jbDoPwIsoKcX5qyuH3dhTZywMPrB++Tu7Xo8eqCnz9Cm/j2d8+hkNaryqzV9cqsedz+pG4gyFyfViAkfGgpdiw/v9c5z+8K55Vh64T1U+D6pRMy8YT5DH177hgDoJb30NbId+jHAmuzzBu7PPs3jxpUfDnr1wVrRr2WE49MCgyKUD5Zv7Jgy70LznXO99cxeXnK6Z6OUEdKPBFhAT7l5tR5Pn/iCV9RInwVYO3ZVYvfe/n71LZ6vRf6SW+SSMsKI6N+TCPv9YIOiNHAvn/LBYi6c670w9dz7AuJGvP7GQFQ8uukzAiygp+S5htSN6LcdWP2++yri1WW2dmCt6NsAyw6sQubtwCrd1IwAq4iFHtytdPY77q9GDG/JYmLa/UJ/EWABvTep0wersP2HKn1VqqGvyqvvD43cVxyZrEalz2ZHm7dmsWefKeFaHj3M49Z1/a/KlGU+NBSx9CKPqxd775m9OFeLZ5/aRd+IU2cEWPQXsxWg9yZAAqziL4FKxOGj/fMqmNTAPS7OvfwL9/079Xhwz8Jh41D/NXKfmO7f0xcbMffB8kvLb2mdw0ersXmLi3Ht53gtaj041anXnPLZqNkfMa+hz9YuhgDoNQvnbEFvRL+UEQ4MRhyZ6O8v+5/cqsfD+69egSsjXNFvjdzHpiyAipjX/6p00zN2XxVx4VzvXotn3zOHa8ThI9XYbQctfcTVDvScRw/yuHNbmUdRI2P9sWAYOzYQA31+YM9a5bUaua/otz5YTiAs5rz+V6XTwL3gs7yHAyyN3Bv3+pfcN/QPARbQk5QRFtcvO7D0VVn7vrg0b+EQ0X87sI46gXBNz5/1Zs+h1BwTYBWycL53n9WXL9ScJt2gU2cGDQJ9Q4AF9OVCne8ZGav0RdNqDdwjFtdY9GjkvuLIRP80ct97oBJbt+k5tJb5j2pRd3uU6sDhSmzf6Vpcy+1b9XjYw/0K6/WIObsdG3LiVDU2bHTv0B8EWEBfLtT5ng0bs9jXB02rJ4/395f95eWIK4urr8Af3s/j/h3ltxs2ZnFgpD8Cz/EpwW4RFtTlm5qx+6qIhbO9n6See09a3IjBDVkcf92znP4gwAJ60qUL9Z48oacsvV5GuPdAJbb1+Zf9K4u1WHqx9v9nF9aKfumDNSbAKmROA/fS6X9VTD8cVHP2OwLjRs0qI6RPCLCAnrT0Io9r+pUUNtrjjdwnlQ/GYsGmv04iXNE/AZbQYC3Lyw44aIcpJxAW0ssnEH7m2qVaPH6oD1YjTp3xLKc/CLCA3l2wz1lwFNXrO7AmTpjYFW36a6G+oh8am1eqEUcmTAXXcnGuFi+eW0yXadeeSuze61pcy4vn/XGYQJ5HnP/ALqyG7qG9lTh0RAhM7/OmAHp4wW4hXtSRHt9t4gTC4gcbCLBWjI5XotLjl83IUY1/i5jX/6p00/r3FHJxvn8OEzj3nvuuUbOnfayj9wmwgB5esJv8FLV1e9azPaI2DmVxuM+/Sj55lMcnt4o1Z3/0MI+7tzVy37Axi4M93shd/6tiNHAvn/5XxfRDA/fPnBVgNUwZIf1AgAX0rFvX6vH0sbKPonq1jHB8utrzO2nWXPScq0XewK2gkfuKXu+D5QTCteV5xIWz7oeyOYGwmH7of/WZm1fr8fCeOVwjJl8biM1b7KqltwmwgJ5eeFiIF9erAZbyweL9rz5zWSP3iOj9AGts2r2xlmuXavH0iUV0mbZuz2L/IUuSIvppZ3meR5x93y6shhb2lYiTXxQG0+PXuSEAenuyZyFeVO8GWCZzjd4HTiJc0cuN3DcO9X6JZCvMfeBeKNv06wOR2TSypts36/Hwfn+FqfpgNW72zKBBoKcJsIDeXrg7ibCwXgywsmylhLCfNbMT8eJcYyWHvXxPVHv08hk7Vo2KWeCa9L8qn/5XxfRjKasAq3Gvf2nAs52e5vIGeppG7sXtP1SJjUO99Rn84Gi17/tB3GyiF9yTx3nc+Vgj98ENK9dQL9LAvZj5j3wEKdv0jGuxiIVz/Tef+fhGPe44VKQhW7Zlnu/0NAEW0NMePbAQLyrLIg4f7a3XwsRxk7hmQ1xlhCt6tYzQAqfY4vn+Xe+PMg1vyeLwUddiEQvn+vOZfF4frIbNnlZGSO8SYAG9P+nTB6uwXisjnBRgNd0HToC1olcbuTuBcG3KB8t37DX9r4p4/iyPq5f685l87j3vokbNnlGWS+8SYAEW8PyKnguwNHBv+qv9JSd4RkRvBljbdmaxa68p4FrmP3QPlG3qpCC1iIvztaj36eV49juC5Gbmcjt2e8bTm1zZQM/TB6uxSU+vGN6Sxf7D/f2ae/E8j2uXm9+BpZF7xMhY7zVyH58S7BZhB1b5pmdci4XmMef6N0y9+0k9bt9SytuILFtp5g69SIAF9LzLC7VYtg4puFiv9MzpNZMnqn1fmnJpHV/tnz7O4xOLhhjcEHHoSG8lWMoH1/bwXh4f33D9l2njUBZHJl2LRVw419+7Ac/ZhdWwU8oI6VECLKDnLb2IuHZJKUixxXoW+w/1xqth8rjJ23r7v11URhgRvdfIXQP3tdl91YZn9Ine291Yln7fSX72Pfdjo177wkAM6OVODxJgAX0y+bMQL6pXyggnT1gZrfe6v6yRe0T0Vh+sLIsYO+beWIsAq3xTJ31kKOL2zXo8vN/f9dzn3ltW0t6gjUOZEl16kgALsJDn+4z0QIBVqdpl0orr3g6sFb0UYO0/VInhLY59W8ucBu6lm5rxjC7iwlnX4oN7edy6pqS3UbOnBVj0HgEW0CcLeV/Ti+qFHVijY9XYONTfi/T7d+tx7876Jvwaua8YGa/GQI+sAwS7a3v2NFd2XrKBQYcJFLVwzvwlIuLc+8ahUad+lRpCeo8AC+gLt67X4+ljK/Eijkx0/wJ3QvlgLLSg6e+zpxpZR0QMDEQcOtob19SY0GBN82drUXfZl2p8aiAGNxiHdj3Le4E+WI3bu7/SM31N4TOuaKAv5LlyqKK2bs9i+87u3r2kgXvrymYvuW8ionfKCJ1AuDb9r8qnfLCY58/yuGo3YEREnP2OPljNmD1jFxa9RYAFWNDzQ7q9jFAD9/WfQPiZSxq5R0RvBFgDA71zSEOZ5j5wzZdNA/diLs7Xou5yjIiIJ4+U9jbj1Bn3Gr1FgAX00YLeV/WiRru4jHDHrkrs3tffr7d6vXUnCNq5uOJoD5zcNzpedaz6GpaXIi5d8K4odfFR9ZGh8LxFA/fvc04ZYcOmZgZi07CDO+ihd4ghAPrFRTuwGlrodquJ4xZG1y7V4vmz1tRaXNbIPSIiDh/t/vBnbNq9sZbFueVYemEcynRkohpDmyyoi7ig/9X3Ofe+8WhUtRrx2hfswqJ3CLCAvvHoYR63b+nMW0Q3B1i+7Le26e/zZ3ncdHx5DAyshFjdbOyYe2Mtcx9aIJdN+WBxF+fsOPq88+8vO2ChCbOn3XP0DgEW0Ff0wSpm38FKbBzqzi/kkydM1Fp9nWvkvqLb+2CNO4FwTRq4l2/qpCC1iI9v1OPhfdtfP+/pkzyuLHofNWr29GBkNj3SIwRYgIU9PyTLIkbGuu8VMTC4Up7iOm/tIlwj9xXdHGBtGs5i/2HTvtXU63oOtePdYgdWMQvKB1/q7HeEzI3atjMzN6JnmMkAFva8VDeWER6d1KT606etL/mzA+u711cXl+CNTVV9gV/D1cVafPrUjpcyHTpSjc1bXYhFXDhrvvIyGrk3Z9ZphPQIARbQVy4v1GJ5yTgUMdKFAZbywZVdhq1uun55wVHuESs9sAY3dOffPj7l6/talA+Wb3rGdViUHVivuk9rUTM0DZs94whaeoMAC+gry0sRVy+a+RTRjTuwnEBYTpnsi+d53LjmvqlWu7eR+5gAq9DCmHIdUz5YyPNneVy77Hp81djYFdzEO+BYNbbtsPuR7ifAAizweamRo5WodNma1w6siIWSymQvWzBERPf2wRJgrU3JVvk0cC/m4pxdr6s5q4ywYVkWMfMlu7DofgIsoO8sOpa6kMENWew/1D2vib37K7F9p6+LF+fKWfVo5L6iG/tg7dpTiR27TPlWc+t6PR7c0/+qTPsOuQ6LuqB8cFX6YDXn1Gkf+eh+3iJA37EDq7huKiOcOOHL/u2b9Xj0oJxF+EU7sCJipQyj6/5mu6/WpP9V+aaVDxa2YDfgquY/0s+0GTNvDETV64AuJ8AC+s7HN+rx5JEv7UV0VYB13OKozHD2yqLGuRERh0arMbihu3b6CbDWpv9V+ZQPFpPnPrStZelF7lTpJgwNZ3HsNXMlupsAC+jLyaHdJMV0U4A1aQdWaf2vVhYMETeuuG8q1YiRse6aPjmBcG3zH1gMl21qxsK5iNs36vHooY9sazn7nvdRM2bPuA/p8nmYIQD6ka+bxYxOdMfCd+NQFiNHLdIXS+6b4uSnFd1URphl3dt4vl0e3Mvj9q26gSjRzt2V2LPfsqOIC+eEqUVo5N6c2TMaudPdvEmA/lzo23peyNZtWVc03R2frnbdiYmttrwUceViyQGWRu4REXGkiwKhg6PVGBp2uMFqztt9VbqpGSFqUQsauBebx51bjufP7FRr+J0wUom9B0QAdC9XL9CfE8TztcjNewoZnUj/VaF8MOLyQvlNbe3AWtFNO5qUD65tXgP30k1p4F7YhbOes0UsLwv7mvW60wjpYgIsoC89eZTHJ0pGCumGPlgauLdnV+GVixq5R0QcOlKNDRu7Y1eTBu5r08C9fNP6XxXy/Fke1/UaLOycMsKmnDqtjJDuJcAC+njBb5JYxOhY2gvgLIuYOG6R3o7reXkp4tol902l0j2N3O3AWt3TJ7lrumRbtmVxYMSSo+hzvO5yLEwfrOYcnx2IjUNKy+nSOZghAPrVgj5YhaS+A+vASCU2bzERW2hTIKuMcMXRLmjkPrgh4vCYAGs18x8pJy/b9MxAZB7RxZ7jSuIacnG+Fs+euoEbNTC4EmJBNxJgAX3LDqxi9h6sJN0EelL5YDx62L6SWI3cV3RDH6wjE9Woyq9WNaeBe+mOnXQRFrXgBMKG1GsRcx95JzXj1BlzJ7qTAAvoW1cWy2963QuyLGLkaLqviwkN3Nu66LEDa0U37MAan7JAWcucBu6lm9bAvZA892GtGfpgNefUj9gZSXcSYAF9a3lppSk1a0u5jHDyhMVROxc91y4JfiMiDo5Uk+8hooH76pZe5HHZjsJSDQ1nMTLuOizi9o16PHqoHK5RAqzm7NhVicNH3Zt0HwEWYOHPmkYS7aMzvCWLA4e9ytp5HS8va+QesdLIfXQ87WtPgLW6hfO1WLb2LdXUa9WoeEQXckH5YFOuLNbi6WPBXzOUEdKV8y9DAPT3wt+EsYhUd2BNHq/2/Rb4PG9/Wd9FZYQREXEk4T5Ym7dksfeAad5q5j90HZdtSvlgYRq4N6dejzivl11TZs8MGgS6jpkN0NfswCrm8NFqVBJcq09o4B43r9bj6ZP2fn3WyH1Fyo3cx6eFu2vR/6p8UzOe0UVdOOu52qxz7xu7Zt8TW7Z5UdBdBFhAX7t9sx6P9ZxY0+CGiAOH01usT2rg3pFTq/QNWjF2LN3F+fi0e2M19ZodL+W/N7KuOOwgBc+f5XH9iuuxWWe/I4xuKgioRMy8IWSmy65bQwD0szxXDlVUav1+KhWL9IjO7CK8dqkWSy8EvwdGKjG0Kc2v1ymHaym4sliLZ5+6hss0eaIaAy7Dws/xuqlI065frsWjB+7nZigjpNsIsAATR32wCkmtkfvIWPqnwLXDQgcCrFot4urFet+PfZale8CBBu6rUz5YPv2vGniO2w24Lnkecf5993QzXn9jIMkWEfAqAizAxFEfrEKOTKQ1w1E+2NmyE32wVowlWCK1Z38ltm4X7q5mTgP30k2d9IwuygmE63f2PWPYjOEtWUxMC5vpHgIsoO9dPF+L3M7zNaUWYGngvhIidarsRID13fsiwUbu43ZfrSrPI+Y/stgtU7UaMXHcdVj0enSgzPqdswOraafOmE/RPQRYQN978jiP2zeUQ61l89Ysdu5O57VhB1Zny04u6R0XEWnuwFI+uLpb1+r65bThGtyw0S7AIj6+4TCZVrh5tR7375jLNWNWgEUXEWABhDLColJp5L5tRxZ79nuFdfKr/fXLtXj+zKJr/+FKDA2ntVB3uMHq9L8q39SMBXHh+cdZ12OrnP/AXK4Zh49WY/decyq6gysVICIW50wgixhNpIzw2GsWRyvXbecm6/V6xLVLvnZnWcToeDqBUaWS1t+TIgFW+TRwL+6CBu4tow9W814/7Z6lOwiwAGKlDxZrS+XENb1VIu5+0vlyiYvKCCMirTLCw0edzrkWDdxLXlxUlHg3wgmErXPuOwKsZs2eGTQIdMc7xhAARFxZrMXyknFYSyo7OyZP+FKYQtNfjdxXHE2okbsG7qu7d6cedz62c7BMI+PVGN4sRC3i2ad5XL/sOdoqt2+5v5v12il96+gOAiyAiFheXgmxWN3eA53v9zMwmN6JiJ2QRIBlB1ZEpHUSoQbuq5vTI6d008oHC7s4V4u6vKWlnEbYnMENWUzPeH+QPgEWQEKBQOqyLGLkaGcnOEcmqjG4wW+RQtnJjSsauUdE7D9UiU2JNHIXYK1O/6vyHTvpGizqwlnzjlY7954xbZYyQrqBAAvgs0DgvIVNEaMTnX11KB+MqNfS2DGY53YuRqwEuynsCtywMYtDo8KD1eh/Vf69oIF7A/OOc+YdrfaRPlhN+8KPuHdJnwAL4LvswCpmtMON3DUHjrh6MZ2dTxq5r0ihjPDosWpU3B6v9ORxHjeuuF7LdGCkElu366NTRJ539iTZXnX/Tj0+vqEusxm79lbi4Kh4gLS5QgG+6/bNejx6oBxqLZ1u5D4xbYWe0qLnsgArIlbCo07TwH118x8uR+4RX6rpGTs4irp1vR6PH7ogy3D2PbuwmnVKGSGJE2ABfI7dJGs7fLQa1Q6tk3fvq8SO3V5dCwntFrzoJMKIiBibFGClTvlg+ZQPNvAcVz5YmnMCrKbNnnEPkzarAIDPWdQHa00DgxEHDndmoax88LvXaUILn1vX6vHsqV0Eew9WYnhzZ0unxuxOXJUG7uXTwL24BQ3cS3P2O3ZbNn0Pnxjo+LsMViPAAvh8MKAPViGj4515fUwe92Xw6ZM8bl1Pp79Hnkdc1sh9pZF7B3dhbd2exe69pnWv8uJ5HlcWXKdl2ru/Erv2uAaLunDO9ViWRw/yuHlVH6ymwoFqxMkvmmuR8DVqCAC+Z/F8zVe7AkYn7MByjX7PJaW3ERFxtIMB1vi0BcdqFs7VYtkGrFJN6X9V2LNPHShQNn2wmqeMkJQJsAA+5+mT3Ok1BXSikfvGoSxGxgRYKe4SFGCt6OQOLP2vVqf/VfmmlA829Byvm2qUSh+s5r1+ejAyVYQkSoAF0AUBQWo6EWCNTVWjYn2UZJ+2Sxq5r1yjHTyJcEyAtSr9r8pnB1ZxC8oHS3fuPX2wmrV1W+adQrIEWABdEBCkZvPWrO29TpQPrvSbWpxLb+Hz8Y16PH1ipbBnfyU2b2n/Z+ss62x4lrp6zYeJsm3fmcW+g5YVRV04a55RtieP87h2yX3frFNnBg0CSfKmAfgBCxY6hYy0eReWBu4Rt2/W4/HD9IKiPI+4bBdWZFln+sPtPViJzVvVe7zKpYVaPH8mYC3T9Ouez408L1P8ENGLzn5HUNis2dPuadIkwAL4AVcXa7H0wmJnLe08iTDLIsan7TBJuexEGeGKTuyE0v9qdfPKB0s3ddJit6hb1+rx5JE5Rjucfc97qek53kQ1duwWFZAeVyXAD6jVIq4s6q665uSmjTuw9h+uxJZtdpgszqW7ELcDa0UnTiIcnxIerEYD9/JNzQhRi7pwTqDatnv/g2XN8puUZRGvv+HdQnoEWAAvsaAP1praGWBNnjCJiki7j89FJxFGRMTRY5054ICXy/OICx95npdp85YsDo26Bgs/xzVwb5tPn+Y+rqzD7BlzL9IjwALosqAgFXv2V2LTcHt2RU0etzhaXoq4ejHd6/KTW8piIiJ272tvP6pqtb3lvN3mxpVaPHrouizT1MxAZDbIFnZBgNVW594XYDfr5BcHYkAvdxJjxgPwEgKstWVZxMhYe4IlO7AiLi/UYnkp3b8vz1f+RvdFe8sIR8arMbhBevAqygfLN3XSB4ainn2ax40rrsl2OvueAKtZG4cy/e1IjgAL4CU+uVWPh/d9tV9LO3Z+DG/O4sCI19VCF/RNuaSMMCLaW0aogfvq5jRwL930jAVuUYvna3oytfsZ8EEtlj0GmqaMkNRYEQC8gp4+axtpQx+sieNV5SnRHbsCnUS4op07sPS/Wt38R67JMm0cytraD7HbLSgfbLsXz/O4OGfcm/WFH1FDSFoEWACvDAx8sltLOxYuyge/u/DpggBL6LuinQGWEwhf7c7tety9bbtLmY6drEZFflXYhbPmFZ1wThlh0/YeqMS+QyID0uFqBHgFfbDWdvhINaolL14mT1gdPXqQx52P01+I3/m4rmF2rDRy37qt/G2DQ5uU165m7gPP8LLpj1NcnptXdIpG7utz6rRdWKTDrAfgFRbP1yK3Fl/VwGDEwRKPT69UIsaOCbC6of/VZxxZvuJIG3ZhjU0pr13NvP5XpZue8Xwu6ta1ejx5bFLRCRfOLsfSC+PQLH2wSIkAC+AVPn2ax61ryk/WUmYZ4eGj1RgatkLvpq/2GrmvaEcZ4fi08GA1GriXa2Aw4uikhW1RF865Hjtl6UXEgrYQTZuaGYihTeZipEGABbBacDBnwrOWkbHyXiXKB1csdFOAZQdWRLRpB5bdia/0+GEeN32AKNXE9EAMbjAOhZ/jGrh3lD5YzRsYiHjtC8Jq0iDAAliFfhVrK3MH1sRxE6Y8767m6HZgrWhHuDTuBMJXmv9oWQl4yaaUDzZk4axnYyed/Y7xXw9lhKRCgAWwCgHW2kYnylvETL5mgXT9Si2ePe2elfjdT+rx8J7kYNfeSmzdXl7JxfadWezYbRr3KnMfenaXTQP34p49zePGVddkJ12cW47nz7ybmjV7elDPRZJg5gOwiqsXa7H0woRnNZu3ZLFrb+tfJ1u3Z7F3v9dUN4aolxYs1CLK7YNld+Lq9L8qeQFRjZg47gNDUQvna1FX0dpRy8sRF+yCa9r2nVmpHyyh8PvHEAC8Wq0WcXnBrHMtZZQRHnvNAj2iSwMsZYQREXG0xDJC/a9e7fmzPK4IUcu9tiermjo3QP+rNJzVB2tdZk+bl9F5AiyANSw6uWZNo+Otf534ut+9Cx+N3L+3yC+LEwhf7cLZWtRcgqWanrGQbeiadAJhEjRyX59TZwYNAh0nwAJYgz5YaxsZa/1ievKEBdKzT/O4cUWA1a3K2oGVZe055bBbKR8s37GTrr+i8jzionlEGu+m+Vo8faItRLPGpqqxbYedl3SWAAtgDQsmnmtqdV+EgcFyd69002S7G/um3L9TjwcaucfO3ZXYtrP1k/0DI5UY3mwR8SrzGriXKsuUeDfi5rV6PHnseZiCej1i/iPPh/Xc+zNv2IVFZwmwANZw5+N6PLxv8rmaPftau6A+MlGNwQ3GtZt3/12ctwsmIuJoCU1vx6eEB69Sq0Uszlmglunw0Wps3iJALWrhrGdhSpQRrs/sGe8fOkuABVDA4pwJz2qyLOJwC8sIlQ9+d+HTxQHWZWWEEVFOGeHYlN2Jr3JpvhYvnvvgUKbpGddfIy5o4J4UAdb6zLwxEFWPADpIgAVQgD5Ya2tlI3cN3Fdc7OKdJE4iXFFGKey4AOuV9L8q39RJHxga4QTCtFxZrMXjh0LuZm0azpQQ01ECLIACBFhrGx1v4Q4sAVbcuV2P+3frXfv3XxRgRUTrd2ANDK6UcPFycx8IsMp2TIBV2LOn3XkQRy/Lc0H3eikjpJMEWABFFuNztch9sFtVqwKs3XsrsWO311O3h6YP7+dx706973/HHbsqsX1na/vDDeih+8qF6YWzwoIyHTjc2uu51y2cN3dIkTLC9Zk94yVE51ghABTw6dM8bl6zGF/NoSPVGGjBR7nJE3aXRPTGrj9lhCtaWUao/9WrXb9cc9pbyaZm7LxohEA1TWff87usx8GRSuw9IEagM1x5AAUtnvfFbjUDAxEHRta/uJ7QwL1nrrdLGrlHRMTRY627pp1A+GpzH7reyqb/VWMWzpk3pOjGlZrTpdfp9dOeBXSGAAugIH2w1jY6sf4Ayw6siFot4tKF7t/xZwfWilb2wdLA/dX0tSnflBMIC8vziMU5z8BUf5tz73terMep08oI6QwBFkBBAqy1jY6t77WyYWMWo2MWSFcv1mLpRfd/HdbIfcVYi0oIN2/JYu9BU7dXufCR661Mu/ZUYvde119RN6/W46mS1mTpg7U+x2cHYuOQfni0n7cQQEFXL9Xi+TOT0dWst5H7+FQ1KvKrnjl2/fHDPO7e1jtu284sduxa/5RrbKoamfXCS31yqx53P3GtlWn6dQ/nRlxQPpg0Adb6DAyuhFjQbgIsgILqtYgri77wr2Z0Yn0LbOWDK3qp35pdWCtaUUaogfurKR8sn/5XjVnQwD1pt67XnZS7TqfOeCbQfgIsgAYoI1zd8OYsdu1p/tWigXvvXWeXNXKPiNacRCjAejUN3MvnBMLGLJgvJO+c0wjXZfbMgF3BtJ0AC8CEtKWabeSeZRET0xboTx7n8fGN3vkqbAfWilYEWE4gfLV5O7BKtXV7FvsPWTYU9enTPG5c8exLnUbu67NzdyUOHzVvo728iQAaYAfW2kbHm3u17D9UiS3bfMq7eL4WeQ+1Wrs031v/nmatt4Rw995KbNvh/niZRw/zuHVdKVCZpl+306LRuYLnXvo++mUB1nrNKiOkzQRYAA24e7se9+9aKK1mpMlTBCeVD0ZE7+3ye/I4jzsfu2e27chi5+7mp13jdie+0twHy8KCkul/1ZgL+l91zZzuk1veT+sxe3rQINBWAiyABl2cMzFdTbMnEU4ct0CPiFg433tfhC8pI4yI9e3C0v/q1fS/Kt/0jOuvoee4Ewi7htMI12fieDU2b7U9k/YRYAE0SIC1ut37KjG8pfHJjBMII/K8N6+vSxq5R8T6+mCNC7BeyQmE5do0nMWhI66/Rp7ji+YJXUOAtT6VSsTMG3Zo0j6uNoAGaeS+uiyLGDlajfMfFJ8UDm/O4uCoBdLtG/V48qj3aqE0cl/R7A6sSiXiyKT742WefZrH1YuurzJNnaxGxSfvwmq1iJ/+d4YNRJcY2mT30HrNnh6Mf/5PlgwEbSHAAmh0MT630pxVQ9tXOzLRWIA1frxqPKN3w9HPGrn3+2881mSAdehINTYOuUFe5sLZWtTlV6WamrFcaGhxNRDx2heMGf3j9dMDUamGZzFt4XsKQIOefZrHzauafq5mpMGTCCePm+xHRCye781Shk+f5nH7pntmy7Ysdu1tfOql/9WrKR8s37QAC1jF5i1ZTDhohDYRYAE0YeG8RdNqGm3krv/Vd6+rc737+VIj9xXN9MESYL2aBu7l2jiUKV8F1uQ0QtpFgAXQhEV9sFZ1cLQaAwU/2lcqGlRHRCy9iLh2qYcDLI3cI6K5AMuX7ZdbXnKoRtkmT1Sj6vID1jB7xk5N2kOABdAEAdbqBgaicFP2Q0eqMTSsv8+lC7VYXu7tfx+NN3LfsDGLQw44eKmL87VYepEbiBJNnbQoBdY2MlaN3XtFC5TPVQbQhGuXavH8mYXTaoqWESofXLHY42Wply6sNHLvd402cj86WY2KW+Sl5vW/Kt3UjIsPKGbmSwJvyifAAmhCvR5xecGOktUUbeQ+ecKEJ6L3d/U9e5rHresauW/emsXufcWnX/pfvZoG7uUaGIwYn/J8BopRRkg7CLAAmqSMcHV2YDVmoQ+up8vKCCOisT5YAqyXy/OIC2ddT2UanxqIwQ3GASjm5BcGYnCDlhCUS4AF0CQB1upGx6uRrTGP2bo9i70HvIoe3Mvj7u3e352kD9aKRgIsBxy83LVLtXj6RE1qmZQPAo0Y3JDF9OueG5TLqgGgSQKs1Q1vzmLXGg09lQ9+di31RynUxXn3TETxRu5bt2WxZ7+p2suc/8C1VDYN3IFGnTo9aBAolVkRQJPuflKP+3f19FnNWmWEygdXLPRJGHr5Qi3qbpk4emzt3YkREWPT7o9X0f+q5AVC1fMZaJw+WJT+fjIEAM27OGcXwGoEWMX0y26+5880co+I2LylWCN3DbRf7cJHnr1lOjJRjaFNetkAjdmzvxIHR0QMlMfVBbAOC8oIVzW6ykmE1WpjvYB6VZ73V2+oS8oII6JYGaH+Vy/38Q27X8umfBBo1uwZZYSUR4AFsA76YK1udOLVC/Ajk1Wn1cRKM+pnT/unGbVG7ivWCm+zzAmEr6J8sHxTJ117QHOUEVImARbAehbj83r6rGb33kps3vLykEoD9xX9FoJemhc+RESMrbEDa++BSmzeKuB9mfkPhaBlyjI7sIDmTb02EMObvb8ohwALYB2efZrHjasWU6sZeUUfrMnjvvBH9F+AdXmhHnW3TByZWL2Ru91Xr2YHVrkOHakKT4GmVaoRr31RCE5J15chAFgfZYSre1Uj9wkN3Pvy+nnxPI8b19wzw1uy2LP/1dMwAdbLPbyXx8c3bHstk/JBYL1OnRZgUQ4BFsA6CbBWNzr2w6+aXXsrsXO3V1C/7uDTyH3FamWETiB8Obuvyqd8EFiv188MrrrLGJpl9QCwTgKs1b2skfuk3VcREXFxrj97qGnkvuLIKxq5V6sRRyZM0V5GgFW+qRnPZ2B9tm7L1uz1CM0wOwJYp+uXa/H8WW4gXuHgaDUGfuBE5cnjvvBHRCz0afhpB9aKV51EeHjMCZ2vMqeBe6n2HazEjl2WB8D6zZ4ZNAi0nDcUwDrV63aUrKZajTg0+v0LdTuwVvTr7r0ri7WouWXi6LGXN3If1//qpZ49zePaJRdOmaZmfFwAWmP2jOcJrSfAAmgBZYSr+3wj98EN2StPJuy762auP8uhll5E3Ljintk0nMXegz88FdPA/eXmz/ZnyW07aeAOtMqRiaodnbScKwqgBQRYqxv5XCP38alqVK2R4s7H9Xh4r39LTy8qI4yIl5cR2oH1cvpflc8OLKBVsixi5kueKbSWAAugBQRYq/t8I/fJ1yzOIyIWzvX3NaMP1oofDLCGNmVxYMQ98jJzH7hmyrRjdyX27rc0AFpn9rQAi9bylgJogXt36nH/jtqWVzky/r1ePxPHLc4jhJ6X9Y2LiJU+WD/43xWzsx+yvBRx6YIdWGWadvog0GIzbwz80EE+sB6mSAAtsjhnQf4qQ8NZ7N5XiSyLmHACYURELJzv78X4lYu1WJZHxNGJ72/krnzwFc/X88ux9MI4lGnqpGcz0Fobh7I49ppnC60jwAJo2QJLgLWa0fFq7DtYia3bsr4fi1ot4spif+/YW16KuO5EuRgazmL/oe9NxzRwf7m5D10rZZvW/woowSmnEdJCAiyAFhFgrW5qphqzZ+wjj4i4uliLpRd534/DJWWEERFx5HN9sARYLzf3ke16Zdq6LYsDI5YFQOuZ+9FK3lQALXJxvhZ16/FX+s1f2Ri/+6eGDERo4P4ZAdaKzxq5b9+Zxa49pmY/qF6PWDjrWinT1MzA95WyArTK/kOV2HfIu43WcCUBtMjzZ3ncuGqRxdoWz9tNEuEkws+MfbeR+/i0MouXubpYi0+f2rFYpmMn7fwDyjN72i4sWkOABdBCyggpYsF1EhER1y7VYnnJOByZXGnkrnzw5eY+FPiWbVoDd6BEs6c9Y2gNARZACwkmWMuTR3ncvlk3EBGxvLwSYvW7jUNZ/OQfHY4f+VFfqF9m/iPXSJk2DWcxMi48BcozPTMQQ5vUKbN+AiyAFrIDi7UsnK9FrhrqV1xURhgREb/my4Oxd79p2cvMa+BeqmOvVaPi0gNKNDAY8doX7MJi/byuAFro+uVaPNOrhVXof/X9NHJnNbeu1+PBPc/UMk0pHwTaYPaMZw3rJ8ACaKE8j7i0YEHOq9ml9/00cmc1+l+Vb2rGohIo3+zpQaedsm4CLIAWE1DwKnkesTjn+vi8a5drsfTCDhtebu5D90uZBjdkcfSY/ldA+bbvzGJ0wvOG9RFgAbSYAItXuXWtHk8fC2s+r16LuHpRU3tebv4DO7DKNHmiGgM2YAFt4jRC1kuABdBiC+csuHg5/a9eTiN3XubBvTxu3xJulkn/K6CdTp1x2i7rI8ACKGHRde+ORRc/bMHuvJe6rJE7L3He7qvSTZ1UzgO0z9hUNbbt0AiL5gmwAEqgjJCXXhf6X72UHVi8zLwG7qWqViMmjguwgPbJsoiZN+zConkCLIASCLD4QUsv8rh20XXxMjeu1OL5M73B+H7nP3C/lGlsqhobNtoJAbTX7BmlyzRPgAVQAqVi/KCL87WouSxeql7XyJ3v9/RxHtcvu2HKNDVjEQm038wbA1G1+ZMmCbAASnBpvhZ1ay8+x668te8Z+Mz82VrkNuWVSgN3oBM2DWcxecLzh+YIsABK8OJ5HtevWJDzPQKs1V3SyJ3PmdPAvdwFQCVi8oQtEEBnKCOk6feXIQAohzJCPk+AtToBFp83p4F7qUbGqzG8Wf8roDNOndHIneYIsABKclFgwXc9uJfH3U/0eFrNjSu1ePapmjFWDjy4LNAs1bTyQaCDDo5WYu8BUQSNc9UAlMSOGz5z4azdJGvJ84gri+4ZVnavLrtlSnXspPJBoLNe/5IgncYJsABKcv1KLZ49taMEYWZRygiJiJj/0HVQpizTwB3ovFllhDRBgAVQkjy3IGeFAKuYy04iJPS/KtuBkUps3a7/FdBZx18fiA0bPYtojAALoESCC+p1QWZRF42T+6UWsXDOdVCm6Rm7r4DOG9wQcWJWOTONEWABlMhJhFy/XIvnz5SSFnHrWj0+VXbb164sauZfNuWDQCqUEdIoARZAiRbPK4Xpd3aTFKeRO8oHy6eBO5CK2TMDkakipAECLIASPbiXx91P6gaijykjbcwlfbD62pwG7qXau78Su/aY/gNp2LWnEoeOCNUpzhsMoGQCjP62YBdeQwRY/SvPI+Y/cr+UaUr/KyAxs2c8lyhOgAVQMgFW/3r2NI+bV+3Aa4RG7v3r5rV6PHqg/1WZppQPAok5JcCiAQIsgJIJsPr4t5+rRW493pDbN+rx9IlB60f6X5XPDiwgNRPHB2LzVo2wKEaABVCySxdqUZdh9SUN3BuX5xGX7cLqS/MfCLDKtH1nFvsOmvoDaalUIma+KFyn4PViCADK9eJ5HtcuW5D3I6dQNueSAKsvaeBerunXLRCBNM2eGTQIFCLAAmgDZYT96aKG5E3RyL3/3LtTjzu39Ysr09RJARaQptdPD0RFMkEBLhOANhBg9Z/bt+rx8L5eTs0QYPWfuQ/85mWbmtHAHUjT5i1ZjE97RrE2ARZAGywoJes7QsvmffJxPZ48Ev71Ew3cy18cHhq1OATSpYyQIgRYAG1w86qT1fqNAKt5ea4PVr/R/6pcUzMDkTnkC0jYqTPKnFmbAAugTQtyJ6v1l4VzdpSsh/ulfzx5nMeNK37vMk2dtPsKSNvIWDV27RVPsDpXCECbLNiR0zeWlyOuLPq918MOrP4x/+Fy5DaolkoDd6AbvP6GZxWrE2ABtImSsv5xZaEWy0vGYT2c4Ng/lA+Wa+NQFkcm7MAC0jerjJA1CLAA2kRJWf8QVq7fnY/r8eihbTn9QAP3ch17rRoV+RXQBU6cGojBDcaBVxNgAbTJowd53LldNxB9wKmTraEPVu978TyPKwt+5zIpHwS6xcahLKZnPLN4NQEWQBvZmeN3prhLygh73sK5WizLe0s1NWP7FdA9Zs8MGgReSYAF0EaCjd735FEen9yy064VNHLvffpflWtgMGLsmN0MQPc4pQ8Wq73XDAFA+wiwet+FczUnqrWIHVi9T/+rck1M6yfTjG//s6X4T/7DpwaChh2fHYh/6z/YbCDWYc/+ShwYqcTNqz4G8sPswAJo54L8Qi1q1uQ9bVH/q5a5+0k9Ht6TBvaqek2oXzblg81ZOOe6pDnzHy7Hp0+9t9Zr9rQyQl5OgAXQRksv8rh2ycS4l1mQt9YlDb5797e9UIvnzyz0yqSBe3OcGkyzarWIs99x/ayXMkJeRYAF0GYCjt6V5xEXlb21lDLC3qV8sORJfjVi4rgdWI2q1SIuXVC6RPPe/7Zn23odOzkQw5szA8EPv9sMAUB7CbB6181r9Xj62I6SVtLIvXdp4F6uo5PVGNpkAdioKwu1WHrhOU7z3v/Wsl6Y61StRrz2Bbuw+GECLIA20yOpdyk7aT07sHpTnkfMf+R+KdP0jMVfc89xzxzW596dely/7Dpar1llhLyEAAugzW5eq8fTJz7N9SK761rv/t16PNDIvefcuFKLJ4/8rmU6dlL5YDN8iKAVlBGu3+zpwchsIuUHCLAA2izP7SrpVQKsclyctxDoNcoHy5VlEcdes3uhGRfswKIF3v+W99Z6bd2exdFjgni+nwALoAMEHb3nxfM8rikZKMVlfbB6jgbu5Tp8tBqbt9i60KhHD/K487EG7rTgGffRcnz61C7T9Zo9PWgQ+D4CLIAOWBBg9ZxL87Wo+1lL4WTH3jP/kd+0TNMzdi0048JZwSqtUa9FfPTLrqf1OqUPFj9AgAXQARq59x6hZHmU3PaWO7frcfe2XS5lmjpp0dfUc1z5IC2kD9b6HZmsxo5dIgu+x9UA0AHKFHqPstDyPLyfx7077pdeMfeBe6VsxwRYTdH/ilZ6718uRa6KcF2yLGLmS55nfI8AC6BD7Njxe1KcXVi9Y17/q1IdOFyJ7Tv1v2pUvabfHq314F4e1y65ptZr9rQAi+8RYAF0iB07veP+3Xrct0OoVJcsLHuGBu7lmpqx2GvGlYu1eP7MdhlaSxnh+s28MRADernzXQIsgA7RB6t36JtSPjuwesPjh3ncvCbsLZP+V57jpOP9b5nrrdfGoSyOvea5xgoBFkCHXF6oxbJ5TU+wm658TiLsDXMfLusJU7IpJxA29xw/54VM682fXY6nTzz01stphHxGgAXQIUsvQm+EHuHLffkeP8zjjpPrut7ch+6VMu3aU4nde03vm6GBO2Wo1yLOfkc4ul6zZ9QQssIbDqCD7NzpgclpfWU3HeVTRtj99L8q1/Trdl8149GDPG7fFJBTDmWE67f/UCX2HRJdIMAC6CgBVve7qvFv2zghrLs9f5bHlUW/YZn0v2rOgvJBSvTet5aUTrfA7Gm7sBBgAXSURu698BtakLeLPljd7cLZWtT9hKVyAmFzFjzHKdGDe7mWES0we9rzDQEWQEfdul6Pp499lutmAqz2uTRf8xW7iykfLNfW7VnsV2LTFH0MKdt7/9Lzb72mXx+IoU2Zgehz3nIAHZTndpV0/cLHLrq2efI4jzsf61PTreY1cC99cZdZ2zWsXo+4OOfapFzvf9tcYb0GBiJOnLILq98JsAA6zA6e7vXp0zxuXROotJNG7t2pVotYFBKUSv+r5ly7pI8h5btwbjmePnGdrdepM55z/U6ABdBhdvB0r8XzStra7ZJG7t35u83X4sVzN0uZpmecQNjUO1j5IG1Qr0V89D+b763X7JlBO037nAALoMMu2oHVteye68D9YgdWV9L/qlybhrM4dESA1QwBFu2ijHD9tu/MYnTcs66fCbAAOuzRwzxu31KG1pULH7vn2k4j9+4094F7pUxTMwNRMatv7jl+zrVJe7z37SXvrxaYVUbY17zqABJgF1b3yXM7sDrh06d53L4p8O22e+XCWfdKmaZO2pHQjCeP8vj4hucJ7fHwXh5XFj0L12v29KBB6GMCLIAECEK6zye36vH4oU+pnaCRe3e5frkWTx67V8o0PWNHQjMWztnRSXspI1y/8elqbN2uEVa/EmABpDCJVorWlQsfOkMj9+4y96Hfq0wbNmYxOmEHlncv3eD9b7nm1ivLImbeENr3KwEWQAIuL9Rieck4dJNFC5+OsQOru2jgXq5jr1VjwFquKUpbabeFc8t2pLbA7BllhP1KgAWQgOWliGuXTKS7ibLPzrm0oOynq0KCj9wrZZo6Kb1qRp471ZT2q9cjPvplof56vf6lgajaeNqXBFgAiVgQiHSN5aWIKxf9Xp3y7Gket65rvNwNbt+qx91P/FZlmpqximvG9cu1ePZUEk77KSNcv03DWUycEN73IwEWQCKUpHUPJZ+dp4ywO8x/4LlWpoHBiPEpi7hmXNDHkA55/5eW7CJugVNnPPv6kQALIBFK0rqHxr+dp5F7d9DAvVzjUwMxuME4NPXOFWDRIQ/v5XFlwfW3XrOnBVj9SIAFkIiPb9TjySOf5Lpi4SNs7DgBVnfQwL1cygebd+Gca5POef/brr/1OnSkGrv3iTP6jV8cIBEaynYPAVbnXb5Qi7rWSkl79DCPj2/4kcqkgXtznj7J49Y11yad8/639SFoBbuw+o8ACyAhgpEuWJQ/yOOTWxY+nfb8mQVo6uY+WNbnpcxJfCVi8rgdWE29a885yZTOWjhXs+u+BWbPDBqEfnv3GQKAhCbVeiulP+n0GyVDGWHa9L8q1+hENYaGMwPhOU4XqtcjPvxl1+F6nZitxoaNnoP9RIAFkNSk2lfh1Nkllw4BVtr0vyrX9IzSmWZdOOvZQefpg7V+gxuyOD5rJ2o/EWABJOTJI+VpqVtwclUyLs2b/Kfq+bM8rl50r5Rp6qRFWzP0myQV739ryUfLFjiljLCvCLAAEmOHT9oLn0sWPsm4vFCPup8jSfMf1fw2JcqyiGOv2YHVjBtXavH0sdSAznv0II/LCx6U6zV7xrOwnwiwABKjN0faC59Pn1r4pOLF8zxuXDP5T5HywXIdGq3Glm36vjT3jvXMIB3vf8uzcr127anE4SN2pPYLARZAYuzA8ttQnB1xadLAvVxTMxZrzVIGTkre//aSQWgBu7D6hwALIDFXFmuxbD6TJAFWejRyT8/yUsTFOb9LmaZOWqw1S4BFavOKJ4/s7F4vAVb/EGABJLj4u6L5cZoLHwFWcuzASs/F+VosvbAgK5MdWM159jSPG1c8M0hHvR7x4f+sjHC9Jk8MxOatyqr7gQALIEF2+qTn+bM8rlv4JOfKYi1qfpakzOt/Vap9ByuxY5cpfDMWztec+kZy3v+2Z+Z6VSoRJ79oF1Zf/NaGACA9ixq5J+fivFPVUrT0IuyoSIwG7uWamrFIa5byQVL0/reWBKstMHt60CD0AQEWQILswPKbUNxFZYTJyPOIC2f9HmWaOql8sFkL54SrpOfRwzwu6+e4brNnBqIi3eh5fmKABN2+WY/HD32OS4kAK136YKXj6sVaPH3i2VUmO7Cak+ee46TrvW8JV9dr85YsxqYE/L1OgAWQ6ETbrpK0WPiky0mE6Zj70G9Rph27K7F3v+l7M25dq8eTx8JV0vT+tx0/3Qqnzigj7HXegACJEpik4+4n9bh/t24gEnX1Yi2WfbxOgv5X///27m05juoKwPAaSwLHQBwOAQIuh4MlwEImxOY58hR5yVSuUsWlD1VIxiBZGks+YMs2Pkiykaanc+G73ISa7p5Zu/V9j9Aj7en5e+/V3Vry9sGJ3XR8kMSG61XsPxdYm1q5ZIdq3wlYAEkZ5J7oszD4N7XRUcTdWz6jFJHgR59DlxbP+3FmHaePxuOItWvu+5o688lcvP2uxNFnPl2ArDfbXvedxqbdcOkNHSOcuQf37FTs2pL5V9Zxemv1smOETQ0GEV9ftE72mYAFkNT+Xh27v/gxmIHjnPltmxk3c44PduvNPw7iwzNu3Sfx8kUdd7etEeS2emXkwWULVgSsXvMtCJCYcDJ7VRWxvelzyM4g99nbMMC9U0vL8zEYuA6TGK5XMfY8iOT2ntXeqtuCr76Zj4XXXIe+ErAAEjMHa/buDKs4/M0j0fSf060qRk5fzJQdWN06d94A90ndvCEKUIYfLltHm3r95MC8wB4TsAASswNr9sxNKcNo9OpthMzGs1/reHDPFpcuLflB1mAdFwUow+oVT2LacOHSgovQUwIWQGI7W3aVzJqIWA7HCGfH7qtunTw1iDOf2oE1ibq2jlOO4XoVz5/a9d3UyneCf18JWACJjUavIhaz4xhnOQSs2RGwurX41VyccNc+kd1749h7JghQhrqOuH7NetrUnz84ER9+bNHsI58qQHKeHM/OwX4d9+86FlUKw29nZ90A906Z5zK5mz+JAZTFMcJ2rDhG2EsCFkByZnfMztbPlVdaF+TOdhVHhz6waXt5UMedWwJWlxaXBayJv0N/8rdJWdaujtx7tODCJetmHwlYAMnZgeWHD7/PuIq4PbRjbtrWf6xi7LJ3ZuG1Qfz1nPlX1nGOi71ndQzX/d02de78fJx6Y+BC9IyABZDcw/vmd8yK+VflGTpGOHXmX3Xr8y/nYt5Ggon89rKOO9vWBMrjGGFzc3MRX31j8ewbAQsgubqO2PIkbibXXQwpz7ZB7lO3IWB1yvyryQ03qhhbEijQ6mXrahtWHCPsHQELoAB2Ak2fN1eV+4OV6Rkdeftj1xbPOz44qc0b/jYp97vs+VP3IE2tXFyIgVOEvSJgARTAHKwZ/PBxzYt0b6eK31666Z/e2jSKo0PXoStzcxGffSFgWcc5bur61TB3mnnrtBmCfSNgARTxI9Hb8KZ+zdfdOJZoPDbIfZrWrwsEXfpkcS5ee932gcm/O63jlMscrHasXFxwEXpEwAIowMF+HQ/u+VE+Td5cVa5bjhFOjQHu3VpcNr9lUru/jOPZE09+KNfalZE3vLbggjlYvSJgARTCMcLpOTqMuDN0vUtlJtN0jMdCb9cMcJ+cv01Kt79Xx9BLfBo7+/lc/Okd2aMvfJIAhXAUYnq2N6sYudzFGm748Kbh9lYVLw7scOnsJv1ExOdfmt0yqU3fmfSAY4TNDQYRy996GNCb70aXAKCUm3FP4aZFLCzbL7fH8fKFsNI1xwe7debTuTj1hvlXE39negMhPbB6xTrbhhXHCHtDwAIoxO2tKo4O/SifBsc1y1bXETtbPsOuGeDerSXHByd2dFjHbcfA6YFbG5VZbi04/818zFtSe0HAAihEVUXsbJnmOQ1mp/Tjpp9u3bxhZ0CXzp13fHBSw/UqKksAPVDXEdevWWubOnlqEOc8FOgFAQugIGZ6dO/50zoe7QqFpTPIvVv3747j6a92BXRlMDDAvdl3pf9/+mP1sjlYbVi5aE3tAwELoCBDN+Wds6ukHwSsbpl/1a0Pz5yIt06bfzUpu2jpk7Wroxh7rtbYyqUFF6EHBCyAgpjNNIVr7JXVvXD/ztgb8jpk/lW3lpbtFPBdCa/s79UxdG/S2Icfn4j3/yJ/lM4nCFCQ3fvjeP7Uj3I/fPh/6jpie9Nn2ZWNNTuwuuT44OQePRjHk8e2q9AvPzhG2IqvHSMsnoAFUBhP4bpT1xFDw797Y9sxwk48eTSO3fsCQZcMcJ/cTccH6aHVKx4atOGCY4TFE7AACmOQe3fu7lTx0rGz3vAmwm44Ptit9z44Ee+85xZ94u/In3xH0j/bN6t49sT9SVNLy/Nx8g/mC5bMtyNAYRxx6/DaenLfK0M7sDphgHu3Fs2/so7D/6jriLWrjhE2Nb8Q8eUFa2zJBCyA0n6Ur1dRewjXCa9e75fde+M42PfP0jY7sLq16PjgxI4OI3a2/H3ST44RtmPFHKyiCVgAhTnYr+P+XfNnumB3W7/UtTlYra8/e3Xc3XZNu7RkgPvEbt2sYuQ3Pj21dnUUY8tvYxe+W4iBU4TFErAACrRlDlbrXr6o496OO8M+/qClPRs37ADt0h/fHsT7H7k9n5T5V/TZwV4dW17k09jptwdx5hM7XUvlGxKgQHYKte/WRhVjG9t6+bnSnvU1gaBLX5h/1cim+Vf03OoVc7DasHLJWlsqAQugQAKWHz78PgJWuwxw79Y5xwebreO+G+m5Hy5bg9tVqqmOAAAFzUlEQVRw4dKCi1AoAQugQLeHVRwdOsfTJtvy++nhg3HsP/e/0oajw9pMsY4tLTvWMqnHD8fx5JFttPTbzmYVT3/1ndbUp0tz8dZpg7BKJGABFKiqIrY33ai3aShg9VJdm4PVls2fDcju0htvDuKjswLWxH+fdtFyTL7Trl91jLCpwSBi+W92vJZIwAIolEHu7Xm0O44njwXBvnKMsB0b113HLi0uz3szVgMCFsfF6hX3f21YcYywSAIWQKHMwXIt+X3swGqH+VfdWjxv91UT3kDIcbF2bRRjX2uNLX87Hycsu8URsABKvVkXXVojYPWbHVjNjSs7XLq2aID7xEZHEdub/j45Hg72aveALTj15iA+/8K6WxoBC6BQjx6M49kTgzzb4Ml9z/9Xdsfx/Jn/lSZ2tqp4+cI17MrrJwdx9jNbASa1vVnFyFggjpHVK/7g27ByScAqjYAFULCtdeGlKQPxj8kPXLuwGvl5zVrTpXNfzTnK0oCHEBw3q5f9zbdBwCqPgAVQMEffmru9VcXRoZ0lfTcUsBpZN8C9U44PNuN4K8fNzlbl5TMt+PjsXLz7viRSEp8WQMEErBZ++LiGx4JB7pOr64ibNzzt79Lisu1XjdZxAYtjuC6vXbUut+Hrv3uAUBKfFkDBhutV/Odfhy5EA5e/N0fiePzAHflfmdDBXh3Pn9ql2KWdrXHcu+3vcxJHv9Xx+KGdKBw/3//7KCrttrFKByzK4J//MAEYAAAAgLwcIQQAAAAgNQELAAAAgNQELAAAAABSE7AAAAAASE3AAgAAACA1AQsAAACA1AQsAAAAAFITsAAAAABITcACAAAAIDUBCwAAAIDUBCwAAAAAUhOwAAAAAEhNwAIAAAAgNQELAAAAgNQELAAAAABSE7AAAAAASE3AAgAAACA1AQsAAACA1AQsAAAAAFITsAAAAABITcACAAAAIDUBCwAAAIDUBCwAAAAAUhOwAAAAAEhNwAIAAAAgNQELAAAAgNQELAAAAABSE7AAAAAASE3AAgAAACA1AQsAAACA1AQsAAAAAFITsAAAAABITcACAAAAIDUBCwAAAIDUBCwAAAAAUhOwAAAAAEhNwAIAAAAgNQELAAAAgNQELAAAAABSE7AAAAAASE3AAgAAACA1AQsAAACA1AQsAAAAAFITsAAAAABITcACAAAAIDUBCwAAAIDUBCwAAAAAUhOwAAAAAEhNwAIAAAAgNQELAAAAgNQELAAAAABSE7AAAAAASE3AAgAAACA1AQsAAACA1AQsAAAAAFITsAAAAABITcACAAAAIDUBCwAAAIDUBCwAAAAAUhOwAAAAAEhNwAIAAAAgNQELAAAAgNQELAAAAABSE7AAAAAASE3AAgAAACA1AQsAAACA1AQsAAAAAFITsAAAAABITcACAAAAIDUBCwAAAIDUBCwAAAAAUhOwAAAAAEhNwAIAAAAgNQELAAAAgNQELAAAAABSE7AAAAAASE3AAgAAACA1AQsAAACA1AQsAAAAAFITsAAAAABITcACAAAAIDUBCwAAAIDUBCwAAAAAUhOwAAAAAEhNwAIAAAAgNQELAAAAgNQELAAAAABSE7AAAAAASE3AAgAAACA1AQsAAACA1AQsAAAAAFITsAAAAABITcACAAAAIDUBCwAAAIDUBCwAAAAAUhOwAAAAAEhNwAIAAAAgNQELAAAAgNQELAAAAABSE7AAAAAASE3AAgAAACA1AQsAAACA1AQsAAAAAFITsAAAAABITcACAAAAIDUBCwAAAIDUBCwAAAAAUhOwAAAAAEhNwAIAAAAgNQELAAAAgNQELAAAAABSE7AAAAAASE3AAgAAACA1AQsAAACA1AQsAAAAAFITsAAAAABITcACAAAAIDUBCwAAAIDUBCwAAAAAUhOwAAAAAEhNwAIAAAAgNQELAAAAgNQELAAAAABSE7AAAAAASE3AAgAAACA1AQsAAACA1AQsAAAAAFL7LwR4k1o6Z1XyAAAAJXRFWHRkYXRlOmNyZWF0ZQAyMDI0LTA3LTIwVDEwOjIxOjE1KzAwOjAwegzyzgAAACV0RVh0ZGF0ZTptb2RpZnkAMjAyNC0wNy0yMFQxMDoyMToxNSswMDowMAtRSnIAAAAASUVORK5CYII=;" vertex="1" parent="1">
          <mxGeometry x="410" y="273.5" width="71" height="71" as="geometry" />
        </mxCell>
        <mxCell id="HW7efEHv6wv4-RLYA-nB-6" value="" style="endArrow=classic;html=1;rounded=0;" edge="1" parent="1" source="HW7efEHv6wv4-RLYA-nB-1" target="HW7efEHv6wv4-RLYA-nB-2">
          <mxGeometry width="50" height="50" relative="1" as="geometry">
            <mxPoint x="160" y="420" as="sourcePoint" />
            <mxPoint x="210" y="370" as="targetPoint" />
          </mxGeometry>
        </mxCell>
        <mxCell id="HW7efEHv6wv4-RLYA-nB-27" value="is passed to" style="edgeLabel;html=1;align=center;verticalAlign=middle;resizable=0;points=[];" vertex="1" connectable="0" parent="HW7efEHv6wv4-RLYA-nB-6">
          <mxGeometry x="-0.1407" y="-2" relative="1" as="geometry">
            <mxPoint y="-11" as="offset" />
          </mxGeometry>
        </mxCell>
        <mxCell id="HW7efEHv6wv4-RLYA-nB-8" value="Wasm runtime" style="rounded=1;whiteSpace=wrap;html=1;verticalAlign=top;" vertex="1" parent="1">
          <mxGeometry x="750" y="260" width="150" height="180" as="geometry" />
        </mxCell>
        <mxCell id="HW7efEHv6wv4-RLYA-nB-13" value="" style="endArrow=classic;html=1;rounded=0;entryX=-0.011;entryY=0.278;entryDx=0;entryDy=0;entryPerimeter=0;" edge="1" parent="1" source="HW7efEHv6wv4-RLYA-nB-5" target="HW7efEHv6wv4-RLYA-nB-16">
          <mxGeometry width="50" height="50" relative="1" as="geometry">
            <mxPoint x="410" y="410" as="sourcePoint" />
            <mxPoint x="460" y="360" as="targetPoint" />
          </mxGeometry>
        </mxCell>
        <mxCell id="HW7efEHv6wv4-RLYA-nB-21" value="read file" style="edgeLabel;html=1;align=center;verticalAlign=middle;resizable=0;points=[];" vertex="1" connectable="0" parent="HW7efEHv6wv4-RLYA-nB-13">
          <mxGeometry x="-0.1753" relative="1" as="geometry">
            <mxPoint x="23" y="-20" as="offset" />
          </mxGeometry>
        </mxCell>
        <mxCell id="HW7efEHv6wv4-RLYA-nB-16" value="Host application" style="rounded=1;whiteSpace=wrap;html=1;verticalAlign=middle;" vertex="1" parent="1">
          <mxGeometry x="570" y="260" width="100" height="180" as="geometry" />
        </mxCell>
        <mxCell id="HW7efEHv6wv4-RLYA-nB-17" value="" style="endArrow=classic;html=1;rounded=0;exitX=0.01;exitY=0.281;exitDx=0;exitDy=0;exitPerimeter=0;" edge="1" parent="1" source="HW7efEHv6wv4-RLYA-nB-16">
          <mxGeometry width="50" height="50" relative="1" as="geometry">
            <mxPoint x="670" y="310" as="sourcePoint" />
            <mxPoint x="750" y="310" as="targetPoint" />
          </mxGeometry>
        </mxCell>
        <mxCell id="HW7efEHv6wv4-RLYA-nB-18" value="1. Instantiate&lt;br&gt;Wasm module" style="edgeLabel;html=1;align=center;verticalAlign=middle;resizable=0;points=[];" vertex="1" connectable="0" parent="HW7efEHv6wv4-RLYA-nB-17">
          <mxGeometry x="-0.4981" relative="1" as="geometry">
            <mxPoint x="94" y="-21" as="offset" />
          </mxGeometry>
        </mxCell>
        <mxCell id="HW7efEHv6wv4-RLYA-nB-30" value="Wasm module instance" style="rounded=0;whiteSpace=wrap;html=1;verticalAlign=top;fillColor=#fff2cc;strokeColor=#d6b656;" vertex="1" parent="1">
          <mxGeometry x="765" y="300" width="120" height="120" as="geometry" />
        </mxCell>
        <mxCell id="HW7efEHv6wv4-RLYA-nB-19" value="" style="endArrow=classic;html=1;rounded=0;startArrow=none;startFill=0;" edge="1" parent="1">
          <mxGeometry width="50" height="50" relative="1" as="geometry">
            <mxPoint x="670" y="380" as="sourcePoint" />
            <mxPoint x="750" y="380" as="targetPoint" />
          </mxGeometry>
        </mxCell>
        <mxCell id="HW7efEHv6wv4-RLYA-nB-20" value="2. Execute&lt;br&gt;Wasm functions" style="edgeLabel;html=1;align=center;verticalAlign=middle;resizable=0;points=[];" vertex="1" connectable="0" parent="HW7efEHv6wv4-RLYA-nB-19">
          <mxGeometry x="-0.4981" relative="1" as="geometry">
            <mxPoint x="20" y="-20" as="offset" />
          </mxGeometry>
        </mxCell>
        <mxCell id="HW7efEHv6wv4-RLYA-nB-23" value="" style="endArrow=classic;html=1;rounded=0;startArrow=none;startFill=0;" edge="1" parent="1">
          <mxGeometry width="50" height="50" relative="1" as="geometry">
            <mxPoint x="750" y="390" as="sourcePoint" />
            <mxPoint x="670" y="390" as="targetPoint" />
          </mxGeometry>
        </mxCell>
        <mxCell id="HW7efEHv6wv4-RLYA-nB-25" value="" style="endArrow=classic;html=1;rounded=0;" edge="1" parent="1" source="HW7efEHv6wv4-RLYA-nB-2" target="HW7efEHv6wv4-RLYA-nB-5">
          <mxGeometry width="50" height="50" relative="1" as="geometry">
            <mxPoint x="300" y="440" as="sourcePoint" />
            <mxPoint x="350" y="390" as="targetPoint" />
          </mxGeometry>
        </mxCell>
        <mxCell id="HW7efEHv6wv4-RLYA-nB-26" value="outputs" style="edgeLabel;html=1;align=center;verticalAlign=middle;resizable=0;points=[];" vertex="1" connectable="0" parent="HW7efEHv6wv4-RLYA-nB-25">
          <mxGeometry x="-0.581" relative="1" as="geometry">
            <mxPoint x="17" y="-9" as="offset" />
          </mxGeometry>
        </mxCell>
        <mxCell id="HW7efEHv6wv4-RLYA-nB-10" value="Module" style="shape=image;verticalLabelPosition=bottom;labelBackgroundColor=default;verticalAlign=top;aspect=fixed;imageAspect=0;image=data:image/png,iVBORw0KGgoAAAANSUhEUgAABLAAAASwCAYAAADrIbPPAAAABGdBTUEAALGPC/xhBQAAACBjSFJNAAB6JgAAgIQAAPoAAACA6AAAdTAAAOpgAAA6mAAAF3CculE8AAAABmJLR0QA/wD/AP+gvaeTAAAAB3RJTUUH6AcUChUQfA1cMQAAgABJREFUeNrs/XmUnWmeF3b+3nsjpFBo37cIKRZFSKnIUFWW1ICB9imWwSxdlVUNCYfhNK5uKrPbLAbGNj14PONkPDD4nDkHGBuwmzbGHg4zphnPGHqMDQYDwwweoKrdlZukCEVoX1KpfUlJEfe+80dUdmVVSRHvvXHfe5977+fzX56Tf4Se+y7P832f3+/J3n7zfh4AQCFZvbL35/7Otk+MBLAeb795/x9GxG8wEgBQTMUQAAAAAJAyARYAAAAASRNgAQAAAJA0ARYAAAAASRNgAQAAAJA0ARYANGBpKMuMAtACniUA0AABFgA0suJ8/mzQKADrlUdsNAoAUJwACwAasKEysMEoAOuVRXiWAEADBFgA0IAX9apdE8C6ZXZgAUBDBFgA0ICBbNmuCWDd8kyABQCNEGABQAPqWUWABaxfroQQABohwAKABmR5xa4JYN00cQeAxgiwAKCRRWe9PmQUgPXSAwsAGiPAAoBGFp3V2GkUgPV46628GhHbjQQAFCfAAoAGZHnsMQrAemyJx7vMwwGgMV6cANCAesRuowCsx+Cz3HMEABokwAKABmRZZuEJrM/Asp2cANAgARYANEIJIbBO9WVBOAA0SoAFAI0tPS08gfWpZoJwAGiQAAsAGpLtNQbAOifggnAAaPz9CQAUlUccMQrAup4jeRw1CgDQGAEWADQgi9j/zleuDxsJoGl5jBsEAGiMAAsAGpPVB7baPQGs4ykiwAKARgmwAKDRtWdeHzMKQHPyLJQiA0DDBFgA0KAs8jGjADTjD/72J/sjQhkyADRIgAUADcrrMWYUgGbUNtaVDwJAEwRYANCoLCYNAtCMWi33/ACAJgiwAKBxs4YAaEYWuecHADRBgAUAjTv2E7/l5mbDADRBgAUATRBgAUAT788Nw5tmDAPQsCxOGQQAaGICbggAoJk1qDIgoDF/4K0HuyLisJEAgMYJsACgCVlkAiygsYn3ct1zAwCafY8aAgBoQp4rAwIafG5UPDcAoEkCLABozhvvvpt7jwKFZXn+hlEAgOaYeANAc3Zc+eV7Jw0DUFQe8euMAgA0R4AFAE2q1isWo0Ah73zl4Z6ImDISANAcARYANCmP7NcaBaCQau3XR0RmIACgOQIsAGhabgcWUOxpkWeeFwCwDgIsAGje5Ds//uSgYQDWov8VAKyPAAsA1rMorS8pIwRW9Y0v50NZxJeMBAA0T4AFAOuQ1+M3GQVgNQPbHvxoRGw0EgDQPAEWAKxDlsVvMwrAqs+JSvZbjQIArI8ACwDWZ+ynvvrwuGEAXinPBd0AsE4CLABY78u0UrM4BV7qJ9+8MxoRrxkJAFjnnNsQAMD6ZHkmwAJeaiCv/g6jAADrJ8ACgPX7V9/5yvVhwwD88Gxb/ysAaMkr1RAAwLoN1SpDTiMEvs83vpwPRZ7/RiMBAOsnwAKAFqjm2e82CsDnDWy7/9sjYquRAID1E2ABQAvkWfbmH3/ryiYjAfzKRDsTbANAy96rhgAAWmLrk6Ut/5phACIi3vnK9eE8QgN3AGgRARYAtEhet9sC+O7zoDr8YxGxxUgAQGsIsACgVbL46k/8lpubDQSQRfweowAArSPAAoDW2bxx09BvMwzQ337qq7e35nl4FgBACwmwAKCFssi/YRSgvw1kg78nIhzqAAAtJMACgJbKfts7X7l7xDhA/8ojvmkUAKC1BFgA0OJ3a16pfsMwQH965827sxHxq40EALR4km0IAKC1ssi/+dZbedVIQP/JI3vbKABA6wmwAKDlC9gY3fX84f/CSEB/+caX86GI7PcZCQBoPQEWAJQgr+R2YUCfGdz28HdGxC4jAQCtJ8ACgBLkebz5za/cHzcS0Ef3fZb/IaMAAOUQYAFAOapZNfvDhgH6wztfv/vrs4h/xUgAQDkEWABQljx/+xtfu7fDQEAf3O71yr9lFACgPAIsACjP1oG6E8mg1/30jz2YioivGgkAKI8ACwBKlGXxR996K99gJKB31av5/8q8GgDK5UULAOU6vP35w99tGKA3/eRbj/ZGxL9uJACgXAIsACj7ZZvlP/vuu7l3LvSgwRe1PxYRm4wEAJQ8pzYEAFCuPOL1a9+2Cwt6zTtfebgnj/gjRgIAyifAAoC2vHHz//27X84HDAT0jrxS/9mI2GokAKAN02lDAADtWOnG1PVt93+fgYDe8Ad/++MDEfEHjQQAtIcACwDaJM+yd51ICL1haXDp342IYSMBAO0hwAKA9hnb8fyB08qgy/3UV28fisi+aSQAoH0EWADQTln8+z/xW25uNhDQvarZhj8dTh4EgLYSYAFAex0eGt74vzYM0J3e+cr9L0Xkv99IAEB7CbAAoN3y7N/+ma/dGzMQ0H03b17J/rw5NAC0n5cvALTfUK2e/YeGAbrLO28+/L0R+Y8aCQBoPwEWAHRCFr/7p7967181ENAd/vhbVzblkf8ZIwEAnSHAAoAOqVeyP/fuu7l3MXSBJ0tbfjYijhoJAOgMk2YA6JQ8vnT9lx7+YQMBaXv76w+n8zz7WSMBAJ0jwAKADsoj/zM/9TvvTxgJSPYuzSKv/+WIGDIWANA5AiwA6KzNleX4i4YB0vTOmw/eiTx+o5EAgM4SYAFAh2URv/Xtrz74fUYC0vLOjz85mEf8H40EAHSeAAsAEpBn+V/4ma8/2mckIKH7srb0FyNip5EAgM4TYAFAArKI3bVa7c8bCUjDO1+9/1ZEfN1IAEAaBFgAkIosfq9SQui8n/mxTw7Xs/jLRgIA0iHAAoCUZPlf/Jmv3RszENAZ776bV2oDA/9lFrHbaABAOgRYAJCW7bU8/vpbb+VVQwHtd/2XHvwJpw4CQHoEWACQnOzX7Vx6+O8aB2ivd75y/0t5xJ8yEgCQHgEWACQoz/P/3Te/8uDXGAloj5/4LTc3RyX+RkRsMBoAkB4BFgCkaaBSyf/mT771aK+hgPINbdr0l/KI40YCANIkwAKAROURowMvav/Vu1/OB4wGlOedN+/98Yj89xsJAEiXAAsA0vYbrm178KcNA5Tj7Tcf/to8sj9rJAAgbQIsAEhdFv/O21+7/7sNBLTWH/ztjw9E5L8Q+l4BQPIEWACQvizy+M/e/sqdGUMBrfHOO/ng0mDtb0bkh4wGAKRPgAUA3WFLllX/9s98/dE+QwHrl9968H+OyH/USABAdxBgAUC3LLizmKjltV985yvXh40GNO+drz3430bEzxgJAOgeAiwA6CZ5/EheHf5r776be4dDE7755v3fk+f5nzISANBdTH4BoNvk8da1X3rwZwwENOabb9790Sziv4iIzGgAQHcRYAFAd/rZb7754A8ZBijmna/dn8zyyv89IjYaDQDoPgIsAOhSWeR/4Ztv3v89RgJW980fvzOS5/H3I4u9RgMAupMACwC6VzWL+L+8/fWHP2Yo4OV+5uuP9mW16t+PiHGjAQDdS4AFAN1tMOr1v/nOV+/9BkMB3+8bX7u3o16v/XcRccJoAEB3E2ABQPfblGfZL37zzbs/aihgxR/5bXe2DUb29/KIN4wGAHQ/ARYA9IbhLCp/+52v3P+SoaDf/cRvubn52YaBX4w8fsRoAEBvEGABQO/YkVfiH7z95sNfayjoV++8dXf70KaN/31EbkciAPQQARYA9JYdEfW/9/ab93+zoaDf/Bu/4/7O/EXlv4/Ifp3RAIDeIsACgN6zOSJ+8ZtfufemoaBffPOrj/cvD8Q/johfbTQAoPcIsACgN23MKtnf/Oab93+XoaDXvfOVu0eyyvL/OyJmjQYA9CYBFgD0rg1ZxP/1m1+7/wcMBb3q7a/cmYlK5Z9GHlNGAwB6lwALAHrbQJbHz3/zzXt/4d13c+99espPf+3+b4pK9Z/mEaNGAwB6m4ksAPSBLLJ/89ovPfiv/vhbVzYZDXrB21+79416Hn83InYYDQDofQIsAOgfv+vRi63/4CfferTXUNC98uydr917N/Lsr0bEoPEAgP6Qvf3m/dwwAEBfOV+pZT/2n/7i9jlDQTf5xpfzocHt938+Ivt9RgMA+osdWADQf6br1fxbb3/t/u80FHSLn3zzzujg9gf/WHgFAP1JgAUA/Wlr5PELb795/8++9VZeNRyk7Jtfu/flgaj+y4j4VUYDAPqTAAsA+lcWET+748WDv/8zX3+0z3CQnjx7+837P5vl2f8QEa5RAOjniaseWABARCxm9fhdP/d3dnzbUJCCb3zt3o7BqPy1yPM3jQYAYAcWABARMZ5X4v/3ztfuvfvuu7n5AR31za88+DUb6tm3hFcAwGfswAIAftD/mFdrv//n/+vdVw0F7fTul/OB6zvu/3t5nv17EaE3GwDwK3xhBQB+0G/IatX3v/m1B7/XUNAuP/O1e2PXtt//R3me/fshvAIAfoAACwB4me1Znv+Nt792/z9756272w0H5cmzt796/+1anr0Xkf064wEAvIwSQgBgVXnEzYj4Iz//3+z4W0aDVvqp33l/oroc/2lE/GajAQCsRoAFABST57+YD9T/Db2xWK93v5wPXNt2/w9Flv3piNhsRACAtSghBACKybIfy2rV99/+6r0/6qRCmvXTX7/3havbH/yzyLI/H8IrAKDoVNQOLACgYXn2T/NK/sd+/v+541sGgyL+0Ncf7l6q1/5UHtnPhCbtAECDBFgAQLPyiPyvDy4N/om/9N9uuWk4eJl3v5wPXN3x4KeyevwfIou9RgQAaIYACwBYrydZlv+fXtzf8Wf/2j/KnhkOPvPTX7v/m+p5/LmImDUaAMB6CLAAgFa5kEf8b0be2P4L776b1Q1H//rmV++eyiL705FlP2Y0AIBWEGABAK2eXnyQ5fmf+rm/vf1vRWTmGX3km19/9FpWX/6TEdn/MvS5AgBaOcMUYAEAJXkvy+M/EGT1vp/52r2xej37k3kWfyAEVwBACQRYAECp8oh/VsmzP/1zf3vbfyvI6i3vfOXhiajU/0Qe8RMRMWBEAICyCLAAgHaZjzz/j7dsfPxzf+4XRj81HN3rna/f/fV5Xvk3I48fDzuuAIA2EGABAO32cZblf3kwq/5Hf/H/se2O4egO776bV6780r3fkUXlT2YR/4oRAQDaSYAFAHTKk4j4G1HP/spf+Tvb/4XhSNM7P/7kYL689I3I4u2IGDciAEAnCLAAgBR8FBH/xYZK5eftyuq8d9/NK9d+6cFvjCzeiTy+FhGDRgUA6CQBFgCQkk8j8r+VZ/FXR76445+8+25WNyTt8we++uBYFvXfn2XZT0bEiBEBAFIhwAIAUvVJRP53I7L/8vAb2/+hMKscP/nmndGBvPLjkcVbEdmvjYjMqAAAqRFgAQDpT1giruSR/a28Hn9z5PS2fy7MWp93vnL3SFSy35lH9nsi4leF0AoASH0+KMACALrMJ5HF/5hH/A+VyuDf+bn/evMNQ7K6d7+cD1zfee/X5PXKj0XEb46IL4XQCgDoIgIsAKCb1SPiX2RZ/t/V6tW/P7y09V/+R383e25YIn7qqw+PV6P+G6KS/dbI898UEVuMCgDQrQRYAEAvWY6IX84j//9U8uyfLm2s/qP//Be23u71f/S7X84Hru548IWsnv/6qGS/Lurx5chir8sBAOgVAiwAoJflEXE2Iv92lmXfyerZd7L60nv/yS/uudat/6Cf+urtrYPVja/X8vpsJc9P5RFfjMhOR8SQnxsA6FUCLACgH92NiO9Elr8f9ZiPiMUsyxeX89rFv/q39z7q9B/3zjv5YHz84EgWMVaLGKvkMZFn2UxWz2fzLMZD/yoAoM8IsAAAvt8necTFLOJSRNzK8/xOFnEnj8qdrBJ36hF3qpHfWa4vfbqxNvhpRMT+H9n+4FUnI/7UV29v3VgbHHg2XB3I6rWtlaX6lkpku/NKtjeL2B2R7ckjdmf1+u56lh3JIsYi4nBEVP0UAAArBFgAAK2zFBGPI2JDRGw2HAAArTFgCAAAWmYwInYaBgCA1qoYAgAAAABSJsACAAAAIGkCLAAAAACSJsACAAAAIGkCLAAAAACSJsACAAAAIGkCLAAAAACSJsACAAAAIGkCLAAAAACSJsACAAAAIGkCLAAAAACSJsACAAAAIGkCLAAAAACSJsACAAAAIGkCLAAAAACSJsACAAAAIGkCLAAAAACSJsACAAAAIGkCLAAAAACSJsACAAAAIGkCLAAAAACSJsACAAAAIGkCLAAAAACSJsACAAAAIGkCLAAAAACSJsACAAAAIGkCLAAAAACSJsACAAAAIGkCLAAAAACSJsACAAAAIGkCLAAAAACSJsACAAAAIGkCLAAAAACSJsACAAAAIGkCLAAAAACSJsACAAAAIGkCLAAAAACSJsACAAAAIGkCLAAAAACSJsACAAAAIGkCLAAAAACSJsACAAAAIGkCLAAAAACSJsACAAAAIGkCLAAAAACSJsACAAAAIGkCLAAAAACSJsACAAAAIGkCLAAAAACSJsACAAAAIGkCLAAAAACSJsACAAAAIGkCLAAAAACSJsACAAAAIGkCLAAAAACSJsACAAAAIGkCLAAAAACSJsACAAAAIGkCLAAAAACSJsACAAAAIGkCLAAAAACSJsACAAAAIGkCLAAAAACSJsACAAAAIGkCLAAAAACSJsACAAAAIGkCLAAAAACSJsACAAAAIGkCLAAAAACSJsACAAAAIGkCLAAAAACSJsACAAAAIGkCLAAAAACSJsACAAAAIGkCLAAAAACSJsACAAAAIGkCLAAAAACSJsACAAAAIGkCLAAAAACSJsACAAAAIGkCLAAAAACSJsACAAAAIGkCLAAAAACSJsACAAAAIGkCLAAAAACSJsACAAAAIGkCLAAAAACSJsACAAAAIGkCLAAAAACSJsACAAAAIGkCLAAAAACSJsACAAAAIGkCLAAAAACSJsACAAAAIGkCLAAAAACSJsACAAAAIGkCLAAAAACSJsACAAAAIGkCLAAAAACSJsACAAAAIGkCLAAAAACSJsACAAAAIGkCLAAAAACSJsACAAAAIGkCLAAAAACSJsACAAAAIGkCLAAAAACSJsACAAAAIGkCLAAAAACSJsACAAAAIGkCLAAAAACSJsACAAAAIGkCLAAAAACSJsACAAAAIGkCLAAAAACSJsACAAAAIGkCLAAAAACSJsACAAAAIGkCLAAAAACSJsACAAAAIGkCLAAAAACSJsACAAAAIGkCLAAAAACSJsACAAAAIGkCLAAAAACSJsACAAAAIGkCLAAAAACSJsACAAAAIGkCLAAAAACSJsACAAAAIGkCLAAAAACSJsACAAAAIGkCLAAAAACSJsACAAAAIGkCLAAAAACSJsACAAAAIGkCLAAAAACSJsACAAAAIGkCLAAAAACSJsACAAAAIGkCLAAAAACSJsACAAAAIGkCLAAAAACSJsACAAAAIGkCLAAAAACSJsACAAAAIGkCLAAAAACSJsACAAAAIGkCLAAAAACSJsACAAAAIGkCLAAAAACSJsACAAAAIGkCLAAAAACSJsACAAAAIGkCLAAAAACSJsACAAAAIGkCLAAAAACSJsACAAAAIGkCLAAAAACSJsACAAAAIGkCLAAAAACSJsACAAAAIGkCLAAAAACSJsACAAAAIGkCLAAAAACSJsACAAAAIGkCLAAAAACSJsACAAAAIGkCLAAAAACSJsACAAAAIGkCLAAAAACSJsACAAAAIGkCLAAAAACSJsACAAAAIGkCLAAAAACSJsACAAAAIGkCLAAAAACSJsACAAAAIGkCLAAAAACSJsACAAAAIGkCLAAAAACSJsACAAAAIGkCLAAAAACSJsACAAAAIGkCLAAAAACSJsACAAAAIGkCLAAAAACSJsACAAAAIGkCLAAAAACSJsACAAAAIGkCLAAAAACSJsACAAAAIGkCLAAAAACSJsACAAAAIGkCLAAAAACSJsACAAAAIGkCLAAAAACSJsACAAAAIGkCLAAAAACSJsACAAAAIGkCLAAAAACSJsACAAAAIGkCLAAAAACSJsACAAAAIGkCLAAAAACSJsACAAAAIGkCLAAAAACSJsACAAAAIGkCLAAAAACSJsACAAAAIGkCLAAAAACSJsACAAAAIGkCLAAAAACSJsACAAAAIGkCLAAAAACSJsACAAAAIGkCLAAAAACSJsACAAAAIGkCLAAAAACSJsACAAAAIGkCLAAAAACSJsACAAAAIGkCLAAAAACSJsACAAAAIGkCLAAAAACSJsACAAAAIGkCLAAAAACSJsACAAAAIGkCLAAAAACSJsACAAAAIGkCLAAAAACSJsACAAAAIGkCLAAAAACSJsACAAAAIGkCLAAAAACSJsACAAAAIGkCLAAAAACSJsACAAAAIGkCLAAAAACSJsACAAAAIGkCLAAAAACSJsACAAAAIGkCLAAAAACSJsACAAAAIGkCLAAAAACSJsACAAAAIGkCLAAAAACSJsACAAAAIGkCLAAAAACSJsACAAAAIGkCLAAAAACSJsACAAAAIGkCLAAAAACSJsACAAAAIGkCLAAAAACSJsACAAAAIGkCLAAAAACSJsACAAAAIGkCLAAAAACSJsACAAAAIGkCLAAAAACSJsACAAAAIGkCLAAAAACSJsACAAAAIGkCLAAAAACSJsACAAAAIGkCLAAAAACSJsACAAAAIGkCLAAAAACSJsACAAAAIGkCLAAAAACSJsACAAAAIGkCLAAAAACSJsACAAAAIGkCLAAAAACSJsACAAAAIGkCLAAAAACSJsACAAAAIGkCLAAAAACSJsACAAAAIGkCLAAAAACSJsACAAAAIGkCLAAAAACSJsACAAAAIGkCLAAAAACSJsACAAAAIGkCLAAAAACSJsACAAAAIGkCLAAAAACSJsACAAAAIGkCLAAAAACSJsACAAAAIGkCLAAAAACSJsACAAAAIGkCLAAAAACSJsACAAAAIGkCLAAAAACSJsACAAAAIGkCLAAAAACSJsACAAAAIGkCLAAAAACSJsACAAAAIGkCLAAAAACSJsACAAAAIGkCLAAAAACSJsACAAAAIGkCLAAAAACSJsACAAAAIGkCLAAAAACSJsACAAAAIGkCLAAAAACSJsACAAAAIGkCLAAAAACSJsACAAAAIGkCLAAAAACSJsACAAAAIGkCLAAAAACSJsACAAAAIGkCLAAAAACSJsACAAAAIGkCLAAAAACSJsACAAAAIGkCLAAAAACSJsACAAAAIGkCLAAAAACSJsACAAAAIGkCLAAAAACSJsACAAAAIGkCLAAAAACSJsACAAAAIGkCLAAAAACSJsACAAAAIGkCLAAAAACSJsACAAAAIGkCLAAAAACSJsACAAAAIGkCLAAAAACSJsACAAAAIGkCLAAAAACSJsACAAAAIGkCLAAAAACSJsACAAAAIGkCLAAAAACSJsACAAAAIGkCLAAAAACSJsACAAAAIGkCLAAAAACSJsACAAAAIGkCLAAAAACSJsACAAAAIGkCLAAAAACSJsACAAAAIGkCLAAAAACSJsACAAAAIGkCLAAAAACSJsACAAAAIGkCLAAAAACSJsACAAAAIGkCLAAAAACSJsACAAAAIGkCLAAAAACSJsACAAAAIGkCLAAAAACSJsACAAAAIGkCLAAAAACSJsACAAAAIGkCLAAAAACSJsACAAAAIGkCLAAAAACSJsACAAAAIGkCLAAAAACSJsACAAAAIGkCLAAAAACSJsACAAAAIGkCLAAAAACSJsACAAAAIGkCLAAAAACSJsACAAAAIGkCLAAAAACSJsACAAAAIGkCLAAAAACSJsACAAAAIGkCLAAAAACSJsACAAAAIGkCLAAAAACSJsACAAAAIGkCLAAAAACSJsACAAAAIGkCLAAAAACSJsACAAAAIGkCLAAAAACSJsACAAAAIGkCLAAAAACSJsACAAAAIGkCLAAAAACSJsACAAAAIGkCLAAAAACSJsACAAAAIGkCLAAAAACSJsACAAAAIGkCLAAAAACSJsACAAAAIGkCLAAAAACSJsACAAAAIGkCLAAAAACSJsACAAAAIGkCLAAAAACSJsACAAAAIGkCLAAAAACSJsACAAAAIGkCLAAAAACSJsACAAAAIGkCLAAAAACSJsACAAAAIGkCLAAAAACSJsACAAAAIGkCLAAAAACSJsACAAAAIGkCLAAAAACSJsACAAAAIGkCLAAAAACSJsACAAAAIGkCLAAAAACSJsACAAAAIGkCLAAAAACSJsACAAAAIGkCLAAAAACSJsACAAAAIGkCLAAAAACSJsACAAAAIGkCLAAAAACSJsACAAAAIGkCLAAAAACSJsACAAAAIGkCLAAAAACSJsACAAAAIGkCLAAAAACSJsACAAAAIGkCLAAAAACSJsACAAAAIGkCLAAAAACSJsACAAAAIGkCLAAAAACSJsACAAAAIGkCLAAAAACSJsACAAAAIGkCLAAAAACSJsACAAAAIGkCLAAAAACSJsACAAAAIGkCLAAAAACSJsACAAAAIGkCLAAAAACSJsACAAAAIGkCLAAAAACSJsACAAAAIGkCLAAAAACSJsACAAAAIGkCLAAAAACSJsACAAAAIGkCLAAAAACSJsACAAAAIGkCLAAAAACSJsACAAAAIGkCLAAAAACSJsACAAAAIGkCLAAAAACSJsACAAAAIGkCLAAAAACSJsACAAAAIGkCLAAAAACSJsACAAAAIGkCLAAAAACSJsACAAAAIGkCLAAAAACSJsACAAAAIGkCLAAAAACSJsACAAAAIGkCLAAAAACSJsACAAAAIGkCLAAAAACSJsACAAAAIGkCLAAAAACSJsACAAAAIGkCLAAAAACSJsACAAAAIGkCLAAAAACSJsACAAAAIGkCLAAAAACSJsACAAAAIGkCLAAAAACSJsACAAAAIGkCLAAAAACSJsACAAAAIGkCLAAAAACSJsACAAAAIGkCLAAAAACSJsACAAAAIGkCLAAAAACSJsACAAAAIGkDhgBotc1bszhxyuOlWRc+qsX9u3UD4f7oe2e/sxxPHuUGose9/qWB2LgpMxANev9by/H8mfujTMObs3jti57X/eb8+8vx6IF7C1LkiQyU4p1/ezgy65Gm/N/+yqfxD/9fLwxEj/rirx6Mf/0PbzIQBfzVP/c0/qd/vGQgenkiOhDxB//k5hgYNBaNePE8jz/2+x4aiJLNnhmIP/DHhw1En/mF//xZ/P3/5rmBgAQpIQRa7smjPD752A6iZo2MVw1CD5s87vct6sgxY9XrRserwqsmLJyrxfKycSjb1Enf+vvRqTN+d0iVAAsoxeL5mkFYx4KO3jV5wsS4qKOT7oVeNzbtN27G3Ifese0wNeN53Y+OnRyI4c3KCCBFAiygFAKs5h0+Uo2qNV1PGt6cxYERr96ijkxUo2K4etqYXXZNmfvQ9quybd2WxYHDHkD9qFoNvc8gUZ7KQCkWz5tcN2tgMOLAiEVdL5o4XtUbrgEbh7LYbwHZ08anLRIbVa/5SNQOUzMDntd97NRpzyZIkVkhUIrLC7VY1nu5aaPjHs+9SPlg45QR9q5Nw1nsP+RZ16hLCzWnD7bB1EnPnn72+plBASYkyKwBKMXyUsTVi74QN0sfrN40ecLv2igBVu8an7YjsRnzygfbQv+r/rZ1W6bEGRIkwAJKo8SheQKsHnzhVvT7acbRYxaRvWpsyv3QDA3cy7dpOIuRMddnv5s944hUSG4+bQiAsuiD1bzRCRPnXnP4aDWGhm03adSRiUpU3A49SaDbuDyPuPCRd2vZjp10gAQRs2d8QIHUeDQDpVmY85W4WZu3ZLFrr0d0L1E+2JwNG7M4eNjY9SI7sBp382o9Hj3U/6psUycFF6ychLtjl7kYpMQdCZTm9o16PHlkot0sZYS9ZeK4BVHTiwg7dXrOrj0VC8MmzOl/1RbT+l8REVkWMfMl1wKkxMwBKE2eR1y0C6tpTiLsLZOvCWGapZF777H7qjkCrPJt2JjFEc8cvmv2tAALUmJ1BJRqQSP3pmkg2zu2bs9i736v3GbpldR7xqf9ps3QwL18E8erMSCz4Ltm3hiIAb3cIRlm00CpNHJvnkbuvePYa1ZD6zEyppF7r7EDq3F3P6nH3dt1A1Ey/a/4vI1DmXc4JESABZRq8Xwtcm2wmrJnXyWGNzu1rhdMHLdYX48NG7M4OGIMe0WWRRwV0Dfs/Pt2X7XD9Ixrk+93ymmEkAwBFlCqJ4/zuH3TF+NmF3mHlRH2hMkTJr/rpYywdxwarcbQsHC+UfP6X5VuYEB5Kz9s9owaQkiFAAso3aI+WE3TyL37VasRRyf9juulqXLvGBMQNEUD9/IdPVaNDRuFq3y//Ycqse+Q9zikwJ0IlG5xzqS7WaN2YPXEgmhwgwXRusdRgNUz7KZr3OOHedy8Zjdz2aZm7Jbl5WZP24UFKRBgAaWzA6t5o+MWet1O+WDr7oWq26EnjGvg3rD5j5b1k2wDDdx5ldnTrg1IgQALKN2VxVosLxmHZhw66jjvbqeBe2sMbog4OGose+F31NuvcXMf+hBU+qKoEjF5wrXJy02/PhBDm+ymho4/qw0BULblpYgrF02+mzEwEHHA6WtdTYDVOkrPut+RCTvpmqH/VflGxqtO/mXV+diJU74oQqcJsIC2UEbYvFHHzXet3XsrsXO3V22rHBVgdb3xKQvARj1/lseVBe/Qsk0rH2QNp864RqDTzKqBtlg87+txs0bHPKq7lXKU1nISYfdzAmHjFs7Voia/Kt2xk65NVjd7ZjAym/Sgo6yKgLawA6t5Grl3rwkN3Ft7L4wpP+t2Grg3Tvlg+bJMA3fWtn1nZk4GHSbAAtri9s16PH7oCKWmFu0TVV/8upQdWK01MBhx+Kgx7Vabt2SxZ7+pZ6M0cC/fgZFKbN3uRcvaZpURQkeZRQBtkecRF+dNwpsxvDmLXXs8rrvN4IYsRpy21nLKCLvX+LQwvlG1mh3M7TA9I5SgmNnTgwYBOsiKCGgbfbCap5F795mYVu5WhqMCrK41rv9Vwy7N1+LFc7uXy6Z8kEaeY3brQecIsIC2WfAVuWmj4x7X3Ub5YDnGnETYxb+dkKBR+l+1hwbuFJVlETNveJZBp1gRAW1z8Xwtch+Sm6IUrfto4F6Ow2PVGFDB0ZXGNHBvmP5X5du7v6JMn4bMnvESgk7xtAba5snjPG7fqBuIJjj1prtkmXKpsgwMRBw+Ymy7zZ79mmQ3Ks8jLnxkB1bZpvS/okGvf2lAiwDoEAEW0FbKCJuze18lhrdY/HWL/YcqsXWb36ss+mB1H4Fu465frsWTx7Ytl21K+SAN2jSc2WUNHSLAAtpqcc7X5GZkWcTIUZPsbjFpYluqI/pgdR29yxqnfLA97MCiGafOuG6gEwRYQFs5Drx5TiLsHhPH/VZlGrMDq+vYgdU4DdzLt31nFvsOWg7RuNnTAizoBE9soK2uLtZi6YVxaMbImEd2t3ACYbkOHdXIvasmmxV9/Jpx4SMffMo2/boQgibfQ0eqsXufeRm0fU5hCIB2Wl6OuLJoUt6MI3ZgdYXhzVkcHPVblWlgIOKwktqucfhoNTYO6QnXiE9u1ePuJw49KdvUSQEWzbMLC9pPgAW03eJ5ZRHNODhajQFzpeSNH69GZq1eOj2VuuiemPJbNUr5YHtMzbg2ad7sGVuBod0EWEDb6YPVnIGBsLOnC0welzK2g5MIu8eYAKthGriXb/OWLA55p7IOJ2arsWGjL1bQTgIsoO0EWM3TRyZ9+l+1xxEBVtfQwL1x83ZglW5qZsBuWdZlcEMWx2c936CdBFhA292+VY9HD3ID0YSRcY/tlGWZ3SbtcvhoNQY3WH2mbuNQFgdH3BONePQwj1vX9b8q29RJ1yXrd0oZIbSVlRDQERfn7MJqhh1YaTt8tBqbhoUq7VCtRowcNY1J3dHJalQ8thoy98Fy5L7xlG56Rrk36zd7xnUE7WTmB3TE4pzyiGaMjmsQnjLlg+11VCP35CkfbNy8/lel2ziU+SBES+zaU4nDR1xL0C4CLKAj9MFqzvDmLHbt9ehO1eQJX2LbSSP39DktsnFOICzfsZN2BtI6dmFB+1gFAR2xeL6mRKJJvhqna+K436ad7MBK35gdWA15/iyPKxd94Cnb1EmBA60jwIL2EWABHfH0SR4f39CkthkCrDRt3Z7FvoNeq+10aFQj99Tvid12jDbkwtla1OVXpZue8R6ldSZPDMTmrd5F0A5mFUDHKCNszqiTCJOdwNLmSUzV/ZCy8Wn3RKOUD5ZvcEPE0UnXJi18F1UiTn7RNQVtud8MAdApi+dN1JthB1aaNHDvDH2w0jU+5bdp1PkPfNgp28T0QAxuMA601uzpQYMAbSDAAjpmwQ6spuzaW4nhLbaqp0aA1RlHBFjJcgJhY5aXIy7Ney+WbUr5ICWYPTMQFStrKJ3bDOiYq4u1WHqhk3ujsixidMwEPCXVasSRCb9JJzjlLt3nlN1xjbk4V4sXz70Ty6aBO2XYvCWLMbtOoXQCLKBjarWIK4sauTdDGWFajkxWY8NGu+I64eBoNTYOGfvU7DtY0dS4QfP6X5W/8Kk6LZbynDqjjBBKf44bAqCTFvTBaorG1WnRwL2DE5lKxMiY+yE1+l81TgP38o0dE3hTntkz5gJQ+rzPEACd5CTC5owqV0vKpC/6HaVULT1jUxZyjcjziAtnvQ/LpnyQMo2MVWPnbstrKJM7DOgoAVZzDo5WY8BO9WRMaODeUQKs9OgF05hrl2rx9In+V2WbmhFgUZ4si5g97RqDMgmwgI765FY9Ht43aW9UtRpxaNQCMQW79lZ8ce2woxq5J/d8UubcmLkPfMwpW5Y5LZbyKSOEcpldAB130bHhTdHIPQ0WRJ13YERfm5SMjFdjcIPfoxH6X7XhuhyrxuYtrkvKdeLUQAxuMA5QFgEW0HGLGrk3ORn3CE/B5HFfWzs+manY8ZOSiWmhbqPmP/Ihp2xTM65LyrdxKItppapQ3pzPEACdpg9WczRyT2SxroF7Eo4es2BIxZiSzobcvlmP+3frBqJkGrjTLrNnNCmFsgiwgI5bPF+LXBusho2MVSNTDdFRgxuyGFHKmQSN3NMxNi0oaITywfY49prrkvY4pQ8WlEaABXTcp0/zuHXN1+dGDW/OYvc+j/FOGp+qxoB5ahIEWGkY2pTFgcOeS42Y+9Au5LIdGKnE9p2++NAee/ZX4sCI5yCUwZ0FJEEfrOZo5N5Zk68Z/5QWqEObLFA7bWzKztBG2YFVvmnlg7TZ7GllhFAGARaQhAV9sJoyMiZA6ST9r9KRZQLdFIxr4N6Qh/fy+Pi6HchlOybAos2UEUI5BFhAEhbnBFjNcPJa52RZxIQTCJNyVPPwjtPAvTF2X7WHEwhpt2MnB2J4s+2o0GpWPkASrl2sxYvnOrk3ykmEnbPvYCW2bjM5TYk+WJ03PuU3aIQAq3y79lRi915LHtqrWo147Qs+ckGreZoDSajVIi4vKKNo1O69ldi8VYjSCZMnTExTI8DqrJ27K7Fjt6llIzRwL9/0654LdMasMkJoObMMIBkauTdHH6zOmDhh3FOz/3AlNg0LdDtF/6vGPHuax7VLAqyyTel/RYfMnh50qAW0mAALSMZFfbCackQZYUdMauCeHI3cO0v/q8bMn61F3cbj0k3NCLDojK3bM70ZocUEWEAynETYnJExj/J2GxrO4uCoSWmKLBY6Z0z/q4bof1W+bTuy2H/IO5LOmT09aBCghTzRgWTc+bgeD+9r5N4oO07ab/J4NSreoEnSB6szsswOrEbNfeCjTdmmZgaUcNFRp/TBgpYy/QaSsjjni3SjDo1WY3CDcWinieMmpKmyA6szDoxUYkj/scKWlyIuXfC+K5v+V3Takclq7NhlyQ2t4m4CkrKojLDxB3k1lLO12aQG7snad7ASw5sFKe02PiUoaOhdN7ccSy+MQ9mmZzyr6awsi5h5w/MRWrbuMQRAUpN6AVZTlBG2dzLqtLW0f59RBxu0nXuiMXMfeteVbXhLFoePui7pvFllhNAyAiwgKYtztci1wWrY6JhJerscPlqNTUqlkqYPVvtp4N4YDdzLd+w1/a9Iw8kvDMSADAtaQoAFJOXZ0zxuXnOueKNGxz3O20X5YPoEWO01uCHsdGlAvR6xcNYOrLJNnXRNkoah4SyO6ccGLWHFAyRn8bwv040aHa/60twmE8ctilKnkXv7nz92FxR39WItPn1qq3HZpmdclKRj9rTrEVpBgAUkRx+sxg0NZ7Fnn0d6O0w6gTB5ew9UYvMWiW67jE+7Jxoxr/9V6TYOZXHETkwSMntm0CBAC1jtAMkRYDVH4+rybdmWxd6DXp2p08i9vcbseGuI/lflmzxRjarLkoQcOFyJfeYPsG7uIiA5Vy/V4vkz5RWNGtHIvXSaAncPfbDaZ1wD94bMfyTAKtuUfkMk6HVlhLBuAiwgOfVaxJVFu7AapZF7+fS/6h76YLXH5i12JTbi1vV6PLjnA03Zpmbc/6TnlDJCWDczDiBJyggbp2SqfJMCrK4hwGqPsSkHSDRC+WD5BgYjxqfsdCE90zMDMbTJAxPWQ4AFJGlBgNWwXXsqsWWbiVFZqlWhSDfZs68Sm7e6H8o2Pu2eaMScBu7lX5NTAzG4wTiQnoHBiBOnhKuwHgIsIEl2YDVHH6zyHJmoxoaNApFukWUrvxnlGrPTpSHzH9iBVTblg6RsVh8sWBcBFpCku7frcf9u3UA0aHTcxL0skydMOruNHXPlcwJhcQ/u5XH7lvda2TRwJ2WnfmRQ2TWsgwALSNbFObuwGiXAKs/ECWPbbZxEWK7d+yqxbYeVWFHn7b4qf2FTjZj0rCZh23dmdsvDep7zhgBI1aIAq2FOIiyPEwi7jwCrXONTxrcR8xq4l+7IRFWTbJI3e8YuQWiWlQ6QLH2wGndwpKp5bQl27K7Erj1emd1mz34HG5RpTIDVEA3cy6d8kG5w6sygQYAmmY0Dybo4V4u6diGNPdSrEYdGLSpbvih6zZh2K43cy2MHVnGfPs3j+mUBVunP6pOuSbrg2Tldja3bfVyBptY6hgBI1bNP87h51YS/UfpgtZ7ywe6lkXtJE8hKxBElmoXNf+iDTNmyzA4suudanfmiaxWamn8YAiBlyggbNyLAarkJJxB2LX2wynHoSDU2DtlBUNSc/ldtuSY3b3VN0h1mlRFCUwRYQNIEWI3TyL21BjdkdrV1MTuwyjE+bVwbIcAq3/SMa5LuMfPGQFRcstAwqxwgaU4ibNzoWDUyH6FbZmyqGgM2YHWt3XsrsVUj99bfF4LBwpZe5HHpgndZ2Y4pH6SLDG/JYvK4axYaJcACknbtUi2eP8sNRAOGhrPYs9/jvVUm9b/qekeELS1nB1ZxC+drsbxkHMqmgTvdZvaMAAsaZYUDJK1ej7i84Mt1o5S8tY4G7t1PH6zW2rAxc9ppA+Y/9A4r275Dldixy7KG7iLAgsZ50gPJ0wercQKs1pmwxb/rCbBaP556txSn/1X5ppUP0oUOH6nG7n2W49AIdwyQPAFW40YnrC5bYd+hSmzboX9St9PIvbXGpoxnUfVaxMI577CyKR+kW73+JeErNEKABSRPgNU4JxG2xuQJE8tesGtPJbbtFES2igCruCuLtXj2qT6OZZua8aymO506M2gQoAFWOEDy7n5Sj/t36waiATt3V2KLk9fWTQP33nFEWW3LTGjgXpjywfa87xxcQrc6caoaGzaar0FRnvZAV7g4ZxdWo/TBasFCXYDVM5QRtsbWbZmeLQ2Y08C9dNOvu7fpXoMbsjjuGobCzECArrCgjLBhAqz1GRrO4tARY9grNHJvjXG7rwrL84j5j+zAKtuUBu50uVllhFCYAAvoCvpgNW5kzEJzPSamq1HxluwZY3ZgtWYcp4QFRd26Vo9HD/S/Kpv+V3S7U2dcw1CUqTnQFS7N16KuDVZDRic84tdj8oTAo5fs2F2J7Rq5r9u4Bu6F6X9Vvq3bsjhw2LuO7rZrb8WObyjIEx/oCs8+zePGVbuwGnHwcDUGNxiHZk0c90W01xxRRrguWeYEwkYIsMo3NTMQmVyaHmAXFhQjwAK6hjLCBh/w1fBFbx0LdQ3ce48ywvXZe6ASm7dKC4rSwL18Uyfd0/SGWQEWFFvfGAKgWwiwGqeRe3MOHanGpmEL9V5jB9b62H1V3P079bjzsbr3sul/Ra+YPDHgAwEUIMACuoYAq3GjGrk3OZE0br1o/JjF7rrGT4BV2Hm7r0q3aThzWAm9syivRJz8oncUrHmvGAKgW1y/XIvnz5zo1AiN3JszqXywJ23bmWnkvg7j0xZXRc19oP9V2Y695qRYesvs6UGDAGswEwG6Rr0ecelCLaaVDBQ2MlaNLIvI5X6NLdQ1cO9ZR48NxHf+xZKBaFC1GjE6Li0oat4OrNJNnfScXst3/uVyfOefd/5597u+MRRDyvLX9PqXBqJSCaduwyo8+YGusnhegNWIoU1Z7D1QiY9vmA0VtWVbFvsPWaj3qqOTVQFWE0bGqjG4wQK0iCeP87h+RYBVNv2v1vb//Qcv4tv/rPPPuy/8qkFNygvOP8amqrFwzvMDXsUMHegq+mA1bnRCOVwjJk84lr2XHXUSYVM0cC9u/sNlu15LNrghcy8XsJDInOnse0pqizp1RhkhrEaABXTXZMxXqYZp5N4Y/a9625hFb3PjJsAqbE75YPnP6RPVGLChZ1V3btfj/p00dl+fE2AVZqcarE6ABXSV+3fTmZB1i9FxC89GTDiBsKdt25HFjt2mP41yAmFxcx9arJdN/6u1pfTB78piLR4/tC2xiJGxauz0joJXcncA3TcpU0bYEI2Xi6tW7dDpB37jxgxtyuLAiDEr4sXzPK4seEeVbeqk63HNuVJCAVaeC3aLyrKI108LaOFVrGqArqMPVmN27K7E1u2aOhUxOlGNDRuNVa87Omnx29B4HatGxYyxcGiwbJ1eqmo1YkKp99rX4tm0LkRlhMXNCrDglUxHgK4jwGqcMsJiLIr6wxEBVkPGp41XUfpflW9syoeGtSy9WCnbS8m599wbRb32hYEY3GAc4GUEWEDXuXShFnXzoIYIsIqZPO6rZ78sgGlgvJRcFqZMqnxTM57TReZJqe0EvH6lFg/v64NVxMahTJ83eAUBFtB1nj/L4/oVCVYjRpxEWMikBu59Yeu2LHbtMQUqyg6sYuo1O4TbwcJ+bQvn0gtS8zzi3PsC3qJOnRk0CPASZm9AV7o4Z5HQCI3c17ZjVyV27TVO/UIZYTHbd2ZOxCro0kItnj+zw6TUhUvFh4YiUmrg/nn6YBU3+yOCWnjpe8AQAF05OfOVuyEHRvQMWcux1yyK+olG7sWMT1tEFTWvfLB0I+PVGN7sXdatcyQBVnF791fiwGFLdfhB7gqgKynTaPBhX4k4dMQjfzUTvur3FX2dCo6TfmGFaeBevmnlg2u6c7se9+/Uk/zbbl2vx71E/7YUzSojhB9e0xgCoBtdv1yLZ0+VajRCI/fVaeDeX44KsAoZF2AVkucRFz6yu6Rsx066HteycDbtINVphMXNnjYvgR8kwAK6drFwacEkqBEaub/a4IYsRieMTz/Zsi2L3XqerSrLBH1F3bxaj0cPfVQp+3rUwH1tF86lHaRq5F7c1MxAbBpWMgufZ+YGdC1lhI05IqB5pbFj1RiwLuo7wpnVHThc0W+ooPMfWJSXfj2OVGLrdtfjWlJt4P6Zj37ZvVJUtRrx2hdMTuDzBFhA1xJgNWZkrBKZuf9LTRwXZPQjJxGubkwD98LmNHAv3fSM63EtSy8iri6mPTe6e7sen9zSB6uo2TOue/g8ARbQtRbOWTA0YuNQFvsOeuy/jGPZ+5NG7sanVeY/8kGlbMoH13bpwnIsd8HUyGmExZ06M+jjI3yOlQzQtR7cy51m0yCN3F9uwk6TvnT0WNXCYBUauBdz53Y97t72LiqbBu5ru3C2O4JUAVZxW7dndgvD5wiwgK6mjLAxIwKsH7LvYCW27ZRi9KPNW7LYpZH7Sw0MOvihqLkPvIfKtnd/JXbtca+uJfX+V5856yTChpxSRgi/wpsA6GoCrMbYgfXD9L/qb8rkXv2sGBg0DkXM639Vuin9r3pqTnT/bj1uXbdrsajZ0x7G8BkBFtDVFgRYDS5KPfZ/0OQJC6N+dlRpxkspHyxOA/fyTSkfXNOdj+tx/273hEJnv+O+KfyeOla1Uxy+y0oG6GqX5mtRl2EVtmNXJbbtMAn6PA3c+5veIi83NiXYLeLxwzxuXrOTpGx2YK3twrnumgzpg1VclkW8/oZdWBAhwAK63IvneVy/IsFqhL423zO0KYtDR4xHPxvTyP2lxqfdF0XMf7QceW4cyrR9pxN0i1g4212B0Ln33TuNmNUHCyJCgAX0wqRNGWFD9MH6nonj1ah4E/a14S1Z7NnnIvi+MdksMChq7kPvn7JNv27hXkS37cB69MAHyEbMfHEgBtwKIMACup9G7o0RYH2PBu5ErPQX4XvGpuxKK0r/q/JNnbRqX8vSizyuXey+udA5pxEWNjScxeRr7gUQYAFdT4DVGAHW90weNxlEgPWDlA8W8/xZHlcWvH/KNjXjelzLxflaLHdhlqoPVmNOKSMEARbQ/W5cqcWzpxopFLX/cCU2bLS9Isss1FnhJMLvNybQK2ThXC1q8qtSbd6SxaFR12ORa7EbndcHqyGzpzVyBwEW0PXyfOXrIwUf/JWIw0c8/g+NVmN4iyCPlR1YSua+xwmExSgfLN/UzIB7s4ALZ7tzDvTkcR5XFs3fijowUtGfEOsYQwD0AmWEjVFGGDFxwhiwYtNwFnsPmBJFROzaW4ntOyUGRWjgXr6pk57TRSyc794wVRlhY17/kg8M9DezNaAnLM5ZSDRidMKiQAN3Pk8Z4YrxKeNQRK3mw0k7TM9YrK/lk1v1eHive+vwzgqwGjJ7Rhkh/U2ABfSExfMmQI2wA0sD90cP8vjrf+nT+OV/vuSGCI3cPzMmwCrk0nwtXjzXvKdMQ5sy76oCFro8SJ37sBZ1WXBhx18fiI1DdsnSvwRYQE94cC+Pu7frBqKgw0crfd1XZPPWLPYf7u9X4PxHy/FP/t6L+J/+kQArwg6szzjYoOii20eTsk2+Vo2Ky3FNF85297X47Gkely5IsIoaGIw4ccrORPqXAAvoGco5its4lMX+Q/37Cpg8oTHwZ/eLhcOKo5MauWdZxBHlxYXMfSDAKtvUSYv0Irr1BMLP0werMbNn3Bv0LwEW0DsLcn2wGtLPpRmT+l/9SoD1ya16PHqoFGpoOOv7050OHanG0CalKWvJ8+499a2bTM94Tq9l6UUe1y52/7WoD1ZjTp3xEY7+JcACem5BTjEjY/27OOj3Ewjr9YiL89+7Xy7bhRURygg1cC/m+uVaPHks9C3T4IaIo5N2mazl4nwtlnsg+5n/qBbLqtkL27GrEoePel7TnwRYQM+4dEEj0Eb060mElWrEWJ837L5+uRbPn+Xfd++gkbsG7sXMfeh+KdvE9EAMbjAOa+mF8sGIiBfP81icswurEaeUEdKnBFhAz3jxPI9rly0siurXEsLR8Wrfn+Dzg6dW2YG1QoAlwCpCA/fyTSkfLKSXSlnPvec91IjZM4MGgb4kwAJ6ijLC4rbvzGLbjv4LcvS/+uH75PPlhP3syET/NnIf3JApSSkaGnzkfimbBu7FLJzvnTBVI/fGjE9XY8s2jbDoPwIsoKcX5qyuH3dhTZywMPrB++Tu7Xo8eqCnz9Cm/j2d8+hkNaryqzV9cqsedz+pG4gyFyfViAkfGgpdiw/v9c5z+8K55Vh64T1U+D6pRMy8YT5DH177hgDoJb30NbId+jHAmuzzBu7PPs3jxpUfDnr1wVrRr2WE49MCgyKUD5Zv7Jgy70LznXO99cxeXnK6Z6OUEdKPBFhAT7l5tR5Pn/iCV9RInwVYO3ZVYvfe/n71LZ6vRf6SW+SSMsKI6N+TCPv9YIOiNHAvn/LBYi6c670w9dz7AuJGvP7GQFQ8uukzAiygp+S5htSN6LcdWP2++yri1WW2dmCt6NsAyw6sQubtwCrd1IwAq4iFHtytdPY77q9GDG/JYmLa/UJ/EWABvTep0wersP2HKn1VqqGvyqvvD43cVxyZrEalz2ZHm7dmsWefKeFaHj3M49Z1/a/KlGU+NBSx9CKPqxd775m9OFeLZ5/aRd+IU2cEWPQXsxWg9yZAAqziL4FKxOGj/fMqmNTAPS7OvfwL9/079Xhwz8Jh41D/NXKfmO7f0xcbMffB8kvLb2mdw0ersXmLi3Ht53gtaj041anXnPLZqNkfMa+hz9YuhgDoNQvnbEFvRL+UEQ4MRhyZ6O8v+5/cqsfD+69egSsjXNFvjdzHpiyAipjX/6p00zN2XxVx4VzvXotn3zOHa8ThI9XYbQctfcTVDvScRw/yuHNbmUdRI2P9sWAYOzYQA31+YM9a5bUaua/otz5YTiAs5rz+V6XTwL3gs7yHAyyN3Bv3+pfcN/QPARbQk5QRFtcvO7D0VVn7vrg0b+EQ0X87sI46gXBNz5/1Zs+h1BwTYBWycL53n9WXL9ScJt2gU2cGDQJ9Q4AF9OVCne8ZGav0RdNqDdwjFtdY9GjkvuLIRP80ct97oBJbt+k5tJb5j2pRd3uU6sDhSmzf6Vpcy+1b9XjYw/0K6/WIObsdG3LiVDU2bHTv0B8EWEBfLtT5ng0bs9jXB02rJ4/395f95eWIK4urr8Af3s/j/h3ltxs2ZnFgpD8Cz/EpwW4RFtTlm5qx+6qIhbO9n6See09a3IjBDVkcf92znP4gwAJ60qUL9Z48oacsvV5GuPdAJbb1+Zf9K4u1WHqx9v9nF9aKfumDNSbAKmROA/fS6X9VTD8cVHP2OwLjRs0qI6RPCLCAnrT0Io9r+pUUNtrjjdwnlQ/GYsGmv04iXNE/AZbQYC3Lyw44aIcpJxAW0ssnEH7m2qVaPH6oD1YjTp3xLKc/CLCA3l2wz1lwFNXrO7AmTpjYFW36a6G+oh8am1eqEUcmTAXXcnGuFi+eW0yXadeeSuze61pcy4vn/XGYQJ5HnP/ALqyG7qG9lTh0RAhM7/OmAHp4wW4hXtSRHt9t4gTC4gcbCLBWjI5XotLjl83IUY1/i5jX/6p00/r3FHJxvn8OEzj3nvuuUbOnfayj9wmwgB5esJv8FLV1e9azPaI2DmVxuM+/Sj55lMcnt4o1Z3/0MI+7tzVy37Axi4M93shd/6tiNHAvn/5XxfRDA/fPnBVgNUwZIf1AgAX0rFvX6vH0sbKPonq1jHB8utrzO2nWXPScq0XewK2gkfuKXu+D5QTCteV5xIWz7oeyOYGwmH7of/WZm1fr8fCeOVwjJl8biM1b7KqltwmwgJ5eeFiIF9erAZbyweL9rz5zWSP3iOj9AGts2r2xlmuXavH0iUV0mbZuz2L/IUuSIvppZ3meR5x93y6shhb2lYiTXxQG0+PXuSEAenuyZyFeVO8GWCZzjd4HTiJc0cuN3DcO9X6JZCvMfeBeKNv06wOR2TSypts36/Hwfn+FqfpgNW72zKBBoKcJsIDeXrg7ibCwXgywsmylhLCfNbMT8eJcYyWHvXxPVHv08hk7Vo2KWeCa9L8qn/5XxfRjKasAq3Gvf2nAs52e5vIGeppG7sXtP1SJjUO99Rn84Gi17/tB3GyiF9yTx3nc+Vgj98ENK9dQL9LAvZj5j3wEKdv0jGuxiIVz/Tef+fhGPe44VKQhW7Zlnu/0NAEW0NMePbAQLyrLIg4f7a3XwsRxk7hmQ1xlhCt6tYzQAqfY4vn+Xe+PMg1vyeLwUddiEQvn+vOZfF4frIbNnlZGSO8SYAG9P+nTB6uwXisjnBRgNd0HToC1olcbuTuBcG3KB8t37DX9r4p4/iyPq5f685l87j3vokbNnlGWS+8SYAEW8PyKnguwNHBv+qv9JSd4RkRvBljbdmaxa68p4FrmP3QPlG3qpCC1iIvztaj36eV49juC5Gbmcjt2e8bTm1zZQM/TB6uxSU+vGN6Sxf7D/f2ae/E8j2uXm9+BpZF7xMhY7zVyH58S7BZhB1b5pmdci4XmMef6N0y9+0k9bt9SytuILFtp5g69SIAF9LzLC7VYtg4puFiv9MzpNZMnqn1fmnJpHV/tnz7O4xOLhhjcEHHoSG8lWMoH1/bwXh4f33D9l2njUBZHJl2LRVw419+7Ac/ZhdWwU8oI6VECLKDnLb2IuHZJKUixxXoW+w/1xqth8rjJ23r7v11URhgRvdfIXQP3tdl91YZn9Ine291Yln7fSX72Pfdjo177wkAM6OVODxJgAX0y+bMQL6pXyggnT1gZrfe6v6yRe0T0Vh+sLIsYO+beWIsAq3xTJ31kKOL2zXo8vN/f9dzn3ltW0t6gjUOZEl16kgALsJDn+4z0QIBVqdpl0orr3g6sFb0UYO0/VInhLY59W8ucBu6lm5rxjC7iwlnX4oN7edy6pqS3UbOnBVj0HgEW0CcLeV/Ti+qFHVijY9XYONTfi/T7d+tx7876Jvwaua8YGa/GQI+sAwS7a3v2NFd2XrKBQYcJFLVwzvwlIuLc+8ahUad+lRpCeo8AC+gLt67X4+ljK/Eijkx0/wJ3QvlgLLSg6e+zpxpZR0QMDEQcOtob19SY0GBN82drUXfZl2p8aiAGNxiHdj3Le4E+WI3bu7/SM31N4TOuaKAv5LlyqKK2bs9i+87u3r2kgXvrymYvuW8ionfKCJ1AuDb9r8qnfLCY58/yuGo3YEREnP2OPljNmD1jFxa9RYAFWNDzQ7q9jFAD9/WfQPiZSxq5R0RvBFgDA71zSEOZ5j5wzZdNA/diLs7Xou5yjIiIJ4+U9jbj1Bn3Gr1FgAX00YLeV/WiRru4jHDHrkrs3tffr7d6vXUnCNq5uOJoD5zcNzpedaz6GpaXIi5d8K4odfFR9ZGh8LxFA/fvc04ZYcOmZgZi07CDO+ihd4ghAPrFRTuwGlrodquJ4xZG1y7V4vmz1tRaXNbIPSIiDh/t/vBnbNq9sZbFueVYemEcynRkohpDmyyoi7ig/9X3Ofe+8WhUtRrx2hfswqJ3CLCAvvHoYR63b+nMW0Q3B1i+7Le26e/zZ3ncdHx5DAyshFjdbOyYe2Mtcx9aIJdN+WBxF+fsOPq88+8vO2ChCbOn3XP0DgEW0Ff0wSpm38FKbBzqzi/kkydM1Fp9nWvkvqLb+2CNO4FwTRq4l2/qpCC1iI9v1OPhfdtfP+/pkzyuLHofNWr29GBkNj3SIwRYgIU9PyTLIkbGuu8VMTC4Up7iOm/tIlwj9xXdHGBtGs5i/2HTvtXU63oOtePdYgdWMQvKB1/q7HeEzI3atjMzN6JnmMkAFva8VDeWER6d1KT606etL/mzA+u711cXl+CNTVV9gV/D1cVafPrUjpcyHTpSjc1bXYhFXDhrvvIyGrk3Z9ZphPQIARbQVy4v1GJ5yTgUMdKFAZbywZVdhq1uun55wVHuESs9sAY3dOffPj7l6/talA+Wb3rGdViUHVivuk9rUTM0DZs94whaeoMAC+gry0sRVy+a+RTRjTuwnEBYTpnsi+d53LjmvqlWu7eR+5gAq9DCmHIdUz5YyPNneVy77Hp81djYFdzEO+BYNbbtsPuR7ifAAizweamRo5WodNma1w6siIWSymQvWzBERPf2wRJgrU3JVvk0cC/m4pxdr6s5q4ywYVkWMfMlu7DofgIsoO8sOpa6kMENWew/1D2vib37K7F9p6+LF+fKWfVo5L6iG/tg7dpTiR27TPlWc+t6PR7c0/+qTPsOuQ6LuqB8cFX6YDXn1Gkf+eh+3iJA37EDq7huKiOcOOHL/u2b9Xj0oJxF+EU7sCJipQyj6/5mu6/WpP9V+aaVDxa2YDfgquY/0s+0GTNvDETV64AuJ8AC+s7HN+rx5JEv7UV0VYB13OKozHD2yqLGuRERh0arMbihu3b6CbDWpv9V+ZQPFpPnPrStZelF7lTpJgwNZ3HsNXMlupsAC+jLyaHdJMV0U4A1aQdWaf2vVhYMETeuuG8q1YiRse6aPjmBcG3zH1gMl21qxsK5iNs36vHooY9sazn7nvdRM2bPuA/p8nmYIQD6ka+bxYxOdMfCd+NQFiNHLdIXS+6b4uSnFd1URphl3dt4vl0e3Mvj9q26gSjRzt2V2LPfsqOIC+eEqUVo5N6c2TMaudPdvEmA/lzo23peyNZtWVc03R2frnbdiYmttrwUceViyQGWRu4REXGkiwKhg6PVGBp2uMFqztt9VbqpGSFqUQsauBebx51bjufP7FRr+J0wUom9B0QAdC9XL9CfE8TztcjNewoZnUj/VaF8MOLyQvlNbe3AWtFNO5qUD65tXgP30k1p4F7YhbOes0UsLwv7mvW60wjpYgIsoC89eZTHJ0pGCumGPlgauLdnV+GVixq5R0QcOlKNDRu7Y1eTBu5r08C9fNP6XxXy/Fke1/UaLOycMsKmnDqtjJDuJcAC+njBb5JYxOhY2gvgLIuYOG6R3o7reXkp4tol902l0j2N3O3AWt3TJ7lrumRbtmVxYMSSo+hzvO5yLEwfrOYcnx2IjUNKy+nSOZghAPrVgj5YhaS+A+vASCU2bzERW2hTIKuMcMXRLmjkPrgh4vCYAGs18x8pJy/b9MxAZB7RxZ7jSuIacnG+Fs+euoEbNTC4EmJBNxJgAX3LDqxi9h6sJN0EelL5YDx62L6SWI3cV3RDH6wjE9Woyq9WNaeBe+mOnXQRFrXgBMKG1GsRcx95JzXj1BlzJ7qTAAvoW1cWy2963QuyLGLkaLqviwkN3Nu66LEDa0U37MAan7JAWcucBu6lm9bAvZA892GtGfpgNefUj9gZSXcSYAF9a3lppSk1a0u5jHDyhMVROxc91y4JfiMiDo5Uk+8hooH76pZe5HHZjsJSDQ1nMTLuOizi9o16PHqoHK5RAqzm7NhVicNH3Zt0HwEWYOHPmkYS7aMzvCWLA4e9ytp5HS8va+QesdLIfXQ87WtPgLW6hfO1WLb2LdXUa9WoeEQXckH5YFOuLNbi6WPBXzOUEdKV8y9DAPT3wt+EsYhUd2BNHq/2/Rb4PG9/Wd9FZYQREXEk4T5Ym7dksfeAad5q5j90HZdtSvlgYRq4N6dejzivl11TZs8MGgS6jpkN0NfswCrm8NFqVBJcq09o4B43r9bj6ZP2fn3WyH1Fyo3cx6eFu2vR/6p8UzOe0UVdOOu52qxz7xu7Zt8TW7Z5UdBdBFhAX7t9sx6P9ZxY0+CGiAOH01usT2rg3pFTq/QNWjF2LN3F+fi0e2M19ZodL+W/N7KuOOwgBc+f5XH9iuuxWWe/I4xuKgioRMy8IWSmy65bQwD0szxXDlVUav1+KhWL9IjO7CK8dqkWSy8EvwdGKjG0Kc2v1ymHaym4sliLZ5+6hss0eaIaAy7Dws/xuqlI065frsWjB+7nZigjpNsIsAATR32wCkmtkfvIWPqnwLXDQgcCrFot4urFet+PfZale8CBBu6rUz5YPv2vGniO2w24Lnkecf5993QzXn9jIMkWEfAqAizAxFEfrEKOTKQ1w1E+2NmyE32wVowlWCK1Z38ltm4X7q5mTgP30k2d9IwuygmE63f2PWPYjOEtWUxMC5vpHgIsoO9dPF+L3M7zNaUWYGngvhIidarsRID13fsiwUbu43ZfrSrPI+Y/stgtU7UaMXHcdVj0enSgzPqdswOraafOmE/RPQRYQN978jiP2zeUQ61l89Ysdu5O57VhB1Zny04u6R0XEWnuwFI+uLpb1+r65bThGtyw0S7AIj6+4TCZVrh5tR7375jLNWNWgEUXEWABhDLColJp5L5tRxZ79nuFdfKr/fXLtXj+zKJr/+FKDA2ntVB3uMHq9L8q39SMBXHh+cdZ12OrnP/AXK4Zh49WY/decyq6gysVICIW50wgixhNpIzw2GsWRyvXbecm6/V6xLVLvnZnWcToeDqBUaWS1t+TIgFW+TRwL+6CBu4tow9W814/7Z6lOwiwAGKlDxZrS+XENb1VIu5+0vlyiYvKCCMirTLCw0edzrkWDdxLXlxUlHg3wgmErXPuOwKsZs2eGTQIdMc7xhAARFxZrMXyknFYSyo7OyZP+FKYQtNfjdxXHE2okbsG7qu7d6cedz62c7BMI+PVGN4sRC3i2ad5XL/sOdoqt2+5v5v12il96+gOAiyAiFheXgmxWN3eA53v9zMwmN6JiJ2QRIBlB1ZEpHUSoQbuq5vTI6d008oHC7s4V4u6vKWlnEbYnMENWUzPeH+QPgEWQEKBQOqyLGLkaGcnOEcmqjG4wW+RQtnJjSsauUdE7D9UiU2JNHIXYK1O/6vyHTvpGizqwlnzjlY7954xbZYyQrqBAAvgs0DgvIVNEaMTnX11KB+MqNfS2DGY53YuRqwEuynsCtywMYtDo8KD1eh/Vf69oIF7A/OOc+YdrfaRPlhN+8KPuHdJnwAL4LvswCpmtMON3DUHjrh6MZ2dTxq5r0ihjPDosWpU3B6v9ORxHjeuuF7LdGCkElu366NTRJ539iTZXnX/Tj0+vqEusxm79lbi4Kh4gLS5QgG+6/bNejx6oBxqLZ1u5D4xbYWe0qLnsgArIlbCo07TwH118x8uR+4RX6rpGTs4irp1vR6PH7ogy3D2PbuwmnVKGSGJE2ABfI7dJGs7fLQa1Q6tk3fvq8SO3V5dCwntFrzoJMKIiBibFGClTvlg+ZQPNvAcVz5YmnMCrKbNnnEPkzarAIDPWdQHa00DgxEHDndmoax88LvXaUILn1vX6vHsqV0Eew9WYnhzZ0unxuxOXJUG7uXTwL24BQ3cS3P2O3ZbNn0Pnxjo+LsMViPAAvh8MKAPViGj4515fUwe92Xw6ZM8bl1Pp79Hnkdc1sh9pZF7B3dhbd2exe69pnWv8uJ5HlcWXKdl2ru/Erv2uAaLunDO9ViWRw/yuHlVH6ymwoFqxMkvmmuR8DVqCAC+Z/F8zVe7AkYn7MByjX7PJaW3ERFxtIMB1vi0BcdqFs7VYtkGrFJN6X9V2LNPHShQNn2wmqeMkJQJsAA+5+mT3Ok1BXSikfvGoSxGxgRYKe4SFGCt6OQOLP2vVqf/VfmmlA829Byvm2qUSh+s5r1+ejAyVYQkSoAF0AUBQWo6EWCNTVWjYn2UZJ+2Sxq5r1yjHTyJcEyAtSr9r8pnB1ZxC8oHS3fuPX2wmrV1W+adQrIEWABdEBCkZvPWrO29TpQPrvSbWpxLb+Hz8Y16PH1ipbBnfyU2b2n/Z+ss62x4lrp6zYeJsm3fmcW+g5YVRV04a55RtieP87h2yX3frFNnBg0CSfKmAfgBCxY6hYy0eReWBu4Rt2/W4/HD9IKiPI+4bBdWZFln+sPtPViJzVvVe7zKpYVaPH8mYC3T9Ouez408L1P8ENGLzn5HUNis2dPuadIkwAL4AVcXa7H0wmJnLe08iTDLIsan7TBJuexEGeGKTuyE0v9qdfPKB0s3ddJit6hb1+rx5JE5Rjucfc97qek53kQ1duwWFZAeVyXAD6jVIq4s6q665uSmjTuw9h+uxJZtdpgszqW7ELcDa0UnTiIcnxIerEYD9/JNzQhRi7pwTqDatnv/g2XN8puUZRGvv+HdQnoEWAAvsaAP1praGWBNnjCJiki7j89FJxFGRMTRY5054ICXy/OICx95npdp85YsDo26Bgs/xzVwb5tPn+Y+rqzD7BlzL9IjwALosqAgFXv2V2LTcHt2RU0etzhaXoq4ejHd6/KTW8piIiJ272tvP6pqtb3lvN3mxpVaPHrouizT1MxAZDbIFnZBgNVW594XYDfr5BcHYkAvdxJjxgPwEgKstWVZxMhYe4IlO7AiLi/UYnkp3b8vz1f+RvdFe8sIR8arMbhBevAqygfLN3XSB4ainn2ax40rrsl2OvueAKtZG4cy/e1IjgAL4CU+uVWPh/d9tV9LO3Z+DG/O4sCI19VCF/RNuaSMMCLaW0aogfvq5jRwL930jAVuUYvna3oytfsZ8EEtlj0GmqaMkNRYEQC8gp4+axtpQx+sieNV5SnRHbsCnUS4op07sPS/Wt38R67JMm0cytraD7HbLSgfbLsXz/O4OGfcm/WFH1FDSFoEWACvDAx8sltLOxYuyge/u/DpggBL6LuinQGWEwhf7c7tety9bbtLmY6drEZFflXYhbPmFZ1wThlh0/YeqMS+QyID0uFqBHgFfbDWdvhINaolL14mT1gdPXqQx52P01+I3/m4rmF2rDRy37qt/G2DQ5uU165m7gPP8LLpj1NcnptXdIpG7utz6rRdWKTDrAfgFRbP1yK3Fl/VwGDEwRKPT69UIsaOCbC6of/VZxxZvuJIG3ZhjU0pr13NvP5XpZue8Xwu6ta1ejx5bFLRCRfOLsfSC+PQLH2wSIkAC+AVPn2ax61ryk/WUmYZ4eGj1RgatkLvpq/2GrmvaEcZ4fi08GA1GriXa2Aw4uikhW1RF865Hjtl6UXEgrYQTZuaGYihTeZipEGABbBacDBnwrOWkbHyXiXKB1csdFOAZQdWRLRpB5bdia/0+GEeN32AKNXE9EAMbjAOhZ/jGrh3lD5YzRsYiHjtC8Jq0iDAAliFfhVrK3MH1sRxE6Y8767m6HZgrWhHuDTuBMJXmv9oWQl4yaaUDzZk4axnYyed/Y7xXw9lhKRCgAWwCgHW2kYnylvETL5mgXT9Si2ePe2elfjdT+rx8J7kYNfeSmzdXl7JxfadWezYbRr3KnMfenaXTQP34p49zePGVddkJ12cW47nz7ybmjV7elDPRZJg5gOwiqsXa7H0woRnNZu3ZLFrb+tfJ1u3Z7F3v9dUN4aolxYs1CLK7YNld+Lq9L8qeQFRjZg47gNDUQvna1FX0dpRy8sRF+yCa9r2nVmpHyyh8PvHEAC8Wq0WcXnBrHMtZZQRHnvNAj2iSwMsZYQREXG0xDJC/a9e7fmzPK4IUcu9tiermjo3QP+rNJzVB2tdZk+bl9F5AiyANSw6uWZNo+Otf534ut+9Cx+N3L+3yC+LEwhf7cLZWtRcgqWanrGQbeiadAJhEjRyX59TZwYNAh0nwAJYgz5YaxsZa/1ievKEBdKzT/O4cUWA1a3K2oGVZe055bBbKR8s37GTrr+i8jzionlEGu+m+Vo8faItRLPGpqqxbYedl3SWAAtgDQsmnmtqdV+EgcFyd69002S7G/um3L9TjwcaucfO3ZXYtrP1k/0DI5UY3mwR8SrzGriXKsuUeDfi5rV6PHnseZiCej1i/iPPh/Xc+zNv2IVFZwmwANZw5+N6PLxv8rmaPftau6A+MlGNwQ3GtZt3/12ctwsmIuJoCU1vx6eEB69Sq0Uszlmglunw0Wps3iJALWrhrGdhSpQRrs/sGe8fOkuABVDA4pwJz2qyLOJwC8sIlQ9+d+HTxQHWZWWEEVFOGeHYlN2Jr3JpvhYvnvvgUKbpGddfIy5o4J4UAdb6zLwxEFWPADpIgAVQgD5Ya2tlI3cN3Fdc7OKdJE4iXFFGKey4AOuV9L8q39RJHxga4QTCtFxZrMXjh0LuZm0azpQQ01ECLIACBFhrGx1v4Q4sAVbcuV2P+3frXfv3XxRgRUTrd2ANDK6UcPFycx8IsMp2TIBV2LOn3XkQRy/Lc0H3eikjpJMEWABFFuNztch9sFtVqwKs3XsrsWO311O3h6YP7+dx706973/HHbsqsX1na/vDDeih+8qF6YWzwoIyHTjc2uu51y2cN3dIkTLC9Zk94yVE51ghABTw6dM8bl6zGF/NoSPVGGjBR7nJE3aXRPTGrj9lhCtaWUao/9WrXb9cc9pbyaZm7LxohEA1TWff87usx8GRSuw9IEagM1x5AAUtnvfFbjUDAxEHRta/uJ7QwL1nrrdLGrlHRMTRY627pp1A+GpzH7reyqb/VWMWzpk3pOjGlZrTpdfp9dOeBXSGAAugIH2w1jY6sf4Ayw6siFot4tKF7t/xZwfWilb2wdLA/dX0tSnflBMIC8vziMU5z8BUf5tz73terMep08oI6QwBFkBBAqy1jY6t77WyYWMWo2MWSFcv1mLpRfd/HdbIfcVYi0oIN2/JYu9BU7dXufCR661Mu/ZUYvde119RN6/W46mS1mTpg7U+x2cHYuOQfni0n7cQQEFXL9Xi+TOT0dWst5H7+FQ1KvKrnjl2/fHDPO7e1jtu284sduxa/5RrbKoamfXCS31yqx53P3GtlWn6dQ/nRlxQPpg0Adb6DAyuhFjQbgIsgILqtYgri77wr2Z0Yn0LbOWDK3qp35pdWCtaUUaogfurKR8sn/5XjVnQwD1pt67XnZS7TqfOeCbQfgIsgAYoI1zd8OYsdu1p/tWigXvvXWeXNXKPiNacRCjAejUN3MvnBMLGLJgvJO+c0wjXZfbMgF3BtJ0AC8CEtKWabeSeZRET0xboTx7n8fGN3vkqbAfWilYEWE4gfLV5O7BKtXV7FvsPWTYU9enTPG5c8exLnUbu67NzdyUOHzVvo728iQAaYAfW2kbHm3u17D9UiS3bfMq7eL4WeQ+1Wrs031v/nmatt4Rw995KbNvh/niZRw/zuHVdKVCZpl+306LRuYLnXvo++mUB1nrNKiOkzQRYAA24e7se9+9aKK1mpMlTBCeVD0ZE7+3ye/I4jzsfu2e27chi5+7mp13jdie+0twHy8KCkul/1ZgL+l91zZzuk1veT+sxe3rQINBWAiyABl2cMzFdTbMnEU4ct0CPiFg433tfhC8pI4yI9e3C0v/q1fS/Kt/0jOuvoee4Ewi7htMI12fieDU2b7U9k/YRYAE0SIC1ut37KjG8pfHJjBMII/K8N6+vSxq5R8T6+mCNC7BeyQmE5do0nMWhI66/Rp7ji+YJXUOAtT6VSsTMG3Zo0j6uNoAGaeS+uiyLGDlajfMfFJ8UDm/O4uCoBdLtG/V48qj3aqE0cl/R7A6sSiXiyKT742WefZrH1YuurzJNnaxGxSfvwmq1iJ/+d4YNRJcY2mT30HrNnh6Mf/5PlgwEbSHAAmh0MT630pxVQ9tXOzLRWIA1frxqPKN3w9HPGrn3+2881mSAdehINTYOuUFe5sLZWtTlV6WamrFcaGhxNRDx2heMGf3j9dMDUamGZzFt4XsKQIOefZrHzauafq5mpMGTCCePm+xHRCye781Shk+f5nH7pntmy7Ysdu1tfOql/9WrKR8s37QAC1jF5i1ZTDhohDYRYAE0YeG8RdNqGm3krv/Vd6+rc737+VIj9xXN9MESYL2aBu7l2jiUKV8F1uQ0QtpFgAXQhEV9sFZ1cLQaAwU/2lcqGlRHRCy9iLh2qYcDLI3cI6K5AMuX7ZdbXnKoRtkmT1Sj6vID1jB7xk5N2kOABdAEAdbqBgaicFP2Q0eqMTSsv8+lC7VYXu7tfx+NN3LfsDGLQw44eKmL87VYepEbiBJNnbQoBdY2MlaN3XtFC5TPVQbQhGuXavH8mYXTaoqWESofXLHY42Wply6sNHLvd402cj86WY2KW+Sl5vW/Kt3UjIsPKGbmSwJvyifAAmhCvR5xecGOktUUbeQ+ecKEJ6L3d/U9e5rHresauW/emsXufcWnX/pfvZoG7uUaGIwYn/J8BopRRkg7CLAAmqSMcHV2YDVmoQ+up8vKCCOisT5YAqyXy/OIC2ddT2UanxqIwQ3GASjm5BcGYnCDlhCUS4AF0CQB1upGx6uRrTGP2bo9i70HvIoe3Mvj7u3e352kD9aKRgIsBxy83LVLtXj6RE1qmZQPAo0Y3JDF9OueG5TLqgGgSQKs1Q1vzmLXGg09lQ9+di31RynUxXn3TETxRu5bt2WxZ7+p2suc/8C1VDYN3IFGnTo9aBAolVkRQJPuflKP+3f19FnNWmWEygdXLPRJGHr5Qi3qbpk4emzt3YkREWPT7o9X0f+q5AVC1fMZaJw+WJT+fjIEAM27OGcXwGoEWMX0y26+5880co+I2LylWCN3DbRf7cJHnr1lOjJRjaFNetkAjdmzvxIHR0QMlMfVBbAOC8oIVzW6ykmE1WpjvYB6VZ73V2+oS8oII6JYGaH+Vy/38Q27X8umfBBo1uwZZYSUR4AFsA76YK1udOLVC/Ajk1Wn1cRKM+pnT/unGbVG7ivWCm+zzAmEr6J8sHxTJ117QHOUEVImARbAehbj83r6rGb33kps3vLykEoD9xX9FoJemhc+RESMrbEDa++BSmzeKuB9mfkPhaBlyjI7sIDmTb02EMObvb8ohwALYB2efZrHjasWU6sZeUUfrMnjvvBH9F+AdXmhHnW3TByZWL2Ru91Xr2YHVrkOHakKT4GmVaoRr31RCE5J15chAFgfZYSre1Uj9wkN3Pvy+nnxPI8b19wzw1uy2LP/1dMwAdbLPbyXx8c3bHstk/JBYL1OnRZgUQ4BFsA6CbBWNzr2w6+aXXsrsXO3V1C/7uDTyH3FamWETiB8Obuvyqd8EFiv188MrrrLGJpl9QCwTgKs1b2skfuk3VcREXFxrj97qGnkvuLIKxq5V6sRRyZM0V5GgFW+qRnPZ2B9tm7L1uz1CM0wOwJYp+uXa/H8WW4gXuHgaDUGfuBE5cnjvvBHRCz0afhpB9aKV51EeHjMCZ2vMqeBe6n2HazEjl2WB8D6zZ4ZNAi0nDcUwDrV63aUrKZajTg0+v0LdTuwVvTr7r0ri7WouWXi6LGXN3If1//qpZ49zePaJRdOmaZmfFwAWmP2jOcJrSfAAmgBZYSr+3wj98EN2StPJuy762auP8uhll5E3Ljintk0nMXegz88FdPA/eXmz/ZnyW07aeAOtMqRiaodnbScKwqgBQRYqxv5XCP38alqVK2R4s7H9Xh4r39LTy8qI4yIl5cR2oH1cvpflc8OLKBVsixi5kueKbSWAAugBQRYq/t8I/fJ1yzOIyIWzvX3NaMP1oofDLCGNmVxYMQ98jJzH7hmyrRjdyX27rc0AFpn9rQAi9bylgJogXt36nH/jtqWVzky/r1ePxPHLc4jhJ6X9Y2LiJU+WD/43xWzsx+yvBRx6YIdWGWadvog0GIzbwz80EE+sB6mSAAtsjhnQf4qQ8NZ7N5XiSyLmHACYURELJzv78X4lYu1WJZHxNGJ72/krnzwFc/X88ux9MI4lGnqpGcz0Fobh7I49ppnC60jwAJo2QJLgLWa0fFq7DtYia3bsr4fi1ot4spif+/YW16KuO5EuRgazmL/oe9NxzRwf7m5D10rZZvW/woowSmnEdJCAiyAFhFgrW5qphqzZ+wjj4i4uliLpRd534/DJWWEERFx5HN9sARYLzf3ke16Zdq6LYsDI5YFQOuZ+9FK3lQALXJxvhZ16/FX+s1f2Ri/+6eGDERo4P4ZAdaKzxq5b9+Zxa49pmY/qF6PWDjrWinT1MzA95WyArTK/kOV2HfIu43WcCUBtMjzZ3ncuGqRxdoWz9tNEuEkws+MfbeR+/i0MouXubpYi0+f2rFYpmMn7fwDyjN72i4sWkOABdBCyggpYsF1EhER1y7VYnnJOByZXGnkrnzw5eY+FPiWbVoDd6BEs6c9Y2gNARZACwkmWMuTR3ncvlk3EBGxvLwSYvW7jUNZ/OQfHY4f+VFfqF9m/iPXSJk2DWcxMi48BcozPTMQQ5vUKbN+AiyAFrIDi7UsnK9FrhrqV1xURhgREb/my4Oxd79p2cvMa+BeqmOvVaPi0gNKNDAY8doX7MJi/byuAFro+uVaPNOrhVXof/X9NHJnNbeu1+PBPc/UMk0pHwTaYPaMZw3rJ8ACaKE8j7i0YEHOq9ml9/00cmc1+l+Vb2rGohIo3+zpQaedsm4CLIAWE1DwKnkesTjn+vi8a5drsfTCDhtebu5D90uZBjdkcfSY/ldA+bbvzGJ0wvOG9RFgAbSYAItXuXWtHk8fC2s+r16LuHpRU3tebv4DO7DKNHmiGgM2YAFt4jRC1kuABdBiC+csuHg5/a9eTiN3XubBvTxu3xJulkn/K6CdTp1x2i7rI8ACKGHRde+ORRc/bMHuvJe6rJE7L3He7qvSTZ1UzgO0z9hUNbbt0AiL5gmwAEqgjJCXXhf6X72UHVi8zLwG7qWqViMmjguwgPbJsoiZN+zConkCLIASCLD4QUsv8rh20XXxMjeu1OL5M73B+H7nP3C/lGlsqhobNtoJAbTX7BmlyzRPgAVQAqVi/KCL87WouSxeql7XyJ3v9/RxHtcvu2HKNDVjEQm038wbA1G1+ZMmCbAASnBpvhZ1ay8+x668te8Z+Mz82VrkNuWVSgN3oBM2DWcxecLzh+YIsABK8OJ5HtevWJDzPQKs1V3SyJ3PmdPAvdwFQCVi8oQtEEBnKCOk6feXIQAohzJCPk+AtToBFp83p4F7qUbGqzG8Wf8roDNOndHIneYIsABKclFgwXc9uJfH3U/0eFrNjSu1ePapmjFWDjy4LNAs1bTyQaCDDo5WYu8BUQSNc9UAlMSOGz5z4azdJGvJ84gri+4ZVnavLrtlSnXspPJBoLNe/5IgncYJsABKcv1KLZ49taMEYWZRygiJiJj/0HVQpizTwB3ovFllhDRBgAVQkjy3IGeFAKuYy04iJPS/KtuBkUps3a7/FdBZx18fiA0bPYtojAALoESCC+p1QWZRF42T+6UWsXDOdVCm6Rm7r4DOG9wQcWJWOTONEWABlMhJhFy/XIvnz5SSFnHrWj0+VXbb164sauZfNuWDQCqUEdIoARZAiRbPK4Xpd3aTFKeRO8oHy6eBO5CK2TMDkakipAECLIASPbiXx91P6gaijykjbcwlfbD62pwG7qXau78Su/aY/gNp2LWnEoeOCNUpzhsMoGQCjP62YBdeQwRY/SvPI+Y/cr+UaUr/KyAxs2c8lyhOgAVQMgFW/3r2NI+bV+3Aa4RG7v3r5rV6PHqg/1WZppQPAok5JcCiAQIsgJIJsPr4t5+rRW493pDbN+rx9IlB60f6X5XPDiwgNRPHB2LzVo2wKEaABVCySxdqUZdh9SUN3BuX5xGX7cLqS/MfCLDKtH1nFvsOmvoDaalUIma+KFyn4PViCADK9eJ5HtcuW5D3I6dQNueSAKsvaeBerunXLRCBNM2eGTQIFCLAAmgDZYT96aKG5E3RyL3/3LtTjzu39Ysr09RJARaQptdPD0RFMkEBLhOANhBg9Z/bt+rx8L5eTs0QYPWfuQ/85mWbmtHAHUjT5i1ZjE97RrE2ARZAGywoJes7QsvmffJxPZ48Ev71Ew3cy18cHhq1OATSpYyQIgRYAG1w86qT1fqNAKt5ea4PVr/R/6pcUzMDkTnkC0jYqTPKnFmbAAugTQtyJ6v1l4VzdpSsh/ulfzx5nMeNK37vMk2dtPsKSNvIWDV27RVPsDpXCECbLNiR0zeWlyOuLPq918MOrP4x/+Fy5DaolkoDd6AbvP6GZxWrE2ABtImSsv5xZaEWy0vGYT2c4Ng/lA+Wa+NQFkcm7MAC0jerjJA1CLAA2kRJWf8QVq7fnY/r8eihbTn9QAP3ch17rRoV+RXQBU6cGojBDcaBVxNgAbTJowd53LldNxB9wKmTraEPVu978TyPKwt+5zIpHwS6xcahLKZnPLN4NQEWQBvZmeN3prhLygh73sK5WizLe0s1NWP7FdA9Zs8MGgReSYAF0EaCjd735FEen9yy064VNHLvffpflWtgMGLsmN0MQPc4pQ8Wq73XDAFA+wiwet+FczUnqrWIHVi9T/+rck1M6yfTjG//s6X4T/7DpwaChh2fHYh/6z/YbCDWYc/+ShwYqcTNqz4G8sPswAJo54L8Qi1q1uQ9bVH/q5a5+0k9Ht6TBvaqek2oXzblg81ZOOe6pDnzHy7Hp0+9t9Zr9rQyQl5OgAXQRksv8rh2ycS4l1mQt9YlDb5797e9UIvnzyz0yqSBe3OcGkyzarWIs99x/ayXMkJeRYAF0GYCjt6V5xEXlb21lDLC3qV8sORJfjVi4rgdWI2q1SIuXVC6RPPe/7Zn23odOzkQw5szA8EPv9sMAUB7CbB6181r9Xj62I6SVtLIvXdp4F6uo5PVGNpkAdioKwu1WHrhOU7z3v/Wsl6Y61StRrz2Bbuw+GECLIA20yOpdyk7aT07sHpTnkfMf+R+KdP0jMVfc89xzxzW596dely/7Dpar1llhLyEAAugzW5eq8fTJz7N9SK761rv/t16PNDIvefcuFKLJ4/8rmU6dlL5YDN8iKAVlBGu3+zpwchsIuUHCLAA2izP7SrpVQKsclyctxDoNcoHy5VlEcdes3uhGRfswKIF3v+W99Z6bd2exdFjgni+nwALoAMEHb3nxfM8rikZKMVlfbB6jgbu5Tp8tBqbt9i60KhHD/K487EG7rTgGffRcnz61C7T9Zo9PWgQ+D4CLIAOWBBg9ZxL87Wo+1lL4WTH3jP/kd+0TNMzdi0048JZwSqtUa9FfPTLrqf1OqUPFj9AgAXQARq59x6hZHmU3PaWO7frcfe2XS5lmjpp0dfUc1z5IC2kD9b6HZmsxo5dIgu+x9UA0AHKFHqPstDyPLyfx7077pdeMfeBe6VsxwRYTdH/ilZ6718uRa6KcF2yLGLmS55nfI8AC6BD7Njxe1KcXVi9Y17/q1IdOFyJ7Tv1v2pUvabfHq314F4e1y65ptZr9rQAi+8RYAF0iB07veP+3Xrct0OoVJcsLHuGBu7lmpqx2GvGlYu1eP7MdhlaSxnh+s28MRADernzXQIsgA7RB6t36JtSPjuwesPjh3ncvCbsLZP+V57jpOP9b5nrrdfGoSyOvea5xgoBFkCHXF6oxbJ5TU+wm658TiLsDXMfLusJU7IpJxA29xw/54VM682fXY6nTzz01stphHxGgAXQIUsvQm+EHuHLffkeP8zjjpPrut7ch+6VMu3aU4nde03vm6GBO2Wo1yLOfkc4ul6zZ9QQssIbDqCD7NzpgclpfWU3HeVTRtj99L8q1/Trdl8149GDPG7fFJBTDmWE67f/UCX2HRJdIMAC6CgBVve7qvFv2zghrLs9f5bHlUW/YZn0v2rOgvJBSvTet5aUTrfA7Gm7sBBgAXSURu698BtakLeLPljd7cLZWtT9hKVyAmFzFjzHKdGDe7mWES0we9rzDQEWQEfdul6Pp499lutmAqz2uTRf8xW7iykfLNfW7VnsV2LTFH0MKdt7/9Lzb72mXx+IoU2Zgehz3nIAHZTndpV0/cLHLrq2efI4jzsf61PTreY1cC99cZdZ2zWsXo+4OOfapFzvf9tcYb0GBiJOnLILq98JsAA6zA6e7vXp0zxuXROotJNG7t2pVotYFBKUSv+r5ly7pI8h5btwbjmePnGdrdepM55z/U6ABdBhdvB0r8XzStra7ZJG7t35u83X4sVzN0uZpmecQNjUO1j5IG1Qr0V89D+b763X7JlBO037nAALoMMu2oHVteye68D9YgdWV9L/qlybhrM4dESA1QwBFu2ijHD9tu/MYnTcs66fCbAAOuzRwzxu31KG1pULH7vn2k4j9+4094F7pUxTMwNRMatv7jl+zrVJe7z37SXvrxaYVUbY17zqABJgF1b3yXM7sDrh06d53L4p8O22e+XCWfdKmaZO2pHQjCeP8vj4hucJ7fHwXh5XFj0L12v29KBB6GMCLIAECEK6zye36vH4oU+pnaCRe3e5frkWTx67V8o0PWNHQjMWztnRSXspI1y/8elqbN2uEVa/EmABpDCJVorWlQsfOkMj9+4y96Hfq0wbNmYxOmEHlncv3eD9b7nm1ivLImbeENr3KwEWQAIuL9Rieck4dJNFC5+OsQOru2jgXq5jr1VjwFquKUpbabeFc8t2pLbA7BllhP1KgAWQgOWliGuXTKS7ibLPzrm0oOynq0KCj9wrZZo6Kb1qRp471ZT2q9cjPvplof56vf6lgajaeNqXBFgAiVgQiHSN5aWIKxf9Xp3y7Gket65rvNwNbt+qx91P/FZlmpqximvG9cu1ePZUEk77KSNcv03DWUycEN73IwEWQCKUpHUPJZ+dp4ywO8x/4LlWpoHBiPEpi7hmXNDHkA55/5eW7CJugVNnPPv6kQALIBFK0rqHxr+dp5F7d9DAvVzjUwMxuME4NPXOFWDRIQ/v5XFlwfW3XrOnBVj9SIAFkIiPb9TjySOf5Lpi4SNs7DgBVnfQwL1cygebd+Gca5POef/brr/1OnSkGrv3iTP6jV8cIBEaynYPAVbnXb5Qi7rWSkl79DCPj2/4kcqkgXtznj7J49Y11yad8/639SFoBbuw+o8ACyAhgpEuWJQ/yOOTWxY+nfb8mQVo6uY+WNbnpcxJfCVi8rgdWE29a885yZTOWjhXs+u+BWbPDBqEfnv3GQKAhCbVeiulP+n0GyVDGWHa9L8q1+hENYaGMwPhOU4XqtcjPvxl1+F6nZitxoaNnoP9RIAFkNSk2lfh1Nkllw4BVtr0vyrX9IzSmWZdOOvZQefpg7V+gxuyOD5rJ2o/EWABJOTJI+VpqVtwclUyLs2b/Kfq+bM8rl50r5Rp6qRFWzP0myQV739ryUfLFjiljLCvCLAAEmOHT9oLn0sWPsm4vFCPup8jSfMf1fw2JcqyiGOv2YHVjBtXavH0sdSAznv0II/LCx6U6zV7xrOwnwiwABKjN0faC59Pn1r4pOLF8zxuXDP5T5HywXIdGq3Glm36vjT3jvXMIB3vf8uzcr127anE4SN2pPYLARZAYuzA8ttQnB1xadLAvVxTMxZrzVIGTkre//aSQWgBu7D6hwALIDFXFmuxbD6TJAFWejRyT8/yUsTFOb9LmaZOWqw1S4BFavOKJ4/s7F4vAVb/EGABJLj4u6L5cZoLHwFWcuzASs/F+VosvbAgK5MdWM159jSPG1c8M0hHvR7x4f+sjHC9Jk8MxOatyqr7gQALIEF2+qTn+bM8rlv4JOfKYi1qfpakzOt/Vap9ByuxY5cpfDMWztec+kZy3v+2Z+Z6VSoRJ79oF1Zf/NaGACA9ixq5J+fivFPVUrT0IuyoSIwG7uWamrFIa5byQVL0/reWBKstMHt60CD0AQEWQILswPKbUNxFZYTJyPOIC2f9HmWaOql8sFkL54SrpOfRwzwu6+e4brNnBqIi3eh5fmKABN2+WY/HD32OS4kAK136YKXj6sVaPH3i2VUmO7Cak+ee46TrvW8JV9dr85YsxqYE/L1OgAWQ6ETbrpK0WPiky0mE6Zj70G9Rph27K7F3v+l7M25dq8eTx8JV0vT+tx0/3Qqnzigj7HXegACJEpik4+4n9bh/t24gEnX1Yi2WfbxOgv5X///27m05juoKwPAaSwLHQBwOAQIuh4MlwEImxOY58hR5yVSuUsWlD1VIxiBZGks+YMs2Pkiykaanc+G73ISa7p5Zu/V9j9Aj7en5e+/V3Vry9sGJ3XR8kMSG61XsPxdYm1q5ZIdq3wlYAEkZ5J7oszD4N7XRUcTdWz6jFJHgR59DlxbP+3FmHaePxuOItWvu+5o688lcvP2uxNFnPl2ArDfbXvedxqbdcOkNHSOcuQf37FTs2pL5V9Zxemv1smOETQ0GEV9ftE72mYAFkNT+Xh27v/gxmIHjnPltmxk3c44PduvNPw7iwzNu3Sfx8kUdd7etEeS2emXkwWULVgSsXvMtCJCYcDJ7VRWxvelzyM4g99nbMMC9U0vL8zEYuA6TGK5XMfY8iOT2ntXeqtuCr76Zj4XXXIe+ErAAEjMHa/buDKs4/M0j0fSf060qRk5fzJQdWN06d94A90ndvCEKUIYfLltHm3r95MC8wB4TsAASswNr9sxNKcNo9OpthMzGs1/reHDPFpcuLflB1mAdFwUow+oVT2LacOHSgovQUwIWQGI7W3aVzJqIWA7HCGfH7qtunTw1iDOf2oE1ibq2jlOO4XoVz5/a9d3UyneCf18JWACJjUavIhaz4xhnOQSs2RGwurX41VyccNc+kd1749h7JghQhrqOuH7NetrUnz84ER9+bNHsI58qQHKeHM/OwX4d9+86FlUKw29nZ90A906Z5zK5mz+JAZTFMcJ2rDhG2EsCFkByZnfMztbPlVdaF+TOdhVHhz6waXt5UMedWwJWlxaXBayJv0N/8rdJWdaujtx7tODCJetmHwlYAMnZgeWHD7/PuIq4PbRjbtrWf6xi7LJ3ZuG1Qfz1nPlX1nGOi71ndQzX/d02de78fJx6Y+BC9IyABZDcw/vmd8yK+VflGTpGOHXmX3Xr8y/nYt5Ggon89rKOO9vWBMrjGGFzc3MRX31j8ewbAQsgubqO2PIkbibXXQwpz7ZB7lO3IWB1yvyryQ03qhhbEijQ6mXrahtWHCPsHQELoAB2Ak2fN1eV+4OV6Rkdeftj1xbPOz44qc0b/jYp97vs+VP3IE2tXFyIgVOEvSJgARTAHKwZ/PBxzYt0b6eK31666Z/e2jSKo0PXoStzcxGffSFgWcc5bur61TB3mnnrtBmCfSNgARTxI9Hb8KZ+zdfdOJZoPDbIfZrWrwsEXfpkcS5ee932gcm/O63jlMscrHasXFxwEXpEwAIowMF+HQ/u+VE+Td5cVa5bjhFOjQHu3VpcNr9lUru/jOPZE09+KNfalZE3vLbggjlYvSJgARTCMcLpOTqMuDN0vUtlJtN0jMdCb9cMcJ+cv01Kt79Xx9BLfBo7+/lc/Okd2aMvfJIAhXAUYnq2N6sYudzFGm748Kbh9lYVLw7scOnsJv1ExOdfmt0yqU3fmfSAY4TNDQYRy996GNCb70aXAKCUm3FP4aZFLCzbL7fH8fKFsNI1xwe7debTuTj1hvlXE39negMhPbB6xTrbhhXHCHtDwAIoxO2tKo4O/SifBsc1y1bXETtbPsOuGeDerSXHByd2dFjHbcfA6YFbG5VZbi04/818zFtSe0HAAihEVUXsbJnmOQ1mp/Tjpp9u3bxhZ0CXzp13fHBSw/UqKksAPVDXEdevWWubOnlqEOc8FOgFAQugIGZ6dO/50zoe7QqFpTPIvVv3747j6a92BXRlMDDAvdl3pf9/+mP1sjlYbVi5aE3tAwELoCBDN+Wds6ukHwSsbpl/1a0Pz5yIt06bfzUpu2jpk7Wroxh7rtbYyqUFF6EHBCyAgpjNNIVr7JXVvXD/ztgb8jpk/lW3lpbtFPBdCa/s79UxdG/S2Icfn4j3/yJ/lM4nCFCQ3fvjeP7Uj3I/fPh/6jpie9Nn2ZWNNTuwuuT44OQePRjHk8e2q9AvPzhG2IqvHSMsnoAFUBhP4bpT1xFDw797Y9sxwk48eTSO3fsCQZcMcJ/cTccH6aHVKx4atOGCY4TFE7AACmOQe3fu7lTx0rGz3vAmwm44Ptit9z44Ee+85xZ94u/In3xH0j/bN6t49sT9SVNLy/Nx8g/mC5bMtyNAYRxx6/DaenLfK0M7sDphgHu3Fs2/so7D/6jriLWrjhE2Nb8Q8eUFa2zJBCyA0n6Ur1dRewjXCa9e75fde+M42PfP0jY7sLq16PjgxI4OI3a2/H3ST44RtmPFHKyiCVgAhTnYr+P+XfNnumB3W7/UtTlYra8/e3Xc3XZNu7RkgPvEbt2sYuQ3Pj21dnUUY8tvYxe+W4iBU4TFErAACrRlDlbrXr6o496OO8M+/qClPRs37ADt0h/fHsT7H7k9n5T5V/TZwV4dW17k09jptwdx5hM7XUvlGxKgQHYKte/WRhVjG9t6+bnSnvU1gaBLX5h/1cim+Vf03OoVc7DasHLJWlsqAQugQAKWHz78PgJWuwxw79Y5xwebreO+G+m5Hy5bg9tVqqmOAAAFzUlEQVRw4dKCi1AoAQugQLeHVRwdOsfTJtvy++nhg3HsP/e/0oajw9pMsY4tLTvWMqnHD8fx5JFttPTbzmYVT3/1ndbUp0tz8dZpg7BKJGABFKiqIrY33ai3aShg9VJdm4PVls2fDcju0htvDuKjswLWxH+fdtFyTL7Trl91jLCpwSBi+W92vJZIwAIolEHu7Xm0O44njwXBvnKMsB0b113HLi0uz3szVgMCFsfF6hX3f21YcYywSAIWQKHMwXIt+X3swGqH+VfdWjxv91UT3kDIcbF2bRRjX2uNLX87Hycsu8URsABKvVkXXVojYPWbHVjNjSs7XLq2aID7xEZHEdub/j45Hg72aveALTj15iA+/8K6WxoBC6BQjx6M49kTgzzb4Ml9z/9Xdsfx/Jn/lSZ2tqp4+cI17MrrJwdx9jNbASa1vVnFyFggjpHVK/7g27ByScAqjYAFULCtdeGlKQPxj8kPXLuwGvl5zVrTpXNfzTnK0oCHEBw3q5f9zbdBwCqPgAVQMEffmru9VcXRoZ0lfTcUsBpZN8C9U44PNuN4K8fNzlbl5TMt+PjsXLz7viRSEp8WQMEErBZ++LiGx4JB7pOr64ibNzzt79Lisu1XjdZxAYtjuC6vXbUut+Hrv3uAUBKfFkDBhutV/Odfhy5EA5e/N0fiePzAHflfmdDBXh3Pn9ql2KWdrXHcu+3vcxJHv9Xx+KGdKBw/3//7KCrttrFKByzK4J//MAEYAAAAgLwcIQQAAAAgNQELAAAAgNQELAAAAABSE7AAAAAASE3AAgAAACA1AQsAAACA1AQsAAAAAFITsAAAAABITcACAAAAIDUBCwAAAIDUBCwAAAAAUhOwAAAAAEhNwAIAAAAgNQELAAAAgNQELAAAAABSE7AAAAAASE3AAgAAACA1AQsAAACA1AQsAAAAAFITsAAAAABITcACAAAAIDUBCwAAAIDUBCwAAAAAUhOwAAAAAEhNwAIAAAAgNQELAAAAgNQELAAAAABSE7AAAAAASE3AAgAAACA1AQsAAACA1AQsAAAAAFITsAAAAABITcACAAAAIDUBCwAAAIDUBCwAAAAAUhOwAAAAAEhNwAIAAAAgNQELAAAAgNQELAAAAABSE7AAAAAASE3AAgAAACA1AQsAAACA1AQsAAAAAFITsAAAAABITcACAAAAIDUBCwAAAIDUBCwAAAAAUhOwAAAAAEhNwAIAAAAgNQELAAAAgNQELAAAAABSE7AAAAAASE3AAgAAACA1AQsAAACA1AQsAAAAAFITsAAAAABITcACAAAAIDUBCwAAAIDUBCwAAAAAUhOwAAAAAEhNwAIAAAAgNQELAAAAgNQELAAAAABSE7AAAAAASE3AAgAAACA1AQsAAACA1AQsAAAAAFITsAAAAABITcACAAAAIDUBCwAAAIDUBCwAAAAAUhOwAAAAAEhNwAIAAAAgNQELAAAAgNQELAAAAABSE7AAAAAASE3AAgAAACA1AQsAAACA1AQsAAAAAFITsAAAAABITcACAAAAIDUBCwAAAIDUBCwAAAAAUhOwAAAAAEhNwAIAAAAgNQELAAAAgNQELAAAAABSE7AAAAAASE3AAgAAACA1AQsAAACA1AQsAAAAAFITsAAAAABITcACAAAAIDUBCwAAAIDUBCwAAAAAUhOwAAAAAEhNwAIAAAAgNQELAAAAgNQELAAAAABSE7AAAAAASE3AAgAAACA1AQsAAACA1AQsAAAAAFITsAAAAABITcACAAAAIDUBCwAAAIDUBCwAAAAAUhOwAAAAAEhNwAIAAAAgNQELAAAAgNQELAAAAABSE7AAAAAASE3AAgAAACA1AQsAAACA1AQsAAAAAFITsAAAAABITcACAAAAIDUBCwAAAIDUBCwAAAAAUhOwAAAAAEhNwAIAAAAgNQELAAAAgNQELAAAAABSE7AAAAAASE3AAgAAACA1AQsAAACA1AQsAAAAAFL7LwR4k1o6Z1XyAAAAJXRFWHRkYXRlOmNyZWF0ZQAyMDI0LTA3LTIwVDEwOjIxOjE1KzAwOjAwegzyzgAAACV0RVh0ZGF0ZTptb2RpZnkAMjAyNC0wNy0yMFQxMDoyMToxNSswMDowMAtRSnIAAAAASUVORK5CYII=;" vertex="1" parent="1">
          <mxGeometry x="770" y="339" width="40" height="40" as="geometry" />
        </mxCell>
        <mxCell id="HW7efEHv6wv4-RLYA-nB-31" value="" style="rounded=0;whiteSpace=wrap;html=1;" vertex="1" parent="1">
          <mxGeometry x="815" y="339" width="20" height="11" as="geometry" />
        </mxCell>
        <mxCell id="HW7efEHv6wv4-RLYA-nB-32" value="" style="rounded=0;whiteSpace=wrap;html=1;" vertex="1" parent="1">
          <mxGeometry x="815" y="350" width="20" height="11" as="geometry" />
        </mxCell>
        <mxCell id="HW7efEHv6wv4-RLYA-nB-34" value="" style="rounded=0;whiteSpace=wrap;html=1;" vertex="1" parent="1">
          <mxGeometry x="815" y="361" width="20" height="11" as="geometry" />
        </mxCell>
        <mxCell id="HW7efEHv6wv4-RLYA-nB-35" value="" style="rounded=0;whiteSpace=wrap;html=1;" vertex="1" parent="1">
          <mxGeometry x="815" y="372" width="20" height="11" as="geometry" />
        </mxCell>
        <mxCell id="HW7efEHv6wv4-RLYA-nB-36" value="" style="rounded=0;whiteSpace=wrap;html=1;" vertex="1" parent="1">
          <mxGeometry x="815" y="383" width="20" height="11" as="geometry" />
        </mxCell>
        <mxCell id="HW7efEHv6wv4-RLYA-nB-38" value="Program&lt;br&gt;Stack" style="text;html=1;align=center;verticalAlign=middle;whiteSpace=wrap;rounded=0;fontSize=8;" vertex="1" parent="1">
          <mxGeometry x="795" y="390" width="60" height="30" as="geometry" />
        </mxCell>
        <mxCell id="HW7efEHv6wv4-RLYA-nB-39" value="" style="rounded=0;whiteSpace=wrap;html=1;" vertex="1" parent="1">
          <mxGeometry x="840" y="339" width="40" height="55" as="geometry" />
        </mxCell>
        <mxCell id="HW7efEHv6wv4-RLYA-nB-43" value="Linear&lt;br&gt;Memory" style="text;html=1;align=center;verticalAlign=middle;whiteSpace=wrap;rounded=0;fontSize=8;" vertex="1" parent="1">
          <mxGeometry x="830" y="390" width="60" height="30" as="geometry" />
        </mxCell>
      </root>
    </mxGraphModel>
  </diagram>
</mxfile>
